<svg width="2801" height="3021" viewBox="0 0 2801 3021" fill="none" xmlns="http://www.w3.org/2000/svg">
<path opacity="0.3" d="M2478.11 2391.04C2420.94 2450.78 2366.85 2489.31 2324.1 2519.75C1821.7 2877.58 1227.22 2773.27 1100.87 2747.8C914.302 2710.19 553.665 2637.48 292.931 2333.12C-101.537 1872.66 -84.693 1115.13 265.864 668.332C315.277 605.353 612.715 112.415 1218.35 16.597C1580.57 -40.709 2005.9 64.579 2312.88 319.865C2957.24 855.734 2911.37 1938.29 2478.11 2391.04Z" fill="url(#paint0_linear_690_184)"/>
<g opacity="0.92">
<path d="M717.917 10.1029C722.9 -3.79106 743.243 -1.76507 745.324 12.8479C765.443 154.129 829.804 522.937 976.252 733.565C1214.7 1076.52 1334.45 1597.88 1121.5 1831.38C1121.5 1831.38 174.969 1523.97 717.917 10.1029Z" fill="url(#paint1_linear_690_184)"/>
<path opacity="0.43" d="M723.112 208.618C723.051 212.179 723.247 216.26 723.355 220.146L723.885 231.935L725.205 255.516C726.162 271.236 727.236 286.95 728.382 302.659C730.75 334.072 733.509 365.456 736.555 396.809C742.583 459.522 749.817 522.116 758.258 584.54C775.363 709.346 796.334 833.654 823.649 956.597C837.546 1018 852.011 1079.29 868.902 1139.94C885.849 1200.55 904.104 1260.82 924.872 1320.24C927.308 1327.72 929.982 1335.12 932.712 1342.49L940.802 1364.66L948.892 1386.83C951.681 1394.19 954.664 1401.47 957.54 1408.79C963.423 1423.38 968.967 1438.11 975.129 1452.59L993.863 1495.91C1019.55 1553.36 1048 1609.56 1079.6 1664.06L1079.61 1664.07C1080.07 1664.88 1079.8 1665.92 1078.99 1666.38C1078.2 1666.84 1077.18 1666.58 1076.7 1665.81C1043.6 1612.03 1014.3 1555.99 987.494 1498.8L968.214 1455.52C961.869 1441.06 956.143 1426.34 950.078 1411.76C947.109 1404.45 944.035 1397.17 941.156 1389.82L932.791 1367.66L924.427 1345.5C921.605 1338.12 918.84 1330.73 916.313 1323.25C874.248 1204.12 840.718 1082.11 813.676 958.793L803.78 912.492L794.582 866.05C791.41 850.59 788.782 835.028 785.871 819.519L781.604 796.237L777.644 772.902C766.974 710.697 757.587 648.27 749.84 585.642C742.028 523.024 735.208 460.283 729.997 397.402C727.433 365.958 725.157 334.493 723.273 303.002C722.384 287.253 721.509 271.503 720.852 255.74L720.019 232.086L719.733 220.247C719.722 216.254 719.56 212.456 719.769 208.137C719.815 207.212 720.601 206.499 721.525 206.545C722.433 206.589 723.136 207.344 723.121 208.245L723.112 208.618Z" fill="white"/>
</g>
<path d="M166.764 143.818C169.542 126.72 193.449 124.706 198.976 141.123C252.414 299.842 405.575 711.643 619.617 923.36C968.128 1268.08 1217.83 1844.07 1022.06 2159.06C1022.06 2159.06 -135.903 2006.82 166.764 143.818Z" fill="url(#paint2_linear_690_184)"/>
<path opacity="0.43" d="M214.932 371.786C215.615 375.976 216.699 380.622 217.641 385.096L220.73 398.6L227.213 425.553C231.637 443.501 236.252 461.402 240.916 479.291C250.35 515.042 260.227 550.675 270.43 586.212C290.759 657.307 312.444 728.011 335.492 798.261C381.814 938.674 432.644 1077.64 490.42 1213.71C519.566 1281.61 549.42 1349.24 581.902 1415.62C585.824 1423.98 589.95 1432.24 594.133 1440.48L606.588 1465.23L619.043 1489.98C623.257 1498.2 627.672 1506.31 631.975 1514.48C640.693 1530.76 649.166 1547.18 658.083 1563.36L685.143 1611.71C687.407 1615.73 689.602 1619.8 691.925 1623.79L698.974 1635.71L713.076 1659.55L727.178 1683.4C731.975 1691.29 736.983 1699.05 741.876 1706.88L756.636 1730.32C761.621 1738.09 766.319 1746.06 771.586 1753.64L802.517 1799.61C844.539 1860.36 889.458 1919.11 937.691 1975.15L937.702 1975.16C938.311 1975.87 938.232 1976.93 937.524 1977.54C936.828 1978.14 935.78 1978.07 935.168 1977.39C885.584 1922.34 839.851 1863.91 796.781 1803.61L765.32 1757.79C759.962 1750.23 755.178 1742.29 750.104 1734.54L735.078 1711.16C730.096 1703.35 724.999 1695.61 720.111 1687.75L705.743 1663.96L691.374 1640.17L684.189 1628.28C681.821 1624.3 679.584 1620.24 677.273 1616.23C603.317 1487.77 538.604 1354.16 481.012 1217.68L459.681 1166.39L439.126 1114.78C432.156 1097.63 425.791 1080.23 419.112 1062.97L409.203 1037.02L399.637 1010.95C374.012 941.466 349.809 871.459 327.413 800.878C304.958 730.32 283.617 659.405 264.111 587.982C254.407 552.258 245.031 516.446 236.1 480.522C231.688 462.546 227.323 444.558 223.15 426.524L217.045 399.432L214.139 385.845C213.256 381.252 212.243 376.883 211.553 371.923C211.426 371.006 212.066 370.158 212.984 370.03C213.888 369.905 214.723 370.524 214.87 371.419L214.932 371.786Z" fill="white"/>
<path d="M1260.18 2676.52H2525.83C2542.4 2676.52 2555.83 2663.09 2555.83 2646.52V30.004C2555.83 13.435 2542.4 0.00402832 2525.83 0.00402832H1260.18C1243.61 0.00402832 1230.18 13.435 1230.18 30.004V2646.52C1230.18 2663.09 1243.62 2676.52 1260.18 2676.52Z" fill="url(#paint3_linear_690_184)"/>
<path d="M1134.95 2676.51H2400.6C2417.17 2676.51 2430.6 2663.08 2430.6 2646.51V30C2430.6 13.431 2417.17 0 2400.6 0H1134.95C1118.38 0 1104.95 13.431 1104.95 30V2646.51C1104.95 2663.08 1118.38 2676.51 1134.95 2676.51Z" fill="url(#paint4_linear_690_184)"/>
<path d="M1179.83 1537.01H2364.9C2379.25 1537.01 2390.9 1525.37 2390.9 1511.01V52.504C2390.9 38.145 2379.25 26.504 2364.9 26.504H1179.83C1165.47 26.504 1153.83 38.145 1153.83 52.504V1511.01C1153.83 1525.37 1165.47 1537.01 1179.83 1537.01Z" fill="url(#paint5_linear_690_184)"/>
<path d="M1176.77 2650.01H2361.84C2376.19 2650.01 2387.84 2638.37 2387.84 2624.01V1579.57C2387.84 1565.21 2376.19 1553.57 2361.84 1553.57H1176.77C1162.41 1553.57 1150.77 1565.21 1150.77 1579.57V2624.01C1150.77 2638.37 1162.41 2650.01 1176.77 2650.01Z" fill="url(#paint6_linear_690_184)"/>
<path d="M1235.95 1166.01H1291.92C1298.42 1166.01 1303.68 1160.74 1303.68 1154.24V462.265C1303.68 455.769 1298.42 450.503 1291.92 450.503H1235.95C1229.45 450.503 1224.18 455.769 1224.18 462.265V1154.24C1224.18 1160.74 1229.45 1166.01 1235.95 1166.01Z" fill="url(#paint7_linear_690_184)"/>
<path d="M1229.35 2120.01H1285.32C1291.82 2120.01 1297.09 2114.75 1297.09 2108.25V1664.71C1297.09 1658.21 1291.82 1652.95 1285.32 1652.95H1229.35C1222.85 1652.95 1217.59 1658.21 1217.59 1664.71V2108.25C1217.58 2114.75 1222.85 2120.01 1229.35 2120.01Z" fill="url(#paint8_linear_690_184)"/>
<path d="M77.9538 1407.93L165.037 2694.95C166.81 2721.16 188.585 2741.51 214.852 2741.51H1145.31C1171.23 2741.51 1192.84 2721.67 1195.05 2695.84L1305.4 1407.87C1307.79 1379.96 1286.76 1355.57 1258.81 1353.77C913.068 1331.51 531.043 1334.77 125.352 1354.68C97.4418 1356.05 76.0668 1380.05 77.9538 1407.93Z" fill="url(#paint9_linear_690_184)"/>
<path d="M240.574 1617.17H1129.07C1175.34 1617.17 1211.76 1656.66 1208.02 1702.79L1143.3 2500.92C1139.98 2541.92 1105.83 2573.55 1064.7 2573.73L309.236 2577.09C267.961 2577.27 233.463 2545.73 229.957 2504.6L161.647 1703.11C157.707 1656.88 194.172 1617.17 240.574 1617.17Z" fill="url(#paint10_linear_690_184)"/>
<path opacity="0.5" d="M1227.12 1575.56H132.32C128.122 1575.56 124.375 1572.93 122.949 1568.98C120.603 1562.49 125.415 1555.64 132.32 1555.64H1227.12C1235.17 1555.64 1239.89 1564.67 1235.31 1571.28C1233.44 1573.96 1230.39 1575.56 1227.12 1575.56Z" fill="white"/>
<path d="M141.443 1408.49L149.418 1517.98C149.805 1523.28 154.223 1527.39 159.545 1527.39H394.986C400.47 1527.39 404.963 1523.04 405.135 1517.56L408.749 1402.37C408.932 1396.55 404.189 1391.77 398.366 1391.9L151.335 1397.6C145.532 1397.74 141.022 1402.7 141.443 1408.49Z" fill="url(#paint11_linear_690_184)"/>
<path d="M875.828 1445.81L880.063 1517.98C880.45 1523.28 884.869 1527.39 890.19 1527.39H1191.14C1196.63 1527.39 1201.12 1523.04 1201.29 1517.56L1208.64 1439.69C1208.83 1433.87 1204.08 1429.09 1198.26 1429.22L885.721 1434.92C879.917 1435.06 875.406 1440.02 875.828 1445.81Z" fill="url(#paint12_linear_690_184)"/>
<path d="M547.526 1527.39C584.364 1527.39 614.226 1497.53 614.226 1460.69C614.226 1423.85 584.364 1393.99 547.526 1393.99C510.689 1393.99 480.826 1423.85 480.826 1460.69C480.826 1497.53 510.689 1527.39 547.526 1527.39Z" fill="url(#paint13_linear_690_184)"/>
<path opacity="0.56" d="M554.418 1501.18C580.584 1501.18 601.796 1479.97 601.796 1453.8C601.796 1427.63 580.584 1406.42 554.418 1406.42C528.252 1406.42 507.04 1427.63 507.04 1453.8C507.04 1479.97 528.252 1501.18 554.418 1501.18Z" fill="url(#paint14_linear_690_184)"/>
<path d="M738.232 1527.39C775.07 1527.39 804.932 1497.53 804.932 1460.69C804.932 1423.85 775.07 1393.99 738.232 1393.99C701.395 1393.99 671.532 1423.85 671.532 1460.69C671.532 1497.53 701.395 1527.39 738.232 1527.39Z" fill="url(#paint15_linear_690_184)"/>
<path opacity="0.56" d="M745.124 1501.18C771.29 1501.18 792.502 1479.97 792.502 1453.8C792.502 1427.63 771.29 1406.42 745.124 1406.42C718.958 1406.42 697.746 1427.63 697.746 1453.8C697.746 1479.97 718.958 1501.18 745.124 1501.18Z" fill="url(#paint16_linear_690_184)"/>
<path d="M942.869 1416.74H879.956C877.661 1416.74 875.801 1414.88 875.801 1412.59V1390.74C875.801 1388.44 877.661 1386.58 879.957 1386.58H942.87C945.165 1386.58 947.025 1388.44 947.025 1390.74V1412.59C947.025 1414.88 945.164 1416.74 942.869 1416.74Z" fill="url(#paint17_linear_690_184)"/>
<path d="M1029.19 1416.74H966.276C963.981 1416.74 962.12 1414.88 962.12 1412.59V1390.74C962.12 1388.44 963.98 1386.58 966.276 1386.58H1029.19C1031.48 1386.58 1033.34 1388.44 1033.34 1390.74V1412.59C1033.35 1414.88 1031.48 1416.74 1029.19 1416.74Z" fill="url(#paint18_linear_690_184)"/>
<path d="M1118.17 1416.74H1055.26C1052.97 1416.74 1051.11 1414.88 1051.11 1412.59V1390.74C1051.11 1388.44 1052.97 1386.58 1055.26 1386.58H1118.18C1120.47 1386.58 1122.33 1388.44 1122.33 1390.74V1412.59C1122.33 1414.88 1120.47 1416.74 1118.17 1416.74Z" fill="url(#paint19_linear_690_184)"/>
<path d="M1204.49 1416.74H1141.58C1139.29 1416.74 1137.43 1414.88 1137.43 1412.59V1390.74C1137.43 1388.44 1139.29 1386.58 1141.58 1386.58H1204.49C1206.79 1386.58 1208.65 1388.44 1208.65 1390.74V1412.59C1208.65 1414.88 1206.79 1416.74 1204.49 1416.74Z" fill="url(#paint20_linear_690_184)"/>
<path opacity="0.5" d="M1148.86 2616.14H212.316C208.899 2616.14 206.128 2613.37 206.128 2609.95C206.128 2606.53 208.899 2603.76 221.884 2603.76H1158.43C1152.27 2603.76 1155.05 2606.53 1155.05 2609.95C1155.05 2613.37 1152.28 2616.14 1148.86 2616.14Z" fill="white"/>
<path opacity="0.61" d="M680.546 2448.06C880.296 2448.06 1042.23 2286.13 1042.23 2086.38C1042.23 1886.63 880.296 1724.7 680.546 1724.7C480.796 1724.7 318.867 1886.63 318.867 2086.38C318.867 2286.13 480.796 2448.06 680.546 2448.06Z" fill="url(#paint21_linear_690_184)"/>
<path d="M684.147 2376.8C846.533 2376.8 978.172 2245.16 978.172 2082.78C978.172 1920.39 846.533 1788.75 684.147 1788.75C521.762 1788.75 390.122 1920.39 390.122 2082.78C390.122 2245.16 521.762 2376.8 684.147 2376.8Z" fill="url(#paint22_linear_690_184)"/>
<path d="M684.147 2359.85C837.169 2359.85 961.218 2235.8 961.218 2082.78C961.218 1929.76 837.169 1805.71 684.147 1805.71C531.125 1805.71 407.076 1929.76 407.076 2082.78C407.076 2235.8 531.125 2359.85 684.147 2359.85Z" fill="url(#paint23_linear_690_184)"/>
<path d="M791.533 1852.16C769.466 1839.67 741.273 1842.37 723.501 1860.45C695.254 1889.19 664.809 1940.01 697.746 2010.46C747.336 2116.53 737.593 2286.36 634.839 2331.36C634.839 2331.36 883.848 2359.85 931.849 2119.97C963.131 1963.64 846.512 1883.25 791.533 1852.16Z" fill="url(#paint24_linear_690_184)"/>
<path opacity="0.53" d="M638.775 1872.29C631.067 1872.47 623.508 1874.26 616.454 1877.29C609.375 1880.25 602.707 1884.23 596.453 1888.8C590.186 1893.37 584.252 1898.43 578.577 1903.85C572.835 1909.18 567.318 1914.75 562.04 1920.52C540.777 1943.44 523.056 1969.54 510.306 1997.77C497.711 2026.01 489.992 2056.49 489.559 2087.12C489.099 2117.73 495.074 2148.57 507.945 2176.23C520.679 2203.89 540.274 2228.37 565.577 2245.17C590.684 2262.23 620.602 2272.13 650.965 2274.38C666.166 2275.46 681.459 2274.52 696.475 2271.77C711.451 2268.85 726.164 2264.3 740.119 2257.97C768.021 2245.38 793.266 2226.48 813.019 2203.08C832.717 2179.75 847.147 2151.46 851.303 2121.51C853.483 2106.58 852.75 2091.39 849.346 2076.81C847.42 2069.57 845.189 2062.36 841.927 2055.55C840.503 2052.06 838.548 2048.81 836.832 2045.46C834.844 2042.25 833 2038.94 830.766 2035.89C813.649 2010.9 787.46 1992.2 758.06 1984.72C728.584 1977.37 696.511 1980.19 668.36 1992.24C661.332 1995.26 654.474 1998.73 648.047 2002.89C641.516 2006.88 635.437 2011.58 629.744 2016.67C618.37 2026.86 608.885 2039.17 602.659 2052.94C596.278 2066.66 593.875 2081.96 595.913 2096.92C597.865 2111.82 604.444 2126.22 615.173 2136.57C625.93 2146.86 641.001 2152.25 656.114 2152.27C671.216 2152.26 686.504 2147.28 698.217 2137.59C704.04 2132.78 708.954 2126.82 711.791 2119.97C714.689 2113.2 715.065 2105.4 712.786 2098.41C710.568 2091.43 705.218 2085.47 698.077 2083.8C691.119 2081.96 682.82 2083.83 678.497 2089.66C677.946 2090.41 676.888 2090.57 676.136 2090.02C675.39 2089.48 675.23 2088.42 675.761 2087.67C678.327 2084.11 682.129 2081.53 686.266 2080.3C690.396 2079.06 694.83 2078.91 699.021 2079.91C703.221 2080.82 707.239 2083.02 710.339 2086.05C713.421 2089.1 715.728 2092.86 717.16 2096.89C720.031 2104.93 719.804 2113.99 716.67 2121.91C713.593 2129.85 708.18 2136.57 701.911 2141.98C689.283 2152.83 672.737 2158.6 656.158 2158.93C639.601 2159.25 622.519 2153.64 609.991 2142.12C597.562 2130.6 589.974 2114.61 587.475 2098.16C584.863 2081.68 587.27 2064.33 594.001 2049.13C600.628 2033.82 610.859 2020.37 622.962 2009.24C629.03 2003.68 635.509 1998.56 642.466 1994.18C649.324 1989.63 656.634 1985.82 664.142 1982.48C694.202 1969.21 728.605 1965.66 760.893 1973.3C793.224 1981.11 822.241 2001.29 841.328 2028.48C843.816 2031.81 845.907 2035.42 848.128 2038.93C850.082 2042.61 852.258 2046.17 853.895 2050.01C857.58 2057.5 860.189 2065.49 862.416 2073.55C866.479 2089.82 867.424 2106.88 865.038 2123.39C862.918 2139.96 857.636 2155.89 850.675 2170.85C843.474 2185.71 834.539 2199.67 823.925 2212.23C802.805 2237.43 776.027 2257.64 746.137 2271.29C731.197 2278.13 715.392 2283.1 699.227 2286.31C683.033 2289.35 666.393 2290.44 649.917 2289.33C616.999 2287.02 584.544 2276.46 556.987 2257.92C529.224 2239.6 507.404 2212.77 493.736 2182.77C480.062 2152.7 473.598 2119.59 474.676 2086.75C475.759 2053.83 484.435 2021.57 498.692 1992.35C512.852 1963.03 532.447 1936.67 555.406 1914.07C561.173 1908.45 567.158 1903.05 573.349 1897.92C579.463 1892.71 585.92 1887.79 592.75 1883.38C599.57 1878.98 606.85 1875.12 614.617 1872.44C622.383 1869.78 630.661 1868.47 638.849 1868.91C639.781 1868.95 640.498 1869.75 640.446 1870.68C640.4 1871.57 639.677 1872.26 638.804 1872.28L638.775 1872.29Z" fill="white"/>
<path d="M1678.48 2788.67H552.201C548.888 2788.67 546.201 2785.98 546.201 2782.67V2104.38C546.201 2087.14 560.176 2073.16 577.415 2073.16H1654.5C1671.06 2073.16 1684.47 2086.58 1684.47 2103.13V2782.67C1684.48 2785.98 1681.79 2788.67 1678.48 2788.67Z" fill="url(#paint25_linear_690_184)"/>
<path d="M1404.1 2159.23H579.75V2733.1H1404.1V2159.23Z" fill="url(#paint26_linear_690_184)"/>
<path d="M1684.47 2788.67H1442.44V2073.16H1658.25C1672.73 2073.16 1684.47 2084.9 1684.47 2099.38V2788.67Z" fill="url(#paint27_linear_690_184)"/>
<path d="M1398.78 2646.83H1373.47C1370.55 2646.83 1368.15 2644.44 1368.15 2641.51V2275.92C1368.15 2273 1370.55 2270.6 1373.47 2270.6H1398.78C1401.71 2270.6 1404.1 2273 1404.1 2275.92V2641.51C1404.1 2644.44 1401.71 2646.83 1398.78 2646.83Z" fill="url(#paint28_linear_690_184)"/>
<path d="M1641.77 2249.04H1468.37C1463.31 2249.04 1459.22 2244.94 1459.22 2239.89V2150.35C1459.22 2145.3 1463.31 2141.2 1468.37 2141.2H1641.77C1646.83 2141.2 1650.93 2145.3 1650.93 2150.35V2239.89C1650.92 2244.94 1646.83 2249.04 1641.77 2249.04Z" fill="url(#paint29_linear_690_184)"/>
<path d="M1553.99 2758.08C1593.45 2758.08 1625.43 2726.1 1625.43 2686.65C1625.43 2647.19 1593.45 2615.21 1553.99 2615.21C1514.54 2615.21 1482.55 2647.19 1482.55 2686.65C1482.55 2726.1 1514.54 2758.08 1553.99 2758.08Z" fill="url(#paint30_linear_690_184)"/>
<path d="M1555.07 2743.53C1586.49 2743.53 1611.95 2718.06 1611.95 2686.65C1611.95 2655.23 1586.49 2629.76 1555.07 2629.76C1523.65 2629.76 1498.19 2655.23 1498.19 2686.65C1498.19 2718.06 1523.65 2743.53 1555.07 2743.53Z" fill="url(#paint31_linear_690_184)"/>
<path d="M1519.25 2348.33C1530.91 2348.33 1540.37 2338.87 1540.37 2327.21C1540.37 2315.55 1530.91 2306.09 1519.25 2306.09C1507.59 2306.09 1498.13 2315.55 1498.13 2327.21C1498.13 2338.87 1507.59 2348.33 1519.25 2348.33Z" fill="url(#paint32_linear_690_184)"/>
<path d="M1585.03 2348.33C1596.69 2348.33 1606.14 2338.87 1606.14 2327.21C1606.14 2315.55 1596.69 2306.09 1585.03 2306.09C1573.36 2306.09 1563.91 2315.55 1563.91 2327.21C1563.91 2338.87 1573.36 2348.33 1585.03 2348.33Z" fill="url(#paint33_linear_690_184)"/>
<path d="M1519.25 2421.42C1530.91 2421.42 1540.37 2411.96 1540.37 2400.3C1540.37 2388.64 1530.91 2379.18 1519.25 2379.18C1507.59 2379.18 1498.13 2388.64 1498.13 2400.3C1498.13 2411.96 1507.59 2421.42 1519.25 2421.42Z" fill="url(#paint34_linear_690_184)"/>
<path d="M1585.03 2421.42C1596.69 2421.42 1606.14 2411.96 1606.14 2400.3C1606.14 2388.64 1596.69 2379.18 1585.03 2379.18C1573.36 2379.18 1563.91 2388.64 1563.91 2400.3C1563.91 2411.96 1573.36 2421.42 1585.03 2421.42Z" fill="url(#paint35_linear_690_184)"/>
<path d="M1520.45 2499.3C1532.11 2499.3 1541.56 2489.84 1541.56 2478.18C1541.56 2466.52 1532.11 2457.06 1520.45 2457.06C1508.78 2457.06 1499.33 2466.52 1499.33 2478.18C1499.33 2489.84 1508.78 2499.3 1520.45 2499.3Z" fill="url(#paint36_linear_690_184)"/>
<path d="M1586.22 2499.3C1597.89 2499.3 1607.34 2489.84 1607.34 2478.18C1607.34 2466.52 1597.89 2457.06 1586.22 2457.06C1574.56 2457.06 1565.11 2466.52 1565.11 2478.18C1565.11 2489.84 1574.56 2499.3 1586.22 2499.3Z" fill="url(#paint37_linear_690_184)"/>
<path d="M1523.98 2574.78C1535.64 2574.78 1545.1 2565.33 1545.1 2553.67C1545.1 2542 1535.64 2532.55 1523.98 2532.55C1512.32 2532.55 1502.86 2542 1502.86 2553.67C1502.86 2565.33 1512.32 2574.78 1523.98 2574.78Z" fill="url(#paint38_linear_690_184)"/>
<path d="M1589.76 2574.78C1601.42 2574.78 1610.87 2565.33 1610.87 2553.67C1610.87 2542 1601.42 2532.55 1589.76 2532.55C1578.09 2532.55 1568.64 2542 1568.64 2553.67C1568.64 2565.33 1578.09 2574.78 1589.76 2574.78Z" fill="url(#paint39_linear_690_184)"/>
<mask id="mask0_690_184" style="mask-type:luminance" maskUnits="userSpaceOnUse" x="395" y="2111" width="1002" height="910">
<path d="M1396.34 2523.89L682.457 2111.72L395.52 2608.69L1109.41 3020.87L1396.34 2523.89Z" fill="white"/>
</mask>
<g mask="url(#mask0_690_184)">
<path opacity="0.06" d="M1005.99 1868.89L973.305 1850.02L433.251 2785.39L465.934 2804.26L1005.99 1868.89Z" fill="white"/>
</g>
<mask id="mask1_690_184" style="mask-type:luminance" maskUnits="userSpaceOnUse" x="512" y="1939" width="1002" height="910">
<path d="M1513.02 2351.46L799.136 1939.28L512.199 2436.26L1226.09 2848.43L1513.02 2351.46Z" fill="white"/>
</mask>
<g mask="url(#mask1_690_184)">
<path opacity="0.11" d="M1386.09 2000.39L1353.4 1981.52L813.349 2916.9L846.033 2935.77L1386.09 2000.39Z" fill="white"/>
</g>
<mask id="mask2_690_184" style="mask-type:luminance" maskUnits="userSpaceOnUse" x="468" y="2045" width="1002" height="910">
<path d="M1469 2457.9L755.117 2045.73L468.18 2542.7L1182.07 2954.88L1469 2457.9Z" fill="white"/>
</mask>
<g mask="url(#mask2_690_184)">
<path opacity="0.14" d="M1193.73 1987.8L1104.5 1936.28L564.443 2871.65L653.676 2923.17L1193.73 1987.8Z" fill="white"/>
</g>
<path d="M2610.92 1637.07C2623.24 1604.31 2628.56 1565.35 2620.46 1519.92C2670.2 1511.26 2716.62 1493.52 2757.34 1465.28C2762.18 1535.21 2743.62 1612.42 2679.23 1689.01C2647.97 1726.19 2605.92 1763.22 2550.51 1799.19L2534.18 1834.04L2485.14 1772.96C2485.14 1772.96 2576.02 1729.85 2610.92 1637.07Z" fill="url(#paint40_linear_690_184)"/>
<path d="M1921 1332.79C1971.27 1341.59 2015.28 1335.02 2054.16 1320.59C2055.18 1329.23 2056.64 1337.91 2058.66 1346.65C2067.15 1384.88 2078.85 1421.91 2095.26 1456.04C2019.93 1467.18 1951.9 1445.32 1901.18 1419.24C1900.47 1383.87 1910.14 1354.45 1921 1332.79Z" fill="url(#paint41_linear_690_184)"/>
<path d="M2054.16 1320.59C2119.47 1296.37 2170.32 1249.99 2212.09 1217.12C2300.07 1147.89 2366.85 1183.64 2366.85 1183.64L2270.99 1364.92C2211.12 1421.33 2151.18 1447.77 2095.26 1456.04C2078.86 1421.91 2067.16 1384.88 2058.66 1346.65C2056.64 1337.91 2055.18 1329.23 2054.16 1320.59Z" fill="url(#paint42_linear_690_184)"/>
<path d="M1732.67 1245.54L1777 1271.41C1830.1 1306.38 1877.85 1325.23 1921 1332.79C1910.13 1354.45 1900.47 1383.87 1901.18 1419.24C1844.93 1390.32 1809.96 1356.21 1809.96 1356.21C1709.64 1291.48 1732.67 1245.54 1732.67 1245.54Z" fill="url(#paint43_linear_690_184)"/>
<path d="M2235.19 2499.65L1873.38 980.461L1718.53 1010.35L1948.04 2555.06C1948.55 2558.51 1949.14 2561.94 1949.8 2565.37L1959.78 2617.04C1976.89 2705.71 2039.23 2768.24 2099.02 2756.7L2170.09 2742.98C2229.88 2731.44 2264.48 2650.21 2247.36 2561.54L2237.39 2509.86C2236.73 2506.44 2236 2503.03 2235.19 2499.65ZM2116.14 2654.43C2076.47 2662.09 2033.87 2614.18 2020.99 2547.42C2008.1 2480.66 2029.82 2420.33 2069.49 2412.67C2109.15 2405.02 2151.75 2452.93 2164.64 2519.69C2177.52 2586.45 2155.81 2646.78 2116.14 2654.43Z" fill="url(#paint44_linear_690_184)"/>
<path d="M1850.42 441.863L1908.29 741.7C1912.41 763.048 1906.39 785.1 1891.99 801.391L1818.18 884.899C1797.11 908.735 1762.63 915.389 1734.2 901.106L1634.62 851.062C1615.19 841.299 1601.39 823.072 1597.27 801.724L1539.41 501.888C1530.68 456.663 1472.37 442.085 1444.24 478.554C1376.93 565.798 1346.04 682.48 1369.06 801.778C1410.68 1017.4 1607.44 1133.28 1814.84 1093.26C2022.24 1053.23 2161.75 872.449 2120.13 656.825C2097.11 537.526 2025.01 440.72 1930.07 384.789C1890.39 361.41 1841.7 396.637 1850.42 441.863Z" fill="url(#paint45_linear_690_184)"/>
<path d="M1822.17 447.317L1880.03 747.153C1884.15 768.502 1878.13 790.553 1863.73 806.843L1789.92 890.352C1768.85 914.189 1734.37 920.843 1705.95 906.558L1606.36 856.515C1586.93 846.753 1573.14 828.525 1569.02 807.178L1511.15 507.341C1502.42 462.115 1444.12 447.538 1415.98 484.005C1348.67 571.25 1317.78 687.931 1340.8 807.231C1382.42 1022.86 1579.18 1138.74 1786.58 1098.71C1993.98 1058.68 2133.49 877.903 2091.88 662.276C2068.85 542.977 1996.76 446.172 1901.82 390.242C1862.13 366.863 1813.44 402.091 1822.17 447.317Z" fill="url(#paint46_linear_690_184)"/>
<path d="M2212.65 2504L1850.84 984.812L1695.99 1014.7L1925.5 2559.41C1926.01 2562.86 1926.6 2566.3 1927.26 2569.72L1937.23 2621.39C1954.35 2710.06 2016.69 2772.59 2076.48 2761.05L2147.55 2747.33C2207.34 2735.8 2241.93 2654.56 2224.82 2565.89L2214.85 2514.21C2214.19 2510.79 2213.45 2507.38 2212.65 2504ZM2093.6 2658.78C2053.93 2666.44 2011.33 2618.53 1998.45 2551.77C1985.56 2485.01 2007.28 2424.68 2046.94 2417.02C2086.61 2409.37 2129.21 2457.28 2142.1 2524.04C2154.98 2590.8 2133.27 2651.13 2093.6 2658.78Z" fill="url(#paint47_linear_690_184)"/>
<path d="M1726.89 1312.41C1725.24 1302.72 1728.07 1292.89 1734.49 1285.46C1746.95 1271.05 1768.46 1251.32 1784.06 1264.62C1807.3 1284.43 1781.84 1352.18 1781.84 1352.18L1756.07 1391.53L1755.71 1416.64C1741.77 1400.32 1733.44 1360.17 1726.89 1312.41Z" fill="url(#paint48_linear_690_184)"/>
<path d="M2320.87 2772.57C2320.87 2771.49 2320.96 2770.4 2321.26 2769.31C2338.73 2705.19 2420.15 2666.58 2420.15 2666.58L2452.06 2669.69C2469.37 2726.83 2466.35 2761.61 2463.11 2777.07C2463.02 2777.5 2462.88 2777.91 2462.75 2778.33C2436.34 2780.19 2382.04 2780.7 2320.87 2772.57Z" fill="url(#paint49_linear_690_184)"/>
<path d="M2462.75 2778.33C2461.23 2783.48 2457.33 2787.45 2452.42 2788.38C2414.76 2795.56 2355.27 2788.09 2330.3 2784.34C2324.79 2783.52 2320.85 2778.33 2320.87 2772.57C2382.04 2780.7 2436.34 2780.19 2462.75 2778.33Z" fill="url(#paint50_linear_690_184)"/>
<path d="M2465.82 2622.32L2451.05 2687.24C2449.97 2692 2446.23 2695.5 2441.78 2695.84C2436.33 2696.24 2428.58 2696.4 2420.81 2695.1C2413.85 2693.95 2409.12 2686.76 2410.5 2679.17L2421 2621.48L2465.82 2622.32Z" fill="url(#paint51_linear_690_184)"/>
<path d="M2182.39 2772.38C2217.71 2772.06 2236.05 2768.25 2245.56 2764.57C2245.52 2768.08 2245.43 2771.65 2245.25 2775.35C2245.05 2779.3 2242.06 2782.4 2238.46 2782.31L2044.66 2777.4C2038.48 2777.24 2035 2770 2037.78 2764.38C2063.16 2766.96 2127.8 2772.88 2182.39 2772.38Z" fill="url(#paint52_linear_690_184)"/>
<path d="M2037.79 2764.38C2038.03 2763.89 2038.24 2763.39 2038.58 2762.93C2056.15 2739.34 2100.65 2692.53 2187.18 2673.5L2228.54 2672.98C2228.54 2672.98 2246.34 2705.31 2245.56 2764.57C2236.05 2768.25 2217.71 2772.06 2182.39 2772.38C2127.8 2772.88 2063.16 2766.96 2037.79 2764.38Z" fill="url(#paint53_linear_690_184)"/>
<path d="M2237.38 2610.49C2236.87 2613.56 2230.32 2660.28 2227.78 2678.39C2227.18 2682.69 2223.99 2685.97 2220.04 2686.37C2212.99 2687.08 2201.59 2687.63 2191.66 2685.4C2186.31 2684.19 2182.52 2678.96 2182.63 2672.95L2184.02 2599.46L2237.38 2610.49Z" fill="url(#paint54_linear_690_184)"/>
<path d="M2290.43 1730.75C2290.43 1730.75 2175.55 2207.67 2168.35 2684.41C2168.22 2693.1 2234.7 2700.77 2236.22 2692.76C2251.75 2611.06 2354.09 2078.91 2401.2 2004.81C2401.2 2004.81 2400.14 2473.81 2386.5 2686.99C2386.16 2692.29 2446.46 2709.66 2459.05 2696.13C2459.05 2696.13 2544.02 2177.07 2547.51 1851.34C2547.68 1834.56 2517.41 1730.76 2517.41 1730.76H2290.43V1730.75Z" fill="url(#paint55_linear_690_184)"/>
<path d="M2205.44 1223.43C2212.55 1214.32 2203.59 1241.93 2205.44 1223.43Z" fill="url(#paint56_linear_690_184)"/>
<path d="M2205.45 1223.43C2205.62 1221.71 2205.88 1219.6 2206.26 1217.01C2331.94 1129.88 2517.79 1178.69 2589.84 1189.15C2613.47 1192.58 2634.9 1204.67 2650.17 1223.02C2686.87 1267.16 2749.88 1357.57 2757.34 1465.28C2716.62 1493.52 2670.2 1511.26 2620.46 1519.92C2616.31 1496.67 2608.66 1471.73 2596.61 1445.06C2595.23 1451.22 2593.55 1457.32 2591.53 1463.32C2537.39 1624.18 2509.16 1716.04 2508.69 1747.07C2508.62 1751.29 2260.71 1741.02 2304.62 1739.73C2322.96 1739.2 2219.14 1372.97 2164.9 1307.97C2161.68 1304.11 2212.55 1214.32 2205.45 1223.43Z" fill="url(#paint57_linear_690_184)"/>
<path d="M2476.1 1056.9L2486.56 1189.52C2486.56 1189.52 2411.67 1210.54 2358.23 1171.3L2398.57 1051.71L2476.1 1056.9Z" fill="url(#paint58_linear_690_184)"/>
<path d="M2392.54 904.392C2390.72 906.046 2314.13 1049.67 2314.13 1049.67L2397.07 1091.66L2489.88 966.314C2489.88 966.314 2423.08 876.713 2392.54 904.392Z" fill="url(#paint59_linear_690_184)"/>
<path d="M2420.43 935.139C2439.03 937.867 2448.87 958.415 2452.79 969.133C2454.2 973.024 2453.76 977.329 2451.56 980.84L2408.5 1049.64C2407.84 1050.68 2407.07 1051.62 2406.16 1052.45C2401.1 1056.98 2383.84 1070.11 2371.04 1051.55C2360.13 1035.72 2349.89 1021.33 2338.74 1015.26C2332.23 1011.72 2324.08 1014.3 2320.62 1020.85C2313.48 1034.35 2299.63 1061.89 2290.77 1088.08C2288.54 1094.65 2291.82 1101.8 2298.19 1104.53C2315.01 1111.71 2348.27 1124.76 2377.92 1129.43C2382.79 1130.19 2387.66 1128.22 2390.64 1124.3C2403.76 1107.02 2440.73 1058.74 2453.27 1046.72C2464.91 1035.55 2485.92 1040.24 2495.38 1043.15C2498.96 1044.26 2502.81 1043.83 2506.07 1041.95C2515.82 1036.33 2532.92 1022.18 2517.99 997.402C2514.28 991.241 2516.38 983.167 2522.47 979.328C2533.37 972.449 2545.3 959.375 2534.57 937.635C2521.03 910.178 2482.63 912.765 2461.08 892.538C2450.46 882.568 2440.02 871.472 2426.22 866.797C2423.26 865.794 2420.16 865.106 2417.03 865.169C2403.48 865.443 2382.95 887.785 2382.03 901.28C2380.71 920.549 2404.23 932.764 2420.43 935.139Z" fill="url(#paint60_linear_690_184)"/>
<path d="M2437.1 1071.98C2437.1 1071.98 2454.05 1025.3 2474.57 1027.41C2495.1 1029.52 2510.89 1050.3 2484.98 1072.84C2452.75 1100.88 2437.1 1071.98 2437.1 1071.98Z" fill="url(#paint61_linear_690_184)"/>
<path d="M2603.62 1433.08C2632.12 1359.44 2623.98 1269.71 2623.89 1268.82L2616.41 1269.53C2616.49 1270.41 2624.45 1358.41 2596.61 1430.37L2603.62 1433.08Z" fill="url(#paint62_linear_690_184)"/>
<path d="M2405.05 1995.23C2406.72 1995.26 2408.27 1994.17 2408.74 1992.48C2417.6 1960.75 2480.16 1926.89 2480.79 1926.55C2482.62 1925.57 2483.31 1923.29 2482.33 1921.46C2481.35 1919.63 2479.08 1918.94 2477.24 1919.92C2474.55 1921.37 2411.22 1955.65 2401.5 1990.46C2400.94 1992.46 2402.11 1994.53 2404.11 1995.09C2404.42 1995.18 2404.74 1995.22 2405.05 1995.23Z" fill="url(#paint63_linear_690_184)"/>
<path d="M2583.44 1491.9L2490.94 1352.55C2490.28 1351.55 2489.16 1350.95 2487.97 1350.95H2318.62C2315.84 1350.95 2313.27 1352.42 2311.85 1354.81L2231.36 1491.02C2229.97 1493.38 2229.47 1496.17 2229.96 1498.87C2261.83 1595.62 2292.65 1690.83 2290.43 1737.16C2348.15 1782.25 2449.7 1772.83 2519.03 1752.08C2522.6 1691.64 2552.34 1596.49 2584.64 1497.95C2585.05 1495.86 2584.62 1493.68 2583.44 1491.9Z" fill="url(#paint64_linear_690_184)"/>
<path d="M2552.05 1184.23L2489.88 1362.88H2452.47L2507.75 1176.85C2508.3 1175.02 2510.15 1173.91 2512.02 1174.3L2550.97 1182.32C2551.83 1182.5 2552.34 1183.4 2552.05 1184.23Z" fill="url(#paint65_linear_690_184)"/>
<path d="M2339.12 1171.67L2354.38 1357.94L2319.85 1362.18L2290.46 1176.46C2290.25 1175.12 2291.22 1173.88 2292.57 1173.75L2336.79 1169.71C2337.97 1169.6 2339.02 1170.48 2339.12 1171.67Z" fill="url(#paint66_linear_690_184)"/>
<path d="M2345.17 913.591C2418.99 774.159 2610.31 900.828 2521.27 1018.29C2455.07 974.268 2380.26 908.832 2345.17 913.591Z" fill="url(#paint67_linear_690_184)"/>
<path d="M2349.99 898.562C2200.76 890.966 2323.6 946.297 2459.51 975.829C2425.68 939.916 2391.86 913.15 2349.99 898.562Z" fill="url(#paint68_linear_690_184)"/>
<defs>
<linearGradient id="paint0_linear_690_184" x1="3152.33" y1="3604.4" x2="682.559" y2="537.094" gradientUnits="userSpaceOnUse">
<stop stop-color="#B37CFF"/>
<stop offset="1" stop-color="#F895E7"/>
</linearGradient>
<linearGradient id="paint1_linear_690_184" x1="1439.21" y1="72.2672" x2="-101.968" y2="2607.09" gradientUnits="userSpaceOnUse">
<stop stop-color="#CB236D"/>
<stop offset="1" stop-color="#4C246D"/>
</linearGradient>
<linearGradient id="paint2_linear_690_184" x1="-560.813" y1="2874.82" x2="899.249" y2="694.869" gradientUnits="userSpaceOnUse">
<stop stop-color="#B37CFF"/>
<stop offset="1" stop-color="#F895E7"/>
</linearGradient>
<linearGradient id="paint3_linear_690_184" x1="388.591" y1="312.021" x2="3058.44" y2="2133.26" gradientUnits="userSpaceOnUse">
<stop stop-color="#53D8FF"/>
<stop offset="1" stop-color="#3840F7"/>
</linearGradient>
<linearGradient id="paint4_linear_690_184" x1="247.996" y1="1084.96" x2="3480.15" y2="1623.65" gradientUnits="userSpaceOnUse">
<stop stop-color="#53D8FF"/>
<stop offset="1" stop-color="#3840F7"/>
</linearGradient>
<linearGradient id="paint5_linear_690_184" x1="1240.14" y1="-255.094" x2="4003.63" y2="5128.59" gradientUnits="userSpaceOnUse">
<stop stop-color="#53D8FF"/>
<stop offset="1" stop-color="#3840F7"/>
</linearGradient>
<linearGradient id="paint6_linear_690_184" x1="1340.77" y1="1266.95" x2="3565.86" y2="5601.75" gradientUnits="userSpaceOnUse">
<stop stop-color="#53D8FF"/>
<stop offset="1" stop-color="#3840F7"/>
</linearGradient>
<linearGradient id="paint7_linear_690_184" x1="439.731" y1="-298.728" x2="1999.18" y2="1795.76" gradientUnits="userSpaceOnUse">
<stop stop-color="#53D8FF"/>
<stop offset="1" stop-color="#3840F7"/>
</linearGradient>
<linearGradient id="paint8_linear_690_184" x1="701.504" y1="1139.94" x2="1753.18" y2="2552.44" gradientUnits="userSpaceOnUse">
<stop stop-color="#53D8FF"/>
<stop offset="1" stop-color="#3840F7"/>
</linearGradient>
<linearGradient id="paint9_linear_690_184" x1="38.3846" y1="3277.98" x2="1130.95" y2="1031.48" gradientUnits="userSpaceOnUse">
<stop stop-color="#A737D5"/>
<stop offset="1" stop-color="#EF497A"/>
</linearGradient>
<linearGradient id="paint10_linear_690_184" x1="651.736" y1="1244.12" x2="835.875" y2="3760.69" gradientUnits="userSpaceOnUse">
<stop stop-color="#A737D5"/>
<stop offset="1" stop-color="#EF497A"/>
</linearGradient>
<linearGradient id="paint11_linear_690_184" x1="529.035" y1="477.837" x2="-115.42" y2="2958.98" gradientUnits="userSpaceOnUse">
<stop stop-color="#233894"/>
<stop offset="0.9964" stop-color="#DD397A"/>
</linearGradient>
<linearGradient id="paint12_linear_690_184" x1="1060.32" y1="869.261" x2="1018.89" y2="2181.19" gradientUnits="userSpaceOnUse">
<stop stop-color="#233894"/>
<stop offset="0.9964" stop-color="#DD397A"/>
</linearGradient>
<linearGradient id="paint13_linear_690_184" x1="592.519" y1="733.317" x2="509.66" y2="2072.86" gradientUnits="userSpaceOnUse">
<stop stop-color="#233894"/>
<stop offset="0.9964" stop-color="#DD397A"/>
</linearGradient>
<linearGradient id="paint14_linear_690_184" x1="507.04" y1="1453.8" x2="601.796" y2="1453.8" gradientUnits="userSpaceOnUse">
<stop stop-color="#B37CFF"/>
<stop offset="1" stop-color="#F895E7"/>
</linearGradient>
<linearGradient id="paint15_linear_690_184" x1="715.242" y1="923.555" x2="765.878" y2="2106.59" gradientUnits="userSpaceOnUse">
<stop stop-color="#233894"/>
<stop offset="0.9964" stop-color="#DD397A"/>
</linearGradient>
<linearGradient id="paint16_linear_690_184" x1="697.746" y1="1453.8" x2="792.502" y2="1453.8" gradientUnits="userSpaceOnUse">
<stop stop-color="#B37CFF"/>
<stop offset="1" stop-color="#F895E7"/>
</linearGradient>
<linearGradient id="paint17_linear_690_184" x1="809.812" y1="2050.87" x2="938.478" y2="1228.72" gradientUnits="userSpaceOnUse">
<stop stop-color="#A737D5"/>
<stop offset="1" stop-color="#EF497A"/>
</linearGradient>
<linearGradient id="paint18_linear_690_184" x1="893.932" y1="2064.93" x2="1022.6" y2="1242.77" gradientUnits="userSpaceOnUse">
<stop stop-color="#A737D5"/>
<stop offset="1" stop-color="#EF497A"/>
</linearGradient>
<linearGradient id="paint19_linear_690_184" x1="980.65" y1="2079.41" x2="1109.32" y2="1257.26" gradientUnits="userSpaceOnUse">
<stop stop-color="#A737D5"/>
<stop offset="1" stop-color="#EF497A"/>
</linearGradient>
<linearGradient id="paint20_linear_690_184" x1="1064.77" y1="2093.47" x2="1193.44" y2="1271.32" gradientUnits="userSpaceOnUse">
<stop stop-color="#A737D5"/>
<stop offset="1" stop-color="#EF497A"/>
</linearGradient>
<linearGradient id="paint21_linear_690_184" x1="391.499" y1="3002.87" x2="768.966" y2="1806.02" gradientUnits="userSpaceOnUse">
<stop stop-color="#B37CFF"/>
<stop offset="1" stop-color="#F895E7"/>
</linearGradient>
<linearGradient id="paint22_linear_690_184" x1="1049.45" y1="1872.97" x2="472.643" y2="2204.25" gradientUnits="userSpaceOnUse">
<stop stop-color="#2B3582"/>
<stop offset="1" stop-color="#150E42"/>
</linearGradient>
<linearGradient id="paint23_linear_690_184" x1="1293.07" y1="1146.84" x2="50.1893" y2="3057.2" gradientUnits="userSpaceOnUse">
<stop stop-color="#233894"/>
<stop offset="0.9964" stop-color="#DD397A"/>
</linearGradient>
<linearGradient id="paint24_linear_690_184" x1="1062.89" y1="1449.58" x2="252.719" y2="3300.08" gradientUnits="userSpaceOnUse">
<stop stop-color="#233894"/>
<stop offset="0.9964" stop-color="#DD397A"/>
</linearGradient>
<linearGradient id="paint25_linear_690_184" x1="764.896" y1="2600.63" x2="2794.21" y2="1644.52" gradientUnits="userSpaceOnUse">
<stop stop-color="#2B3582"/>
<stop offset="1" stop-color="#150E42"/>
</linearGradient>
<linearGradient id="paint26_linear_690_184" x1="1324.25" y1="1813.17" x2="614.565" y2="3164.95" gradientUnits="userSpaceOnUse">
<stop stop-color="#FDF53F"/>
<stop offset="0.6645" stop-color="#E57A58"/>
<stop offset="1" stop-color="#D93C65"/>
</linearGradient>
<linearGradient id="paint27_linear_690_184" x1="1092.42" y1="1552.69" x2="1837.03" y2="2956.53" gradientUnits="userSpaceOnUse">
<stop stop-color="#2B3582"/>
<stop offset="1" stop-color="#150E42"/>
</linearGradient>
<linearGradient id="paint28_linear_690_184" x1="1138.31" y1="1991.5" x2="1483.36" y2="2642.03" gradientUnits="userSpaceOnUse">
<stop stop-color="#CB236D"/>
<stop offset="1" stop-color="#4C246D"/>
</linearGradient>
<linearGradient id="paint29_linear_690_184" x1="1738.87" y1="2393.77" x2="1032.07" y2="1629.83" gradientUnits="userSpaceOnUse">
<stop stop-color="#233894"/>
<stop offset="0.9964" stop-color="#DD397A"/>
</linearGradient>
<linearGradient id="paint30_linear_690_184" x1="1996.41" y1="3198.58" x2="1386.96" y2="2493.36" gradientUnits="userSpaceOnUse">
<stop stop-color="#FDF53F"/>
<stop offset="0.6645" stop-color="#E57A58"/>
<stop offset="0.668" stop-color="#E47759"/>
<stop offset="0.6972" stop-color="#E0615D"/>
<stop offset="0.7315" stop-color="#DD5061"/>
<stop offset="0.7741" stop-color="#DB4563"/>
<stop offset="0.8339" stop-color="#D93E65"/>
<stop offset="1" stop-color="#D93C65"/>
</linearGradient>
<linearGradient id="paint31_linear_690_184" x1="1886.17" y1="3069.78" x2="1400.89" y2="2508.23" gradientUnits="userSpaceOnUse">
<stop stop-color="#233894"/>
<stop offset="0.3147" stop-color="#5E388C"/>
<stop offset="0.9964" stop-color="#DD397A"/>
</linearGradient>
<linearGradient id="paint32_linear_690_184" x1="1401.62" y1="2038.81" x2="1722.8" y2="2826.29" gradientUnits="userSpaceOnUse">
<stop stop-color="#233894"/>
<stop offset="0.9964" stop-color="#DD397A"/>
</linearGradient>
<linearGradient id="paint33_linear_690_184" x1="1458.02" y1="2015.81" x2="1779.2" y2="2803.29" gradientUnits="userSpaceOnUse">
<stop stop-color="#233894"/>
<stop offset="0.9964" stop-color="#DD397A"/>
</linearGradient>
<linearGradient id="paint34_linear_690_184" x1="1376.06" y1="2049.23" x2="1697.25" y2="2836.72" gradientUnits="userSpaceOnUse">
<stop stop-color="#233894"/>
<stop offset="0.9964" stop-color="#DD397A"/>
</linearGradient>
<linearGradient id="paint35_linear_690_184" x1="1432.46" y1="2026.23" x2="1753.64" y2="2813.72" gradientUnits="userSpaceOnUse">
<stop stop-color="#233894"/>
<stop offset="0.9964" stop-color="#DD397A"/>
</linearGradient>
<linearGradient id="paint36_linear_690_184" x1="1349.85" y1="2059.92" x2="1671.04" y2="2847.4" gradientUnits="userSpaceOnUse">
<stop stop-color="#233894"/>
<stop offset="0.9964" stop-color="#DD397A"/>
</linearGradient>
<linearGradient id="paint37_linear_690_184" x1="1406.25" y1="2036.92" x2="1727.44" y2="2824.4" gradientUnits="userSpaceOnUse">
<stop stop-color="#233894"/>
<stop offset="0.9964" stop-color="#DD397A"/>
</linearGradient>
<linearGradient id="paint38_linear_690_184" x1="1326.49" y1="2069.45" x2="1647.67" y2="2856.94" gradientUnits="userSpaceOnUse">
<stop stop-color="#233894"/>
<stop offset="0.9964" stop-color="#DD397A"/>
</linearGradient>
<linearGradient id="paint39_linear_690_184" x1="1382.88" y1="2046.45" x2="1704.07" y2="2833.94" gradientUnits="userSpaceOnUse">
<stop stop-color="#233894"/>
<stop offset="0.9964" stop-color="#DD397A"/>
</linearGradient>
<linearGradient id="paint40_linear_690_184" x1="2564.4" y1="1062.57" x2="2639.35" y2="1796.42" gradientUnits="userSpaceOnUse">
<stop stop-color="#F9B776"/>
<stop offset="1" stop-color="#F47960"/>
</linearGradient>
<linearGradient id="paint41_linear_690_184" x1="1989.53" y1="1352.56" x2="2070.82" y2="2148.56" gradientUnits="userSpaceOnUse">
<stop stop-color="#F9B776"/>
<stop offset="1" stop-color="#F47960"/>
</linearGradient>
<linearGradient id="paint42_linear_690_184" x1="2208.68" y1="1234.3" x2="2357.81" y2="2694.49" gradientUnits="userSpaceOnUse">
<stop stop-color="#FDF53F"/>
<stop offset="0.6645" stop-color="#E57A58"/>
<stop offset="1" stop-color="#D93C65"/>
</linearGradient>
<linearGradient id="paint43_linear_690_184" x1="1595.25" y1="999.281" x2="2213.36" y2="1821.68" gradientUnits="userSpaceOnUse">
<stop stop-color="#F9B776"/>
<stop offset="1" stop-color="#F47960"/>
</linearGradient>
<linearGradient id="paint44_linear_690_184" x1="828.908" y1="1891.7" x2="2123.98" y2="1866.45" gradientUnits="userSpaceOnUse">
<stop stop-color="#FDF53F"/>
<stop offset="0.6645" stop-color="#E57A58"/>
<stop offset="1" stop-color="#D93C65"/>
</linearGradient>
<linearGradient id="paint45_linear_690_184" x1="2643.01" y1="599.715" x2="1618.5" y2="776.479" gradientUnits="userSpaceOnUse">
<stop stop-color="#FDF53F"/>
<stop offset="0.6645" stop-color="#E57A58"/>
<stop offset="1" stop-color="#D93C65"/>
</linearGradient>
<linearGradient id="paint46_linear_690_184" x1="1816.8" y1="974.636" x2="3255.88" y2="4415.44" gradientUnits="userSpaceOnUse">
<stop stop-color="#FDF53F"/>
<stop offset="0.6645" stop-color="#E57A58"/>
<stop offset="1" stop-color="#D93C65"/>
</linearGradient>
<linearGradient id="paint47_linear_690_184" x1="1585.29" y1="1071.46" x2="3024.37" y2="4512.26" gradientUnits="userSpaceOnUse">
<stop stop-color="#FDF53F"/>
<stop offset="0.6645" stop-color="#E57A58"/>
<stop offset="1" stop-color="#D93C65"/>
</linearGradient>
<linearGradient id="paint48_linear_690_184" x1="2142.17" y1="942.814" x2="1609.68" y2="1490.03" gradientUnits="userSpaceOnUse">
<stop stop-color="#F9B776"/>
<stop offset="1" stop-color="#F47960"/>
</linearGradient>
<linearGradient id="paint49_linear_690_184" x1="2405.18" y1="2335.8" x2="2390.32" y2="2866.59" gradientUnits="userSpaceOnUse">
<stop stop-color="#CB236D"/>
<stop offset="1" stop-color="#4C246D"/>
</linearGradient>
<linearGradient id="paint50_linear_690_184" x1="2108.12" y1="2546.86" x2="2625.27" y2="2968.97" gradientUnits="userSpaceOnUse">
<stop stop-color="#53D8FF"/>
<stop offset="1" stop-color="#3840F7"/>
</linearGradient>
<linearGradient id="paint51_linear_690_184" x1="2429.11" y1="2558.88" x2="2452.12" y2="2799.95" gradientUnits="userSpaceOnUse">
<stop stop-color="#F9B776"/>
<stop offset="1" stop-color="#F47960"/>
</linearGradient>
<linearGradient id="paint52_linear_690_184" x1="2012.62" y1="2663.87" x2="2529.77" y2="3085.97" gradientUnits="userSpaceOnUse">
<stop stop-color="#53D8FF"/>
<stop offset="1" stop-color="#3840F7"/>
</linearGradient>
<linearGradient id="paint53_linear_690_184" x1="2153.87" y1="2328.76" x2="2139.01" y2="2859.55" gradientUnits="userSpaceOnUse">
<stop stop-color="#CB236D"/>
<stop offset="1" stop-color="#4C246D"/>
</linearGradient>
<linearGradient id="paint54_linear_690_184" x1="2204.1" y1="2580.37" x2="2227.12" y2="2821.44" gradientUnits="userSpaceOnUse">
<stop stop-color="#F9B776"/>
<stop offset="1" stop-color="#F47960"/>
</linearGradient>
<linearGradient id="paint55_linear_690_184" x1="2007.39" y1="1000.48" x2="2527.64" y2="2872.04" gradientUnits="userSpaceOnUse">
<stop stop-color="#2B3582"/>
<stop offset="1" stop-color="#150E42"/>
</linearGradient>
<linearGradient id="paint56_linear_690_184" x1="2206.39" y1="1222.35" x2="2208.18" y2="1239.84" gradientUnits="userSpaceOnUse">
<stop stop-color="#FDF53F"/>
<stop offset="0.6645" stop-color="#E57A58"/>
<stop offset="1" stop-color="#D93C65"/>
</linearGradient>
<linearGradient id="paint57_linear_690_184" x1="2443.02" y1="1209.03" x2="2571.99" y2="2471.86" gradientUnits="userSpaceOnUse">
<stop stop-color="#FDF53F"/>
<stop offset="0.6645" stop-color="#E57A58"/>
<stop offset="1" stop-color="#D93C65"/>
</linearGradient>
<linearGradient id="paint58_linear_690_184" x1="2397.25" y1="1019.98" x2="2493.89" y2="1476.75" gradientUnits="userSpaceOnUse">
<stop stop-color="#F9B776"/>
<stop offset="1" stop-color="#F47960"/>
</linearGradient>
<linearGradient id="paint59_linear_690_184" x1="2442.46" y1="1073.16" x2="2361.51" y2="942.751" gradientUnits="userSpaceOnUse">
<stop stop-color="#F9B776"/>
<stop offset="1" stop-color="#F47960"/>
</linearGradient>
<linearGradient id="paint60_linear_690_184" x1="2380.53" y1="561.209" x2="2427.42" y2="1199.73" gradientUnits="userSpaceOnUse">
<stop stop-color="#CB236D"/>
<stop offset="1" stop-color="#4C246D"/>
</linearGradient>
<linearGradient id="paint61_linear_690_184" x1="2455.06" y1="1266.29" x2="2468.34" y2="1052.12" gradientUnits="userSpaceOnUse">
<stop stop-color="#F9B776"/>
<stop offset="1" stop-color="#F47960"/>
</linearGradient>
<linearGradient id="paint62_linear_690_184" x1="2496.71" y1="1131.27" x2="2707.01" y2="1535.64" gradientUnits="userSpaceOnUse">
<stop stop-color="#FDF53F"/>
<stop offset="0.6645" stop-color="#E57A58"/>
<stop offset="1" stop-color="#D93C65"/>
</linearGradient>
<linearGradient id="paint63_linear_690_184" x1="1704.17" y1="1018.94" x2="2367.94" y2="1863.08" gradientUnits="userSpaceOnUse">
<stop stop-color="#2B3582"/>
<stop offset="1" stop-color="#150E42"/>
</linearGradient>
<linearGradient id="paint64_linear_690_184" x1="2271.26" y1="1058.8" x2="2826.81" y2="2920.24" gradientUnits="userSpaceOnUse">
<stop stop-color="#2B3582"/>
<stop offset="1" stop-color="#150E42"/>
</linearGradient>
<linearGradient id="paint65_linear_690_184" x1="2424.65" y1="1013.02" x2="2980.19" y2="2874.46" gradientUnits="userSpaceOnUse">
<stop stop-color="#2B3582"/>
<stop offset="1" stop-color="#150E42"/>
</linearGradient>
<linearGradient id="paint66_linear_690_184" x1="2267.71" y1="1059.86" x2="2823.25" y2="2921.29" gradientUnits="userSpaceOnUse">
<stop stop-color="#2B3582"/>
<stop offset="1" stop-color="#150E42"/>
</linearGradient>
<linearGradient id="paint67_linear_690_184" x1="2567.33" y1="814.249" x2="1994.94" y2="1447.53" gradientUnits="userSpaceOnUse">
<stop stop-color="#2B3582"/>
<stop offset="1" stop-color="#150E42"/>
</linearGradient>
<linearGradient id="paint68_linear_690_184" x1="2280.41" y1="915.72" x2="2464.41" y2="947.499" gradientUnits="userSpaceOnUse">
<stop stop-color="#2B3582"/>
<stop offset="1" stop-color="#150E42"/>
</linearGradient>
</defs>
</svg>
