<svg width="554" height="25" viewBox="0 0 554 25" fill="none" xmlns="http://www.w3.org/2000/svg">
<g clip-path="url(#clip0_157_2)">
<path d="M551.769 14.4338C547.456 13.2778 543.928 11.5678 518.381 9.38581C509.641 8.65981 500.921 7.87381 492.177 7.17781C426.889 2.76581 421.208 2.92981 373.04 1.06581C347.239 0.277814 321.371 0.219814 295.535 -0.000185725C277.317 -0.0221857 259.095 0.311814 240.881 0.499814C142.798 2.70981 176.929 1.53581 108.589 4.62981C79.1424 6.66381 49.7664 9.00181 20.3434 11.1378C15.956 11.6198 11.5021 11.9718 7.17325 12.5818C2.38338 13.2658 2.20366 13.2378 1.51995 13.5578C-1.60167 14.7138 0.355689 17.5858 4.92678 17.0578C18.2064 15.1638 17.5383 15.3438 74.4932 11.1258C76.1576 12.0218 77.3414 11.8018 81.6898 11.7478C86.843 11.6838 91.9962 11.6418 97.1455 11.5238C118.051 10.7618 138.903 9.59981 159.797 8.73381C166.989 8.47381 174.174 8.10981 181.367 7.79382C190.435 7.56181 199.507 7.33581 208.578 7.11381C255.571 6.68181 241.967 6.48781 300.254 6.80981C309.404 7.00781 300.867 6.77381 349.372 8.18981C387.116 9.96581 427.869 13.7778 464.79 17.4138C480.757 18.9958 510.372 22.0538 525.859 24.7698C527.347 24.9798 529.094 24.7158 529.965 24.0538C531.203 23.3098 531.004 22.1138 529.66 21.4278C528.39 20.8038 526.48 20.7398 524.901 20.4118C517.912 19.2418 507.637 17.9938 500.026 17.0998L510.247 17.7558C519.24 18.3818 528.328 18.5398 537.337 19.1058C541.557 19.2978 547.272 19.4678 550.753 18.2278C551.636 17.9198 552.652 17.6778 553.18 17.1738C554.258 16.2558 553.621 14.9618 551.777 14.4378L551.769 14.4338ZM361.546 4.75381C376.251 5.03381 421.708 6.92381 438.371 7.74181C456.323 8.84381 474.272 9.94781 492.193 11.1798C501.667 12.1338 521.155 13.4218 531.934 14.8078C527.296 14.5778 522.647 14.4138 518.006 14.1958C465.864 11.0158 413.769 7.59181 361.546 4.75381Z" fill="url(#paint0_linear_157_2)"/>
</g>
<defs>
<linearGradient id="paint0_linear_157_2" x1="0" y1="12.4196" x2="553.705" y2="12.4196" gradientUnits="userSpaceOnUse">
<stop stop-color="#FFBC01"/>
<stop offset="1" stop-color="#FFA800"/>
</linearGradient>
<clipPath id="clip0_157_2">
<rect width="554" height="25" fill="white"/>
</clipPath>
</defs>
</svg>
