<svg width="84" height="120" viewBox="0 0 84 120" fill="none" xmlns="http://www.w3.org/2000/svg">
<path d="M83.7997 0L70.7997 20.9L57.6997 42.2H26.1997L26.2997 42L38.7997 21.9L52.3997 0H83.7997Z" fill="url(#paint0_linear_162_1419)"/>
<path opacity="0.2" d="M80.1997 0L55.9997 39H31.5997L55.9997 0H52.4997L38.7997 21.9L26.1997 42H57.5997L70.7997 20.9L83.8997 0H80.1997Z" fill="#424242"/>
<path d="M59.7998 30H23.7998C19.3998 30 15.7998 33.6 15.7998 38V54C15.7998 56.2 17.5998 58 19.7998 58C21.9998 58 24.7998 56.2 24.7998 54V44C24.7998 42.9 25.6998 42 26.7998 42H56.7998C57.8998 42 58.7998 42.9 58.7998 44V53.9C58.7998 55.9 61.0998 57.6 62.9998 57.9C63.2998 57.9 63.4998 58 63.7998 58C65.9998 58 67.7998 56.2 67.7998 54V38C67.7998 33.6 64.1998 30 59.7998 30Z" fill="#FF9800"/>
<path opacity="0.2" d="M59.7998 32C63.0998 32 65.7998 34.7 65.7998 38V54C65.7998 55.1 64.8998 56 63.7998 56C63.6998 56 63.4998 56 63.3998 56C62.1998 55.8 60.7998 54.7 60.7998 53.9V44C60.7998 41.8 58.9998 40 56.7998 40H26.7998C24.5998 40 22.7998 41.8 22.7998 44V54C22.7998 54.9 21.1998 56 19.7998 56C18.6998 56 17.7998 55.1 17.7998 54V38C17.7998 34.7 20.4998 32 23.7998 32H59.7998ZM59.7998 30H23.7998C19.3998 30 15.7998 33.6 15.7998 38V54C15.7998 56.2 17.5998 58 19.7998 58C21.9998 58 24.7998 56.2 24.7998 54V44C24.7998 42.9 25.6998 42 26.7998 42H56.7998C57.8998 42 58.7998 42.9 58.7998 44V53.9C58.7998 55.9 61.0998 57.6 62.9998 57.9C63.2998 57.9 63.4998 58 63.7998 58C65.9998 58 67.7998 56.2 67.7998 54V38C67.7998 33.6 64.1998 30 59.7998 30Z" fill="#424242"/>
<path d="M41.8999 120C62.8867 120 79.8999 102.987 79.8999 82C79.8999 61.0132 62.8867 44 41.8999 44C20.9131 44 3.8999 61.0132 3.8999 82C3.8999 102.987 20.9131 120 41.8999 120Z" fill="url(#paint1_radial_162_1419)"/>
<path d="M56.0996 91.2C56.0996 82.9 49.0996 81.3 49.0996 81.3C49.0996 81.3 55.3996 78.7 55.3996 71.9C55.3996 71.9 56.0996 60 41.1996 60C31.5996 60 27.0996 65.9 27.0996 71.5H35.4996C35.4996 71.5 35.4996 66.8 41.3996 66.8C47.1996 66.8 46.9996 72.3 46.9996 72.3C46.9996 72.3 47.2996 78.2 41.1996 78.2H36.0996V81.4V84.8H41.2996C47.5996 84.8 47.5996 90.7 47.5996 90.7C47.5996 90.7 48.2996 96.9 41.4996 96.9C35.0996 96.9 34.9996 91.7 34.9996 91.7H26.5996C26.5996 98 31.2996 103.8 41.2996 103.8C56.4996 103.7 56.0996 91.8 56.0996 91.2Z" fill="#D84315"/>
<path d="M57.6996 42.2H26.1996L0.0996094 0H31.5996L57.6996 42.2Z" fill="url(#paint2_linear_162_1419)"/>
<path opacity="0.2" d="M31.4 0H27.8L52.3 39H27.9L3.5 0H0L26.2 42H57.6L31.4 0Z" fill="#424242"/>
<path opacity="0.2" d="M41.7998 47C61.0998 47 76.7998 62.7 76.7998 82C76.7998 101.3 61.0998 117 41.7998 117C22.4998 117 6.7998 101.3 6.7998 82C6.7998 62.7 22.4998 47 41.7998 47ZM41.7998 44C20.7998 44 3.7998 61 3.7998 82C3.7998 103 20.7998 120 41.7998 120C62.7998 120 79.7998 103 79.7998 82C79.7998 61 62.7998 44 41.7998 44Z" fill="#424242"/>
<defs>
<linearGradient id="paint0_linear_162_1419" x1="71.0481" y1="-1.1253" x2="47.7458" y2="31.2467" gradientUnits="userSpaceOnUse">
<stop offset="0.1355" stop-color="#1E88E5"/>
<stop offset="0.938" stop-color="#1565C0"/>
</linearGradient>
<radialGradient id="paint1_radial_162_1419" cx="0" cy="0" r="1" gradientUnits="userSpaceOnUse" gradientTransform="translate(25.3532 63.0359) scale(73.814)">
<stop offset="0.2668" stop-color="#FFA726"/>
<stop offset="1" stop-color="#FB8C00"/>
</radialGradient>
<linearGradient id="paint2_linear_162_1419" x1="19.5816" y1="1.0733" x2="38.2792" y2="41.2593" gradientUnits="userSpaceOnUse">
<stop offset="0.1355" stop-color="#64B5F6"/>
<stop offset="0.9462" stop-color="#2196F3"/>
</linearGradient>
</defs>
</svg>
