<svg width="350" height="323" viewBox="0 0 350 323" fill="none" xmlns="http://www.w3.org/2000/svg">
<path d="M38.5277 222.636C37.588 224.999 36.6203 227.355 35.8496 229.777C24.9848 263.93 56.9896 293.897 87.1068 302.695C103.979 307.624 121.616 306.742 138.22 301.298C154.227 296.051 170.573 289.785 187.72 290.648C212.809 291.91 228.343 311.999 251.142 318.161C258.989 320.282 267.497 320.583 275.15 317.838C292.362 311.666 304.577 290.49 308.578 273.507C313.84 251.171 305.715 228.846 295.865 209.02C281.382 179.869 276.156 149.784 297.751 122.39C320.49 93.5442 332.725 54.8018 301.856 26.1582C278.997 4.94683 243.31 -0.328091 213.611 5.69819C207.134 7.01227 200.765 8.91273 194.693 11.5302C178.591 18.4705 165.522 30.8735 156.588 45.8498C146.376 62.9685 144.013 83.3992 133.746 100.411C116.862 128.386 83.1208 120.321 60.0444 138.199C48.9576 146.788 41.6316 159.959 39.7983 173.83C37.6269 190.266 44.9343 206.521 38.5277 222.636Z" fill="#C8EEFB"/>
<path d="M73.0394 8.75412C48.413 20.8284 32.669 50.2011 43.1749 77.8595C54.813 108.5 88.3678 102.402 107.093 82.5584C116.486 72.6036 125.624 60.1937 130.252 47.2089C133.467 38.1876 133.976 27.7488 129.404 19.3331C123.121 7.76591 108.756 2.717 95.5973 3.09318C87.6314 3.32151 79.9829 5.35053 73.0394 8.75412Z" fill="#C8EEFB"/>
<path d="M329.317 184.108C340.797 171.684 343.319 151.285 331.123 137.712C317.612 122.676 299.667 133.648 293.31 149.229C290.121 157.045 287.626 166.216 287.852 174.715C288.009 180.62 290.039 186.738 294.541 190.562C300.728 195.818 310.114 195.527 317.6 192.382C322.132 190.48 326.081 187.611 329.317 184.108Z" fill="#C8EEFB"/>
<path d="M32.3377 247.474L319.434 244.596L319.277 228.943C319.076 208.915 302.678 192.843 282.651 193.043C278.948 193.08 275.383 193.674 272.029 194.739C261.204 175.682 240.643 162.91 217.174 163.145C211.712 163.2 206.423 163.961 201.388 165.331C198.016 144.446 179.802 128.595 158.003 128.813C134.552 129.048 115.63 147.796 114.958 171.035C107.546 167.814 99.3598 166.049 90.7572 166.136C58.0026 166.464 31.7161 193.283 32.0445 226.037C32.0548 227.061 32.0914 228.079 32.1526 229.089L32.3377 247.474Z" fill="#FFC7CA"/>
<path d="M326.242 244.528L25.4531 247.543L25.4817 250.398L326.27 247.382L326.242 244.528Z" fill="#FFDFEE"/>
<path d="M63.5634 180.147C63.5634 180.147 47.6472 203.49 17.5393 192.908C17.5393 192.908 35.1793 168.105 63.5634 180.147Z" fill="#7DBF8D"/>
<path d="M17.9751 150.862L12.8004 155.544C17.6272 162.497 24.4212 169.572 33.833 174.562L39.532 169.231L39.3644 177.115C42.15 178.222 45.1325 179.149 48.3227 179.856L52.5815 176.802L51.8207 180.531C55.9971 181.209 60.5051 181.518 65.3718 181.374C65.3718 181.374 61.4175 167.272 50.7084 154.138L44.5199 155.872L47.778 150.763C44.7432 147.485 41.2533 144.356 37.2606 141.623L33.599 144.774L34.3155 139.738C25.7686 134.635 15.1347 131.393 2.02354 132.074C2.02354 132.074 4.0682 141.521 10.5817 152.146L17.9751 150.862Z" fill="#A0DAB0"/>
<path d="M2.02344 132.074C7.72117 135.612 13.2404 139.414 18.6871 143.31C21.4234 145.241 24.1007 147.252 26.7969 149.237C29.475 151.247 32.1294 153.287 34.7831 155.329C37.417 157.397 40.0399 159.478 42.6494 161.576C45.2322 163.708 47.8448 165.801 50.3826 167.988C55.5047 172.302 60.5179 176.748 65.3725 181.374C59.9334 177.449 54.6263 173.378 49.3104 169.319L41.3615 163.203L33.4379 157.057L25.5395 150.88L17.6631 144.671C12.4174 140.522 7.19056 136.347 2.02344 132.074Z" fill="#7DBF8D"/>
<path d="M66.89 177.263C66.89 177.263 42.5636 162.895 51.1687 132.164C51.1687 132.164 77.0646 148.158 66.89 177.263Z" fill="#7DBF8D"/>
<path d="M68.0907 178.838C68.0907 178.838 70.4052 206.995 40.3456 217.712C40.3456 217.712 38.4519 187.335 68.0907 178.838Z" fill="#A0DAB0"/>
<path d="M286.788 177.909C286.788 177.909 303.169 200.928 333.058 189.745C333.058 189.745 314.925 165.3 286.788 177.909Z" fill="#7DBF8D"/>
<path d="M331.779 147.716L337.047 152.293C332.36 159.341 325.71 166.551 316.4 171.729L310.594 166.513L310.92 174.393C308.157 175.555 305.194 176.542 302.018 177.312L297.699 174.345L298.535 178.057C294.373 178.819 289.872 179.219 285.003 179.172C285.003 179.172 288.674 164.994 299.118 151.647L305.339 153.257L301.98 148.214C304.948 144.876 308.375 141.678 312.312 138.865L316.036 141.943L315.218 136.921C323.661 131.648 334.229 128.194 347.35 128.612C347.35 128.612 345.495 138.098 339.196 148.851L331.779 147.716Z" fill="#A0DAB0"/>
<path d="M347.351 128.612C341.725 132.263 336.283 136.175 330.916 140.179C328.219 142.165 325.582 144.229 322.927 146.268C320.288 148.331 317.676 150.424 315.064 152.519C312.472 154.639 309.891 156.772 307.325 158.922C304.785 161.105 302.215 163.251 299.722 165.488C294.688 169.904 289.764 174.45 285.003 179.172C290.362 175.138 295.587 170.962 300.82 166.798L308.645 160.523L316.444 154.22L324.217 147.885L331.967 141.519C337.128 137.266 342.27 132.987 347.351 128.612Z" fill="#7DBF8D"/>
<path d="M283.404 175.092C283.404 175.092 307.437 160.239 298.218 129.687C298.218 129.687 272.648 146.197 283.404 175.092Z" fill="#7DBF8D"/>
<path d="M282.235 176.691C282.235 176.691 280.486 204.889 310.754 215.001C310.754 215.001 312.038 184.592 282.235 176.691Z" fill="#A0DAB0"/>
<path d="M271.949 200.029L78.8433 201.965C68.4784 202.069 59.9919 193.751 59.8879 183.386L58.4865 43.6083C58.3826 33.2434 66.7007 24.7568 77.0656 24.6529L270.171 22.7168C280.536 22.6129 289.023 30.931 289.126 41.2958L290.528 181.073C290.632 191.438 282.314 199.925 271.949 200.029Z" fill="#2B7AF0"/>
<path d="M78.799 197.568C70.8755 197.647 64.3647 191.265 64.2853 183.342L62.8838 43.5643C62.8044 35.6408 69.186 29.1299 77.1094 29.0505L270.214 27.1144C278.138 27.035 284.649 33.4165 284.728 41.34L286.129 181.118C286.209 189.041 279.827 195.552 271.904 195.631L78.799 197.568Z" fill="#F7F7F7"/>
<path d="M284.946 62.9828L284.729 41.34C284.649 33.4165 278.139 27.035 270.215 27.1144L77.1095 29.0505C69.186 29.1299 62.8044 35.6408 62.8838 43.5643L63.1008 65.207L284.946 62.9828Z" fill="#0B57C7"/>
<path d="M97.682 35.7324C97.6558 33.1195 95.5164 31.0226 92.9035 31.0488C90.2905 31.075 88.1936 33.2143 88.2198 35.8273C88.246 38.4403 90.3854 40.5372 92.9983 40.511C95.6105 40.4848 97.7082 38.3454 97.682 35.7324Z" fill="#02214F"/>
<path d="M117.877 35.53C117.851 32.9171 115.711 30.8202 113.098 30.8464C110.485 30.8726 108.388 33.0119 108.415 35.6249C108.441 38.2379 110.58 40.3348 113.193 40.3086C115.806 40.2824 117.903 38.143 117.877 35.53Z" fill="#02214F"/>
<path d="M138.072 35.3274C138.045 32.7144 135.906 30.6175 133.293 30.6437C130.68 30.6699 128.583 32.8093 128.609 35.4223C128.636 38.0352 130.775 40.1321 133.388 40.1059C136.001 40.0797 138.098 37.9404 138.072 35.3274Z" fill="#02214F"/>
<path d="M158.267 35.125C158.241 32.512 156.102 30.4151 153.489 30.4413C150.876 30.4675 148.779 32.6069 148.805 35.2199C148.831 37.8328 150.971 39.9298 153.584 39.9036C156.197 39.8774 158.294 37.738 158.267 35.125Z" fill="#02214F"/>
<path d="M178.462 34.9226C178.436 32.3097 176.297 30.2127 173.684 30.2389C171.071 30.2651 168.974 32.4045 169 35.0175C169.026 37.6305 171.166 39.7274 173.779 39.7012C176.392 39.675 178.488 37.5356 178.462 34.9226Z" fill="#02214F"/>
<path d="M198.658 34.72C198.631 32.107 196.492 30.0101 193.879 30.0363C191.266 30.0625 189.169 32.2019 189.195 34.8149C189.222 37.4278 191.361 39.5247 193.974 39.4985C196.587 39.4723 198.684 37.3329 198.658 34.72Z" fill="#02214F"/>
<path d="M218.853 34.5176C218.827 31.9046 216.688 29.8077 214.075 29.8339C211.462 29.8601 209.365 31.9995 209.391 34.6125C209.417 37.2254 211.557 39.3223 214.17 39.2961C216.783 39.2699 218.88 37.1306 218.853 34.5176Z" fill="#02214F"/>
<path d="M239.048 34.3152C239.022 31.7022 236.883 29.6053 234.27 29.6315C231.657 29.6577 229.56 31.7971 229.586 34.4101C229.612 37.023 231.752 39.1199 234.365 39.0937C236.978 39.0675 239.074 36.9282 239.048 34.3152Z" fill="#02214F"/>
<path d="M259.244 34.1126C259.217 31.4996 257.078 29.4027 254.465 29.4289C251.852 29.4551 249.755 31.5945 249.781 34.2074C249.808 36.8204 251.947 38.9173 254.56 38.8911C257.173 38.8649 259.27 36.7255 259.244 34.1126Z" fill="#02214F"/>
<path d="M92.9506 35.7799C91.3065 35.7964 89.9603 34.4769 89.9439 32.8328L89.8526 23.7306C89.8361 22.0865 91.1556 20.7403 92.7997 20.7238C94.4437 20.7073 95.7899 22.0268 95.8064 23.6709L95.8977 32.7731C95.9141 34.4172 94.5947 35.7634 92.9506 35.7799Z" fill="#539EF9"/>
<path d="M113.146 35.5775C111.502 35.594 110.156 34.2745 110.139 32.6304L110.048 23.5282C110.031 21.8841 111.351 20.5379 112.995 20.5214C114.639 20.5049 115.985 21.8244 116.002 23.4685L116.093 32.5707C116.109 34.2148 114.79 35.561 113.146 35.5775Z" fill="#539EF9"/>
<path d="M133.341 35.3749C131.697 35.3913 130.35 34.0719 130.334 32.4278L130.243 23.3255C130.226 21.6814 131.546 20.3353 133.19 20.3188C134.834 20.3023 136.18 21.6218 136.197 23.2658L136.288 32.3681C136.305 34.0122 134.985 35.3584 133.341 35.3749Z" fill="#539EF9"/>
<path d="M153.537 35.1725C151.892 35.1889 150.546 33.8695 150.53 32.2254L150.439 23.1231C150.422 21.4791 151.742 20.1329 153.386 20.1164C155.03 20.0999 156.376 21.4194 156.392 23.0634L156.484 32.1657C156.5 33.8098 155.181 35.156 153.537 35.1725Z" fill="#539EF9"/>
<path d="M173.731 34.9701C172.087 34.9866 170.741 33.6671 170.725 32.023L170.633 22.9207C170.617 21.2767 171.936 19.9305 173.58 19.914C175.224 19.8975 176.571 21.217 176.587 22.861L176.678 31.9633C176.695 33.6074 175.375 34.9536 173.731 34.9701Z" fill="#539EF9"/>
<path d="M193.927 34.7674C192.283 34.7839 190.936 33.4645 190.92 31.8204L190.829 22.7181C190.812 21.074 192.132 19.7278 193.776 19.7114C195.42 19.6949 196.766 21.0143 196.782 22.6584L196.874 31.7607C196.891 33.4048 195.572 34.7509 193.927 34.7674Z" fill="#539EF9"/>
<path d="M214.122 34.565C212.478 34.5815 211.132 33.2621 211.116 31.618L211.024 22.5157C211.008 20.8716 212.327 19.5255 213.972 19.509C215.616 19.4925 216.962 20.8119 216.978 22.456L217.07 31.5583C217.086 33.2024 215.767 34.5486 214.122 34.565Z" fill="#539EF9"/>
<path d="M234.317 34.3626C232.673 34.3791 231.327 33.0597 231.311 31.4156L231.219 22.3133C231.203 20.6692 232.522 19.3231 234.166 19.3066C235.81 19.2901 237.157 20.6095 237.173 22.2536L237.264 31.3559C237.281 33 235.961 34.3462 234.317 34.3626Z" fill="#539EF9"/>
<path d="M254.512 34.16C252.868 34.1765 251.522 32.857 251.505 31.213L251.414 22.1107C251.398 20.4666 252.717 19.1204 254.361 19.1039C256.005 19.0875 257.351 20.4069 257.368 22.051L257.459 31.1533C257.476 32.7973 256.157 34.1435 254.512 34.16Z" fill="#539EF9"/>
<path d="M95.9429 106.589L75.3521 106.795L75.5585 127.386L96.1494 127.18L95.9429 106.589Z" fill="#B9DDFF"/>
<path d="M96.2129 133.502L75.6221 133.708L75.8285 154.299L96.4194 154.093L96.2129 133.502Z" fill="#B9DDFF"/>
<path d="M96.483 160.415L75.8921 160.621L76.0985 181.212L96.6894 181.005L96.483 160.415Z" fill="#B9DDFF"/>
<path d="M125.541 106.292L104.95 106.498L105.157 127.089L125.748 126.883L125.541 106.292Z" fill="#B9DDFF"/>
<path d="M125.811 133.205L105.22 133.412L105.427 154.003L126.018 153.796L125.811 133.205Z" fill="#B9DDFF"/>
<path d="M126.081 160.118L105.49 160.324L105.697 180.915L126.288 180.709L126.081 160.118Z" fill="#B9DDFF"/>
<path d="M154.869 79.0819L134.278 79.2883L134.484 99.8792L155.075 99.6727L154.869 79.0819Z" fill="#FE769C"/>
<path d="M155.139 105.995L134.548 106.202L134.754 126.793L155.345 126.586L155.139 105.995Z" fill="#B9DDFF"/>
<path d="M155.408 132.909L134.817 133.115L135.024 153.706L155.615 153.499L155.408 132.909Z" fill="#B9DDFF"/>
<path d="M155.678 159.821L135.087 160.028L135.294 180.618L155.885 180.412L155.678 159.821Z" fill="#FCBA06"/>
<path d="M184.467 78.785L163.876 78.9915L164.082 99.5823L184.673 99.3759L184.467 78.785Z" fill="#B9DDFF"/>
<path d="M184.737 105.698L164.146 105.905L164.352 126.496L184.943 126.289L184.737 105.698Z" fill="#B9DDFF"/>
<path d="M185.006 132.612L164.416 132.818L164.622 153.409L185.213 153.203L185.006 132.612Z" fill="#B9DDFF"/>
<path d="M185.276 159.525L164.686 159.731L164.892 180.322L185.483 180.115L185.276 159.525Z" fill="#B9DDFF"/>
<path d="M214.064 78.4884L193.473 78.6948L193.68 99.2857L214.27 99.0792L214.064 78.4884Z" fill="#B9DDFF"/>
<path d="M214.334 105.402L193.743 105.608L193.95 126.199L214.54 125.993L214.334 105.402Z" fill="#FCBA06"/>
<path d="M214.604 132.315L194.013 132.521L194.22 153.112L214.81 152.906L214.604 132.315Z" fill="#B9DDFF"/>
<path d="M214.874 159.228L194.283 159.434L194.489 180.025L215.08 179.818L214.874 159.228Z" fill="#01BEEE"/>
<path d="M243.663 78.1915L223.072 78.3979L223.278 98.9888L243.869 98.7824L243.663 78.1915Z" fill="#B9DDFF"/>
<path d="M243.933 105.105L223.342 105.311L223.548 125.902L244.139 125.696L243.933 105.105Z" fill="#B9DDFF"/>
<path d="M244.202 132.018L223.611 132.225L223.818 152.816L244.409 152.609L244.202 132.018Z" fill="#B9DDFF"/>
<path d="M244.472 158.931L223.881 159.137L224.088 179.728L244.679 179.522L244.472 158.931Z" fill="#B9DDFF"/>
<path d="M273.26 77.8949L252.669 78.1013L252.875 98.6922L273.466 98.4857L273.26 77.8949Z" fill="#0B57C7"/>
<path d="M273.53 104.808L252.939 105.015L253.145 125.605L273.736 125.399L273.53 104.808Z" fill="#0B57C7"/>
<path d="M273.8 131.722L253.209 131.928L253.415 152.519L274.006 152.312L273.8 131.722Z" fill="#0B57C7"/>
<path d="M274.069 158.634L253.479 158.841L253.685 179.431L274.276 179.225L274.069 158.634Z" fill="#0B57C7"/>
<path d="M147.86 50.0915L147.928 56.8857L146.045 56.9046L143.433 53.8443L143.463 56.9305L141.231 56.9529L141.163 50.1587L143.046 50.1398L145.659 53.2002L145.628 50.1139L147.86 50.0915Z" fill="white"/>
<path d="M150.967 53.4573C150.946 51.3999 152.552 49.8888 154.765 49.8666C156.978 49.8444 158.614 51.323 158.635 53.3805C158.655 55.438 157.05 56.949 154.836 56.9712C152.623 56.9934 150.987 55.5148 150.967 53.4573ZM156.325 53.4036C156.315 52.3453 155.628 51.7121 154.784 51.7206C153.939 51.729 153.267 52.3767 153.277 53.4342C153.288 54.4917 153.974 55.1257 154.818 55.1173C155.663 55.1088 156.336 54.4619 156.325 53.4036Z" fill="white"/>
<path d="M168.692 49.8827L165.887 56.7057L163.636 56.7283L160.694 49.9629L163.16 49.9382L164.82 53.8917L166.44 49.9053L168.692 49.8827Z" fill="white"/>
<path d="M176.854 54.8676L176.872 56.5947L171.223 56.6514L171.155 49.8572L176.678 49.8018L176.695 51.5297L173.424 51.5625L173.432 52.3582L176.305 52.3294L176.321 53.979L173.448 54.0078L173.457 54.9009L176.854 54.8676Z" fill="white"/>
<path d="M186.06 56.5026L186.01 53.407L184.559 55.9062L183.55 55.9163L182.05 53.5536L182.08 56.5433L179.994 56.5642L179.926 49.77L181.808 49.7511L184.057 53.3491L186.176 49.7074L188.058 49.6885L188.145 56.4825L186.06 56.5026Z" fill="white"/>
<path d="M198.17 54.508C198.182 55.6923 197.19 56.3911 195.316 56.4099L191.492 56.4482L191.424 49.6541L195.054 49.6177C196.927 49.5989 197.808 50.3371 197.818 51.3659C197.825 51.9972 197.51 52.5239 196.891 52.8406C197.691 53.1247 198.162 53.7027 198.17 54.508ZM193.692 51.2332L193.702 52.2428L194.77 52.2321C195.285 52.227 195.515 52.0499 195.512 51.7202C195.509 51.3906 195.274 51.2182 194.76 51.2233L193.692 51.2332ZM195.858 54.2693C195.855 53.9198 195.601 53.7379 195.096 53.743L193.717 53.7568L193.728 54.8239L195.106 54.8101C195.611 54.8058 195.862 54.6189 195.858 54.2693Z" fill="white"/>
<path d="M206.867 54.5669L206.884 56.2939L201.235 56.3506L201.167 49.5564L206.69 49.501L206.707 51.2289L203.436 51.2617L203.444 52.0574L206.317 52.0286L206.333 53.6783L203.46 53.7071L203.469 54.6001L206.867 54.5669Z" fill="white"/>
<path d="M212.9 54.5253L212.28 54.5316L212.297 56.2395L210.006 56.2624L209.938 49.4683L213.209 49.4355C215.102 49.4165 216.315 50.3941 216.331 51.9671C216.341 52.9472 215.882 53.6893 215.071 54.1149L216.519 56.1971L214.074 56.2217L212.9 54.5253ZM213.081 51.2039L212.246 51.2123L212.262 52.8037L213.097 52.7953C213.728 52.789 214.025 52.4851 214.02 51.9903C214.015 51.4955 213.712 51.1976 213.081 51.2039Z" fill="white"/>
<path d="M146.831 102.708C137.776 102.798 130.336 95.5058 130.245 86.4507C130.154 77.3955 137.447 69.9552 146.501 69.8644C155.557 69.7736 162.997 77.0662 163.088 86.1214C163.178 95.1766 155.886 102.617 146.831 102.708ZM146.511 70.8046C137.974 70.8902 131.1 77.9048 131.185 86.4412C131.271 94.9777 138.285 101.853 146.821 101.767C155.358 101.682 162.233 94.6672 162.147 86.1308C162.062 77.5944 155.048 70.719 146.511 70.8046Z" fill="#1F75FE"/>
<path d="M146.784 98.1153C140.262 98.1807 134.902 92.9274 134.836 86.4046C134.771 79.8817 140.024 74.522 146.547 74.4566C153.071 74.3912 158.431 79.6445 158.496 86.1673C158.562 92.6902 153.308 98.0499 146.784 98.1153ZM146.557 75.396C140.552 75.4561 135.716 80.3903 135.776 86.3951C135.836 92.3992 140.77 97.2362 146.775 97.176C152.78 97.1158 157.617 92.1816 157.557 86.1768C157.496 80.1719 152.562 75.3357 146.557 75.396Z" fill="#1F75FE"/>
<path d="M146.746 94.2668C142.345 94.311 138.73 90.7666 138.686 86.3659C138.642 81.9652 142.185 78.3499 146.586 78.3057C150.987 78.2616 154.603 81.806 154.647 86.2059C154.691 90.6066 151.147 94.2227 146.746 94.2668ZM146.596 79.2451C142.714 79.284 139.587 82.4737 139.626 86.3565C139.665 90.2392 142.855 93.3656 146.737 93.3267C150.619 93.2878 153.746 90.0972 153.707 86.2153C153.669 82.3325 150.478 79.2062 146.596 79.2451Z" fill="#1F75FE"/>
<path d="M100.041 304.791C128.192 304.509 150.971 300.25 150.922 295.279C150.872 290.307 128.011 286.506 99.861 286.788C71.7108 287.07 48.931 291.329 48.9809 296.301C49.0307 301.272 71.8913 305.074 100.041 304.791Z" fill="#9AD8E8"/>
<path d="M147.624 96.0793C147.627 96.3834 147.512 96.6894 147.279 96.9224C146.194 97.9941 144.089 99.5812 141.316 99.2458L141.316 99.2506C141.316 99.2506 139.637 101.168 138.242 102.63C137.941 102.947 137.655 103.284 137.388 103.631L127.449 116.673L120 126.444L119.843 126.466C119.784 125.946 119.646 125.432 119.46 124.943C119.147 124.121 118.801 123.359 119.047 122.473C119.118 122.221 119.209 121.99 119.3 121.763L119.714 121.837C120.798 121.198 121.687 120.334 122.366 119.522C123.254 118.463 123.761 117.137 123.821 115.771C123.837 115.408 123.823 115.05 123.776 114.687C123.525 112.701 123.048 110.668 122.584 108.984L138.346 93.8361C138.569 93.6175 138.788 93.395 138.992 93.1567L145.282 85.8861C145.704 85.3958 146.435 85.3294 146.94 85.7322C147.232 85.9648 147.383 86.3121 147.386 86.6608C147.389 86.901 147.323 87.1428 147.172 87.355L144.21 91.5823L143.096 93.1643L142.887 93.4609C142.437 94.1087 142.54 94.9865 143.134 95.5057C143.431 95.7678 143.8 95.8965 144.169 95.8928C144.488 95.8896 144.806 95.7883 145.079 95.5844L145.698 95.1216C146.004 94.8879 146.397 94.8249 146.751 94.9243L146.751 94.9291C146.928 94.976 147.101 95.078 147.245 95.2139C147.495 95.4468 147.621 95.7649 147.624 96.0793Z" fill="#D9844B"/>
<path d="M146.754 94.9242C146.399 94.8248 146.007 94.8878 145.7 95.1215L145.082 95.5843C144.853 93.2982 143.099 93.1642 143.099 93.1642L144.212 91.5822C144.212 91.5822 146.717 91.7526 146.754 94.9242Z" fill="#C56F3E"/>
<path d="M145.081 95.5843C144.808 95.7882 144.49 95.8896 144.171 95.8928C143.803 95.8964 143.433 95.7677 143.136 95.5057C142.541 94.9864 142.439 94.1086 142.889 93.4608L143.097 93.1642C143.097 93.1642 144.852 93.2982 145.081 95.5843Z" fill="#C56F3E"/>
<path d="M122.721 166.972C122.429 165.792 122.161 164.577 121.908 163.347C121.34 160.569 120.866 157.741 120.486 155.167C120.408 154.666 120.339 154.176 120.27 153.701L120.275 153.701C120.275 153.701 123.98 150.104 131.396 150.707L132.948 163.462C132.948 163.462 134.143 168.134 135.051 170.511C135.051 170.511 136.617 176.854 136.933 181.972C136.933 181.972 137.966 196.799 142.02 204.973C142.02 204.973 143.038 207.088 141.184 209.749L137.266 215.135C136.951 215.565 136.343 215.64 135.932 215.301C135.72 215.121 135.604 214.862 135.601 214.602C135.599 214.42 135.652 214.238 135.758 214.08L137.146 212.028L136.101 213.03C135.97 213.159 135.793 213.225 135.622 213.227C135.44 213.228 135.263 213.161 135.124 213.026C134.851 212.763 134.842 212.332 135.094 212.054L137.284 209.64C137.648 209.244 137.879 208.74 137.943 208.205C138.029 207.483 137.933 206.747 137.661 206.072L137.067 204.6L136.122 208.267C135.971 208.868 135.43 209.276 134.836 209.282C134.728 209.283 134.625 209.27 134.516 209.246C133.818 209.081 133.369 208.408 133.489 207.705C134.005 204.719 134.028 200.639 134.028 200.639C133.994 197.344 133.408 194.674 133.127 193.582C133.045 193.264 132.938 192.95 132.813 192.643L132.255 191.313L130.826 187.9L126.888 178.488L126.888 178.483L124.262 172.215C124.161 171.976 124.07 171.736 123.994 171.492C123.533 170.091 123.109 168.564 122.721 166.972Z" fill="#D9844B"/>
<path d="M105.808 203.882L108.312 213.75C108.542 214.661 108.63 215.598 108.576 216.532L107.805 229.831C103.315 238.831 97.3486 248.068 97.3486 248.068C91.0161 259.473 85.7245 275.267 83.9114 280.956C80.583 279.998 72.6523 276.493 72.6523 276.493C75.5111 267.788 88.0548 239.805 90.7446 233.827C91.0859 233.077 91.3133 232.28 91.4328 231.463L94.0475 213.133C94.1987 212.061 94.1287 210.966 93.8874 209.909C91.2788 198.505 97.4903 190.234 97.7282 189.922C97.733 189.921 97.7329 189.917 97.7329 189.917C99.1466 189.373 102.063 188.395 106.196 187.745C108.794 187.336 111.874 187.06 115.361 187.099C116.382 187.113 117.405 187.201 118.418 187.358C120.02 187.607 122.99 188.004 126.192 188.085C127.685 188.12 129.231 188.089 130.712 187.947L130.825 187.902L132.254 191.315C132.812 206.864 127.26 234.788 127.26 234.788C124.326 253.671 124.052 272.862 124.059 279.898C118.142 281.371 112.707 280.876 112.707 280.876C111.774 269.568 112.289 239.132 112.289 239.132C112.748 231.025 112.564 224.517 112.141 219.513C111.4 210.732 109.93 206.588 109.93 206.588C108.229 205.925 106.879 204.981 105.808 203.882Z" fill="#018389"/>
<path d="M131.148 148.652L131.395 150.706C123.98 150.103 120.274 153.7 120.274 153.7L120.27 153.7C120.153 152.837 120.042 152.009 119.941 151.234C119.941 151.234 123.765 148.274 131.144 148.652L131.148 148.652Z" fill="white"/>
<path d="M109.215 140.206C110.4 139.792 111.497 139.099 112.184 138.065C112.517 137.561 112.752 136.935 113.225 136.537C113.945 135.932 114.971 135.926 115.656 135.202C116.054 134.776 116.289 134.224 116.436 133.658C116.555 133.215 116.623 132.748 116.565 132.297C116.517 131.929 116.386 131.567 116.436 131.198C116.486 130.819 116.763 130.631 117.101 130.504L117.125 130.848C117.67 130.818 119.785 130.753 122.168 131.455C120.955 131.933 119.76 132.766 118.993 133.618C117.206 135.605 117.006 140.09 119.914 141.248C121.156 141.742 122.575 141.265 123.766 141.985C124.858 142.652 124.914 143.825 125.649 144.692C127.051 146.352 129.152 145.879 130.656 144.612L131.148 148.653L131.144 148.653C123.766 148.275 119.941 151.235 119.941 151.235C120.042 152.01 120.153 152.839 120.27 153.701C120.338 154.177 120.407 154.667 120.486 155.167C118.436 156.891 115.734 158.204 114.83 160.644C114.09 162.644 115.062 165.099 117.415 165.258C119.11 165.368 120.494 164.343 121.908 163.347C122.16 164.577 122.428 165.792 122.72 166.972C121.894 167.359 121.094 167.868 120.584 168.929C118.729 172.821 120.575 176.804 119.539 180.733C118.697 183.928 115.198 183.595 112.583 184.294C111.305 184.636 109.588 184.756 108.415 185.392C107.336 185.977 106.637 186.794 106.195 187.746C102.062 188.397 99.1461 189.373 97.7324 189.918C97.7324 189.918 97.7324 189.922 97.7276 189.922C97.0963 190.164 96.769 190.32 96.769 190.32C99.0005 187.116 100.468 184.102 101.408 181.377C101.641 180.702 101.846 180.017 102.015 179.328C103.433 179.201 104.953 179.481 106.243 179.861C108.607 180.558 109.999 180.279 111.599 178.299C112.884 176.7 112.754 173.992 112.195 172.087C111.508 169.723 109.516 167.906 109.309 165.419C109.003 161.754 111.725 157.603 108.571 154.423C106.775 152.61 103.496 152.638 101.304 153.465C100.233 153.868 99.1482 154.404 98.1929 155.048C97.1367 150.571 96.6607 146.721 96.4473 143.988C97.5231 143.57 98.5932 143.544 99.7456 143.852C99.8832 143.885 100.021 143.923 100.164 143.971C102.957 144.876 104.887 147.861 106.955 149.824C108.457 151.248 111.18 153.027 113.324 151.892C115.39 150.801 114.754 147.095 113.185 145.815C112.324 145.112 111.07 144.908 110.083 144.417C108.351 143.561 107.601 142.223 107.541 140.604C107.816 140.567 108.09 140.514 108.359 140.453C108.647 140.384 108.931 140.302 109.215 140.206Z" fill="#FE769C"/>
<path d="M132.442 291.86C132.515 292.307 132.415 293.015 131.216 293.395C131.216 293.395 128.491 294.826 122.159 294.576C121.648 294.556 121.144 294.64 120.664 294.812C119.784 295.131 118.203 295.608 116.651 295.623L112.405 295.666C112.405 295.666 112.08 293.141 112.57 290.543C112.733 289.682 112.788 288.808 112.779 287.929L112.774 287.448C112.768 286.85 113.244 286.364 113.838 286.358L114.781 286.348L115.831 286.338C116.278 286.333 116.707 286.505 117.039 286.816C117.589 287.331 118.734 287.968 120.65 287.09C120.65 287.09 121.196 286.667 122.029 286.487C122.685 286.348 123.525 286.359 124.414 286.861L126.094 288.528C126.481 288.917 126.941 289.222 127.449 289.432L132.03 291.34C132.246 291.43 132.406 291.625 132.442 291.86Z" fill="white"/>
<path d="M130.244 141.232L130.657 144.611C129.152 145.878 127.05 146.351 125.65 144.691C124.915 143.824 124.858 142.651 123.767 141.984C122.576 141.264 121.158 141.741 119.915 141.247C117.006 140.088 117.206 135.603 118.994 133.617C119.761 132.765 120.955 131.933 122.169 131.454C125.536 132.437 129.449 134.946 130.244 141.232Z" fill="#EF4E8C"/>
<path d="M126.887 178.488L130.825 187.9L130.712 187.945C129.231 188.087 127.685 188.117 126.192 188.084L126.887 178.488Z" fill="#B72963"/>
<path d="M126.887 178.484L126.887 178.488L126.193 188.085C122.991 188.004 120.021 187.606 118.419 187.357C117.406 187.2 116.383 187.113 115.362 187.098C111.876 187.06 108.796 187.336 106.197 187.745C106.639 186.793 107.338 185.976 108.417 185.39C109.589 184.755 111.306 184.635 112.584 184.292C115.199 183.593 118.699 183.927 119.541 180.731C120.576 176.803 118.729 172.82 120.586 168.927C121.096 167.866 121.896 167.358 122.722 166.971C123.11 168.563 123.533 170.09 123.994 171.49C124.07 171.735 124.161 171.975 124.262 172.214L126.887 178.484Z" fill="#EF4E8C"/>
<path d="M123.777 114.686C123.995 116.422 123.493 118.185 122.367 119.522C121.688 120.334 120.798 121.197 119.715 121.837L119.301 121.763C119.526 121.196 119.757 120.659 119.681 119.977C119.589 119.202 119.471 119.056 120.038 118.431C120.67 117.738 121.321 117.113 121.513 116.158C121.611 115.661 121.664 115.022 121.516 114.528C121.384 114.097 121.033 113.821 120.887 113.414C120.64 112.739 121.22 112.297 121.428 111.592C121.889 110.041 120.488 108.886 120.89 107.394C121.084 106.671 121.37 105.789 121.284 105.024L121.338 105.018C121.338 105.018 121.953 106.676 122.586 108.983C123.049 110.668 123.526 112.7 123.777 114.686Z" fill="#D9844B"/>
<path d="M124.059 279.895C124.067 281.697 124.087 282.698 124.087 282.698L121.944 282.955L114.755 283.828L113.102 284.026C112.947 283.306 112.814 282.227 112.707 280.873C112.707 280.873 118.142 281.369 124.059 279.895Z" fill="#06B7B7"/>
<path d="M121.977 286.274L122.029 286.484C121.196 286.664 120.65 287.087 120.65 287.087C118.734 287.965 117.588 287.329 117.039 286.814C116.707 286.503 116.278 286.331 115.831 286.335L114.781 286.346L114.756 283.827L121.945 282.954L121.977 286.274Z" fill="#D9844B"/>
<path d="M120.485 155.166C120.864 157.74 121.34 160.569 121.907 163.347C120.493 164.343 119.109 165.368 117.414 165.257C115.06 165.099 114.088 162.644 114.83 160.644C115.734 158.204 118.436 156.89 120.485 155.166Z" fill="#EF4E8C"/>
<path d="M113.184 145.813C114.753 147.093 115.389 150.798 113.323 151.889C111.18 153.025 108.456 151.246 106.954 149.822C104.887 147.859 102.956 144.873 100.163 143.968C100.021 143.921 99.8823 143.883 99.7447 143.85C99.1179 142.555 98.3932 141.28 97.8939 139.96C98.3459 139.985 98.7974 139.966 99.2438 139.908C99.8959 139.828 100.643 139.428 101.302 139.524C102 139.625 102.742 140.153 103.447 140.342C104.776 140.707 106.176 140.801 107.539 140.6C107.599 142.22 108.349 143.557 110.081 144.414C111.069 144.906 112.323 145.109 113.184 145.813Z" fill="#EF4E8C"/>
<path d="M112.196 172.086C112.755 173.99 112.885 176.699 111.6 178.297C110 180.278 108.608 180.557 106.244 179.859C104.954 179.479 103.434 179.2 102.016 179.327C102.352 177.978 102.564 176.606 102.658 175.225C103.285 175.578 108.923 173.729 108.923 173.729C105.95 172.05 100.658 163.359 100.658 163.359C99.6026 160.439 98.7995 157.638 98.194 155.047C99.1502 154.404 100.234 153.867 101.305 153.464C103.497 152.637 106.776 152.609 108.572 154.422C111.726 157.602 109.004 161.753 109.31 165.418C109.517 167.904 111.509 169.721 112.196 172.086Z" fill="#EF4E8C"/>
<path d="M112.141 219.511L112.091 219.516C111.256 222.48 109.654 226.134 107.805 229.831L108.576 216.532C108.63 215.598 108.542 214.661 108.312 213.75L105.808 203.882C106.879 204.981 108.229 205.925 109.929 206.586C109.929 206.586 111.4 210.729 112.141 219.511Z" fill="#004E4A"/>
<path d="M100.659 163.358C100.659 163.358 105.951 172.05 108.923 173.728C108.923 173.728 103.286 175.577 102.658 175.225C102.916 171.559 102.344 167.843 101.027 164.36C100.901 164.024 100.775 163.691 100.659 163.358Z" fill="#B72963"/>
<path d="M99.7467 143.851C98.595 143.543 97.5249 143.569 96.4484 143.987C96.2467 141.461 96.27 139.884 96.277 139.629C96.7994 139.83 97.3456 139.933 97.8958 139.962C98.3952 141.282 99.1199 142.556 99.7467 143.851Z" fill="#EF4E8C"/>
<path d="M84.3132 292.112C85.2009 292.52 87.7184 293.88 87.4328 296.209C87.4328 296.209 86.8384 296.628 85.6172 296.792C84.4209 296.961 82.6281 296.876 80.2071 295.908C80.2071 295.908 78.2046 294.484 77.0562 292.115C77.0562 292.115 75.3313 288.999 70.398 290.616C70.398 290.616 69.3244 289.335 70.7763 287.189C70.8777 287.036 70.9743 286.883 71.0613 286.72C71.3213 286.217 71.9183 285.027 72.4004 283.672C72.6962 282.839 73.5354 282.321 74.4162 282.434C74.5001 282.443 74.588 282.457 74.6767 282.47C76.3193 282.7 78.7016 283.309 80.3033 284.879C80.3033 284.879 81.4426 285.869 81.4702 288.623C81.4702 288.623 81.7244 291.444 83.7375 291.934C83.9336 291.983 84.1304 292.03 84.3132 292.112Z" fill="white"/>
<path d="M85.6169 296.793L85.6223 296.852C83.0546 298.37 78.7887 297.927 78.7887 297.927C73.5723 297.728 73.191 294.413 73.191 294.413C72.4831 292.348 70.3984 290.616 70.3984 290.616C75.3317 289.001 77.0567 292.116 77.0567 292.116C78.2051 294.485 80.2076 295.909 80.2076 295.909C82.6278 296.877 84.4206 296.962 85.6169 296.793Z" fill="#939393"/>
<path d="M83.9117 280.955C83.4736 282.325 83.2412 283.108 83.2412 283.108L81.4073 282.345L75.8112 280.025L72.1034 278.486C72.1772 278.043 72.3668 277.364 72.6533 276.492C72.6533 276.492 80.5832 279.997 83.9117 280.955Z" fill="#06B7B7"/>
<path d="M81.4063 282.345L80.3023 284.88C78.7006 283.31 76.3183 282.701 74.6758 282.472L75.8102 280.025L81.4063 282.345Z" fill="#D9844B"/>
<path d="M146.754 94.9292C147.212 94.9988 147.615 95.3923 147.727 95.8812C147.782 96.1257 147.763 96.3909 147.669 96.6329C147.583 96.882 147.382 97.0788 147.229 97.2344C146.581 97.8994 145.813 98.4562 144.966 98.8646C144.115 99.2626 143.173 99.4939 142.232 99.477C141.762 99.4706 141.297 99.4058 140.846 99.2954C140.399 99.1698 139.963 99.0121 139.56 98.7911C140.44 99.0488 141.341 99.1428 142.223 99.094C143.103 99.0341 143.962 98.8004 144.756 98.4205C145.554 98.0461 146.292 97.5391 146.968 96.956C147.146 96.8034 147.288 96.6822 147.377 96.5025C147.469 96.3284 147.509 96.1237 147.491 95.9187C147.469 95.5031 147.176 95.1054 146.754 94.9292Z" fill="#964712"/>
<path d="M101.675 192.759C101.735 193.814 101.871 194.861 102.097 195.888C102.306 196.917 102.601 197.928 102.983 198.9C103.731 200.845 104.831 202.671 106.357 204.077C107.855 205.511 109.772 206.459 111.793 206.956C112.804 207.215 113.846 207.358 114.894 207.419C115.942 207.502 116.997 207.469 118.054 207.418C117.009 207.58 115.948 207.661 114.885 207.661C113.822 207.648 112.756 207.545 111.707 207.325C109.612 206.891 107.608 205.903 106.022 204.436C105.624 204.071 105.286 203.648 104.928 203.247C104.758 203.039 104.608 202.814 104.447 202.599L104.21 202.272L104.002 201.928C103.425 201.021 102.973 200.041 102.629 199.03C101.933 197.01 101.6 194.874 101.675 192.759Z" fill="#003834"/>
<path d="M143.098 93.1634C143.696 93.0409 144.334 93.3681 144.713 93.8592C144.893 94.1144 145.028 94.3972 145.086 94.6951C145.124 94.8416 145.124 94.9941 145.136 95.1408C145.127 95.291 145.114 95.4388 145.081 95.5836C145.005 95.4494 144.955 95.3174 144.899 95.1887C144.834 95.0633 144.785 94.936 144.724 94.8177C144.603 94.5787 144.472 94.3581 144.322 94.1553C144.014 93.7553 143.624 93.4335 143.098 93.1634Z" fill="#964712"/>
<path d="M136.104 202.213C136.458 202.942 136.782 203.684 137.122 204.419L137.608 205.53C137.765 205.896 137.949 206.276 138.049 206.69C138.152 207.099 138.199 207.524 138.179 207.948C138.168 208.366 138.072 208.82 137.868 209.208C137.769 209.405 137.643 209.589 137.497 209.755L137.089 210.21L136.279 211.112L135.46 212.006L135.26 212.225C135.216 212.276 135.184 212.335 135.165 212.399C135.126 212.528 135.151 212.672 135.222 212.784C135.366 213.027 135.733 213.078 135.943 212.882L136.835 212.064L137.733 211.248C138.04 210.977 138.316 210.712 138.559 210.395C138.807 210.087 139.016 209.747 139.186 209.384C139.356 209.023 139.47 208.633 139.606 208.252C139.468 209.045 139.222 209.848 138.754 210.537C138.526 210.88 138.23 211.192 137.947 211.472L137.096 212.337C136.812 212.626 136.531 212.909 136.237 213.197C136.044 213.383 135.77 213.473 135.506 213.445C135.237 213.419 134.99 213.265 134.837 213.046C134.682 212.823 134.635 212.531 134.71 212.271C134.746 212.14 134.811 212.017 134.899 211.915L135.106 211.684L135.917 210.782L136.737 209.888L137.142 209.444C137.265 209.307 137.369 209.155 137.458 208.994C137.816 208.352 137.81 207.527 137.682 206.774C137.615 206.394 137.463 206.032 137.321 205.647L136.9 204.51C136.636 203.743 136.355 202.984 136.104 202.213Z" fill="#964712"/>
<path d="M121.517 114.527C121.385 114.096 121.034 113.819 120.888 113.414C120.64 112.739 121.22 112.296 121.429 111.592C121.89 110.04 120.489 108.886 120.891 107.394C121.085 106.671 121.371 105.789 121.285 105.023C121.285 105.008 121.28 104.989 121.279 104.974C121.189 104.327 120.751 104.14 120.407 103.637C119.993 103.027 120.079 102.241 119.86 101.487C119.596 100.567 119.067 99.7817 118.281 99.2301C117.48 98.6634 116.515 98.3738 115.561 98.2756C114.657 98.1817 113.66 98.7217 112.844 98.5878C112.392 98.5141 111.928 98.3272 111.46 98.1451C111.016 97.9732 110.562 97.8053 110.1 97.7317C109.117 97.5796 108.09 97.4965 107.105 97.6588C106.737 97.7168 106.37 97.8138 106.017 97.9499C104.071 98.7013 102.917 100.126 101.72 101.764C101.037 102.699 99.7944 103.172 98.7627 103.6C97.5601 104.103 96.6079 104.663 95.8535 105.765C95.3405 106.512 94.9906 107.355 94.739 108.217C94.4682 109.142 94.3503 109.566 93.9312 109.884C93.2975 110.367 92.445 110.518 91.7767 110.971C91.0156 111.49 90.3695 112.159 89.8325 112.901C89.0091 114.043 88.2479 115.5 87.9433 116.882C87.6661 118.137 87.9136 119.337 87.8679 120.594C87.8055 122.166 87.065 123.779 87.1689 125.31C87.3067 127.272 87.7345 129.34 89.0905 130.843C89.1205 130.882 89.1503 130.916 89.185 130.95C89.9787 131.782 91.0986 132.266 91.8244 133.167C92.7143 134.268 92.7128 136.031 93.5058 137.27C94.1643 138.304 95.1109 139.173 96.2496 139.618C96.2592 139.623 96.2696 139.628 96.2792 139.628C96.8016 139.828 97.3478 139.931 97.898 139.96C98.35 139.985 98.8016 139.966 99.248 139.908C99.9001 139.828 100.647 139.427 101.307 139.524C102.004 139.625 102.746 140.153 103.451 140.342C104.78 140.707 106.18 140.801 107.543 140.6C107.818 140.563 108.092 140.511 108.361 140.45C108.65 140.383 108.935 140.301 109.218 140.206C110.402 139.792 111.5 139.098 112.186 138.065C112.52 137.561 112.754 136.935 113.227 136.537C113.947 135.931 114.974 135.926 115.658 135.202C116.056 134.776 116.292 134.224 116.439 133.658C116.557 133.215 116.626 132.748 116.567 132.297C116.52 131.929 116.388 131.566 116.438 131.198C116.488 130.819 116.766 130.63 117.104 130.504C117.447 130.373 117.843 130.31 118.127 130.175C119.022 129.753 119.621 128.829 119.807 127.855C119.896 127.397 119.906 126.931 119.847 126.465C119.788 125.945 119.65 125.431 119.464 124.942C119.152 124.12 118.805 123.358 119.052 122.472C119.122 122.22 119.213 121.989 119.305 121.762C119.53 121.195 119.76 120.657 119.684 119.976C119.593 119.201 119.474 119.055 120.041 118.431C120.673 117.737 121.324 117.112 121.516 116.157C121.612 115.66 121.664 115.022 121.517 114.527Z" fill="#1E3135"/>
<path d="M109.286 140.181C109.279 140.181 109.265 140.168 109.258 140.162C108.017 138.852 107.208 136.743 106.966 134.23C106.762 132.013 107.014 129.597 107.656 127.756C108.397 125.618 109.868 124.369 111.286 123.162C113.171 121.558 114.95 120.043 114.714 116.694C114.635 115.467 114.447 114.317 114.261 113.199C113.858 110.694 113.47 108.331 114.318 105.517C115.265 102.379 116.533 100.397 118.309 99.2865C118.315 99.28 118.329 99.2727 118.336 99.2727L118.22 99.1932C116.425 100.331 115.15 102.326 114.204 105.485C113.343 108.325 113.73 110.702 114.14 113.221C114.327 114.331 114.513 115.483 114.593 116.702C114.822 119.991 113.063 121.485 111.212 123.068C109.774 124.29 108.296 125.552 107.543 127.718C106.894 129.572 106.635 132.009 106.846 134.239C107.087 136.772 107.904 138.901 109.151 140.231L109.286 140.181ZM97.9612 139.958C97.9611 139.952 97.9546 139.945 97.9546 139.938C97.2201 138.01 97.1437 136.44 97.708 134.849C97.9175 134.254 98.2698 133.724 98.6086 133.208C98.8878 132.787 99.1803 132.353 99.384 131.885C100.149 130.15 99.921 128.285 99.7073 126.48C99.5599 125.227 99.4056 123.927 99.5749 122.672C99.8385 120.7 100.551 119.175 101.688 118.132C102.236 117.634 102.954 117.31 103.645 116.993C104.437 116.627 105.263 116.255 105.816 115.629C107.303 113.962 107.276 111.265 107.244 108.648C107.229 107.172 107.215 105.782 107.473 104.64C108.19 101.443 109.351 99.5766 111.495 98.1935C111.509 98.1869 111.515 98.1797 111.529 98.1732L111.387 98.1203C109.243 99.5179 108.068 101.404 107.352 104.614C107.094 105.77 107.108 107.166 107.122 108.649C107.155 111.238 107.182 113.914 105.728 115.548C105.189 116.153 104.376 116.519 103.597 116.877C102.892 117.201 102.167 117.533 101.606 118.037C100.443 119.101 99.7175 120.652 99.4542 122.651C99.285 123.927 99.4394 125.234 99.5869 126.493C99.8076 128.366 100.021 130.13 99.2694 131.837C99.072 132.291 98.7858 132.725 98.5066 133.139C98.1614 133.655 97.802 134.192 97.5926 134.807C97.0221 136.418 97.0923 138.002 97.8262 139.95L97.9612 139.958ZM89.1302 130.888C89.1365 130.881 89.1436 130.868 89.1435 130.861C89.3532 130.286 89.6518 129.73 90.0377 129.213C90.1904 129.003 90.3575 128.792 90.5168 128.595C91.003 127.976 91.5091 127.344 91.7848 126.572C92.2504 125.253 92.1681 123.804 92.0934 122.408C91.9958 120.716 91.8969 118.971 92.7724 117.452C93.5412 116.109 94.8498 115.429 96.117 114.769C97.2509 114.177 98.4245 113.572 99.1895 112.492C99.901 111.488 100.01 110.225 100.112 108.997C100.161 108.437 100.216 107.85 100.325 107.315C100.71 105.444 101.543 103.742 102.875 102.11C104.347 100.308 105.742 98.8649 107.147 97.7047C107.174 97.6845 107.193 97.6635 107.22 97.6433L106.984 97.6792C105.607 98.8328 104.232 100.256 102.779 102.031C101.433 103.683 100.594 105.397 100.202 107.289C100.093 107.83 100.038 108.417 99.9901 108.984C99.8872 110.192 99.7784 111.441 99.0875 112.426C98.3357 113.472 97.2361 114.049 96.0617 114.661C94.7801 115.329 93.4517 116.016 92.6633 117.393C91.7753 118.947 91.8737 120.712 91.9722 122.417C92.0467 123.806 92.1281 125.235 91.6694 126.527C91.4007 127.279 90.901 127.911 90.4218 128.515C90.2554 128.719 90.0891 128.93 89.9356 129.14C89.5497 129.656 89.252 130.219 89.0414 130.788L89.1302 130.888Z" fill="#295154"/>
<path d="M127.45 116.672L120.001 126.444L119.844 126.465C119.785 125.945 119.647 125.431 119.461 124.942C119.148 124.121 118.802 123.358 119.048 122.472C119.119 122.221 119.21 121.989 119.301 121.762L119.715 121.836C120.799 121.197 121.688 120.333 122.367 119.521C123.255 118.462 123.762 117.136 123.822 115.77L127.45 116.672Z" fill="#C56F3E"/>
<path d="M121.338 105.018C121.961 106.452 122.461 107.936 122.903 109.437C123.346 110.938 123.694 112.468 123.933 114.021C124.056 114.785 124.123 115.623 123.992 116.418C123.867 117.215 123.598 117.992 123.179 118.679C122.764 119.374 122.211 119.953 121.64 120.489C121.05 121.011 120.415 121.486 119.715 121.836C120.357 121.392 120.949 120.887 121.471 120.317C122 119.755 122.504 119.163 122.851 118.493C123.57 117.148 123.746 115.6 123.448 114.094C123.226 112.563 122.895 111.046 122.54 109.534C122.363 108.777 122.169 108.023 121.963 107.273C121.771 106.517 121.551 105.77 121.338 105.018Z" fill="#964712"/>
<path d="M120.699 157.065C120.091 154.576 119.702 152.059 119.368 149.535C119.055 147.009 118.798 144.475 118.763 141.913C119.373 144.402 119.762 146.918 120.094 149.443C120.406 151.969 120.663 154.503 120.699 157.065Z" fill="#B22860"/>
<path d="M218.875 95.5562L219.582 166.041C219.606 168.496 217.625 170.509 215.17 170.534L152.044 171.167C149.589 171.192 147.576 169.218 147.551 166.763L146.844 96.2784C146.82 93.8235 148.793 91.8098 151.248 91.7852L214.375 91.1523C216.829 91.1277 218.85 93.1013 218.875 95.5562Z" fill="#0B57C7"/>
<path d="M161.943 113.634L162.463 112.434C162.974 112.764 163.697 112.986 164.359 112.979C165.03 112.973 165.29 112.782 165.287 112.504C165.278 111.596 162.028 112.291 162.006 110.163C161.996 109.14 162.823 108.297 164.525 108.28C165.27 108.272 166.041 108.436 166.609 108.758L166.122 109.965C165.57 109.676 165.029 109.534 164.53 109.539C163.85 109.546 163.608 109.778 163.611 110.064C163.619 110.94 166.861 110.253 166.882 112.364C166.892 113.362 166.067 114.221 164.364 114.238C163.423 114.249 162.487 114.005 161.943 113.634Z" fill="white"/>
<path d="M168.534 111.53L168.502 108.355L170.123 108.338L170.154 111.465C170.164 112.446 170.577 112.836 171.256 112.829C171.927 112.822 172.333 112.425 172.323 111.443L172.292 108.317L173.887 108.301L173.919 111.476C173.936 113.187 172.947 114.154 171.253 114.171C169.559 114.188 168.551 113.241 168.534 111.53Z" fill="white"/>
<path d="M181.397 108.226L181.455 113.954L180.12 113.968L177.562 110.94L177.592 113.993L176.005 114.009L175.947 108.28L177.281 108.267L179.841 111.294L179.81 108.242L181.397 108.226Z" fill="white"/>
<path d="M183.506 108.204L186.216 108.177C188.115 108.158 189.427 109.25 189.444 111.009C189.462 112.769 188.172 113.887 186.273 113.906L183.564 113.933L183.506 108.204ZM186.195 112.614C187.169 112.604 187.817 112.016 187.807 111.026C187.797 110.035 187.137 109.461 186.163 109.471L185.14 109.481L185.172 112.624L186.195 112.614Z" fill="white"/>
<path d="M195.033 112.705L192.611 112.729L192.172 113.847L190.519 113.863L192.991 108.109L194.586 108.093L197.181 113.797L195.495 113.814L195.033 112.705ZM194.546 111.515L193.792 109.689L193.072 111.53L194.546 111.515Z" fill="white"/>
<path d="M201.291 111.701L201.311 113.755L199.692 113.771L199.671 111.693L197.449 108.065L199.16 108.048L200.542 110.31L201.876 108.021L203.448 108.005L201.291 111.701Z" fill="white"/>
<path d="M167.58 115.524L167.634 120.911L167.08 120.916L167.031 116.022L165.761 116.034L165.756 115.542L167.58 115.524Z" fill="white"/>
<path d="M173.482 119.436L172.404 119.447L172.419 120.863L171.865 120.868L171.851 119.453L168.81 119.483L168.806 119.083L171.626 115.483L172.241 115.477L169.52 118.983L171.86 118.96L171.848 117.713L172.387 117.707L172.4 118.955L173.477 118.944L173.482 119.436Z" fill="white"/>
<path d="M174.017 117.183C174.015 116.945 174.198 116.765 174.422 116.763C174.644 116.761 174.839 116.936 174.842 117.175C174.844 117.414 174.654 117.6 174.43 117.602C174.207 117.605 174.02 117.422 174.017 117.183ZM174.05 120.462C174.048 120.223 174.23 120.044 174.455 120.042C174.677 120.04 174.872 120.215 174.875 120.453C174.877 120.692 174.687 120.879 174.463 120.881C174.24 120.884 174.053 120.701 174.05 120.462Z" fill="white"/>
<path d="M179.226 119.248C179.235 120.148 178.587 120.847 177.286 120.86C176.509 120.868 175.76 120.607 175.34 120.187L175.605 119.745C175.955 120.104 176.581 120.359 177.281 120.352C178.174 120.343 178.663 119.922 178.656 119.253C178.649 118.606 178.191 118.188 177.19 118.198L176.806 118.202L176.801 117.794L178.275 115.909L175.52 115.936L175.515 115.444L178.979 115.409L178.983 115.802L177.478 117.733C178.634 117.784 179.217 118.386 179.226 119.248Z" fill="white"/>
<path d="M179.987 118.094C179.97 116.377 180.861 115.344 182.108 115.332C183.354 115.319 184.273 116.334 184.29 118.051C184.307 119.767 183.408 120.8 182.163 120.812C180.916 120.824 180.005 119.81 179.987 118.094ZM183.721 118.056C183.706 116.617 183.051 115.831 182.114 115.84C181.174 115.85 180.536 116.649 180.55 118.088C180.565 119.527 181.22 120.313 182.158 120.304C183.096 120.294 183.735 119.495 183.721 118.056Z" fill="white"/>
<path d="M191.78 117.129C191.792 118.276 190.968 118.977 189.598 118.99L188.151 119.005L188.168 120.706L187.598 120.711L187.544 115.324L189.56 115.304C190.931 115.289 191.769 115.974 191.78 117.129ZM191.211 117.134C191.203 116.272 190.628 115.786 189.551 115.797L188.12 115.811L188.147 118.505L189.578 118.491C190.655 118.479 191.22 117.981 191.211 117.134Z" fill="white"/>
<path d="M198.585 115.213L198.639 120.6L198.092 120.606L198.049 116.296L195.969 119.942L195.7 119.945L193.547 116.364L193.59 120.651L193.043 120.657L192.989 115.27L193.459 115.265L195.839 119.236L198.115 115.218L198.585 115.213Z" fill="white"/>
<path d="M202.044 161.39L164.992 161.761C161.703 161.794 159.01 159.155 158.977 155.866C158.944 152.577 161.583 149.884 164.872 149.851L201.925 149.479C205.214 149.446 207.907 152.086 207.94 155.375C207.973 158.664 205.333 161.357 202.044 161.39Z" fill="#FF654B"/>
<path d="M169.531 156.285C169.537 156.868 169.109 157.205 168.253 157.213L166.675 157.229L166.641 153.802L168.12 153.787C168.884 153.78 169.328 154.098 169.333 154.656C169.337 155.047 169.129 155.31 168.817 155.44C169.258 155.533 169.526 155.82 169.531 156.285ZM167.006 154.098L167.019 155.341L168.111 155.33C168.659 155.325 168.975 155.111 168.97 154.7C168.966 154.289 168.647 154.081 168.098 154.087L167.006 154.098ZM169.168 156.26C169.164 155.814 168.834 155.621 168.231 155.627L167.022 155.64L167.035 156.927L168.244 156.915C168.846 156.909 169.173 156.71 169.168 156.26Z" fill="white"/>
<path d="M170.624 155.477C170.614 154.477 171.371 153.726 172.408 153.716C173.436 153.705 174.212 154.437 174.222 155.441C174.232 156.444 173.471 157.191 172.443 157.202C171.406 157.211 170.634 156.475 170.624 155.477ZM173.861 155.444C173.852 154.626 173.234 154.031 172.411 154.039C171.585 154.047 170.973 154.655 170.981 155.473C170.989 156.29 171.612 156.886 172.44 156.878C173.262 156.869 173.869 156.261 173.861 155.444Z" fill="white"/>
<path d="M175.308 155.43C175.298 154.43 176.054 153.679 177.092 153.668C178.12 153.658 178.896 154.389 178.906 155.393C178.916 156.397 178.155 157.144 177.127 157.155C176.089 157.164 175.318 156.428 175.308 155.43ZM178.544 155.397C178.536 154.579 177.917 153.983 177.095 153.992C176.268 154 175.657 154.608 175.666 155.426C175.674 156.243 176.297 156.839 177.124 156.831C177.946 156.822 178.552 156.214 178.544 155.397Z" fill="white"/>
<path d="M181.359 155.47L180.666 156.188L180.675 157.089L180.313 157.092L180.279 153.665L180.641 153.662L180.662 155.733L182.653 153.641L183.069 153.637L181.602 155.204L183.206 157.063L182.776 157.068L181.359 155.47Z" fill="white"/>
<path d="M189.059 153.577L189.093 157.004L188.794 157.007L186.563 154.249L186.591 157.029L186.229 157.033L186.194 153.606L186.493 153.603L188.729 156.361L188.701 153.581L189.059 153.577Z" fill="white"/>
<path d="M190.466 155.278C190.456 154.278 191.212 153.527 192.25 153.517C193.277 153.506 194.053 154.238 194.064 155.242C194.074 156.245 193.312 156.992 192.284 157.003C191.247 157.012 190.476 156.276 190.466 155.278ZM193.702 155.245C193.694 154.427 193.075 153.832 192.253 153.84C191.426 153.848 190.814 154.456 190.822 155.274C190.831 156.091 191.454 156.687 192.281 156.679C193.103 156.67 193.71 156.063 193.702 155.245Z" fill="white"/>
<path d="M200.038 153.467L198.918 156.906L198.536 156.91L197.502 153.997L196.523 156.93L196.146 156.934L194.956 153.518L195.329 153.514L196.347 156.451L197.34 153.494L197.678 153.491L198.717 156.442L199.69 153.471L200.038 153.467Z" fill="white"/>
<path d="M169.806 143.17L158.524 143.283C156.537 143.303 154.911 141.709 154.891 139.722L154.778 128.44C154.758 126.454 156.353 124.826 158.339 124.806L169.621 124.693C171.608 124.673 173.235 126.268 173.255 128.255L173.368 139.537C173.387 141.523 171.793 143.15 169.806 143.17Z" fill="#1F75FE"/>
<path d="M164.173 126.869C161.916 126.808 159.916 128.48 159.517 130.702C159.387 131.418 159.449 132.099 159.628 132.728C160.329 134.716 161.663 137.25 164.144 141.109C166.335 137.163 168.157 134.65 168.491 132.639C168.594 132.25 168.651 131.843 168.647 131.421C168.622 128.938 166.634 126.934 164.173 126.869ZM164.07 133.697C162.838 133.709 161.83 132.72 161.818 131.489C161.805 130.258 162.794 129.249 164.025 129.237C165.257 129.224 166.265 130.213 166.277 131.444C166.29 132.676 165.301 133.684 164.07 133.697Z" fill="#FF654B"/>
<path d="M210.554 130.394L181.592 130.685C181.007 130.691 180.529 130.221 180.523 129.637C180.517 129.052 180.986 128.573 181.57 128.568L210.533 128.277C211.118 128.271 211.596 128.741 211.602 129.326C211.607 129.91 211.138 130.389 210.554 130.394Z" fill="white"/>
<path d="M210.596 134.58L181.634 134.871C181.049 134.877 180.571 134.407 180.565 133.823C180.559 133.238 181.028 132.76 181.612 132.754L210.575 132.464C211.16 132.458 211.638 132.927 211.644 133.512C211.649 134.096 211.18 134.575 210.596 134.58Z" fill="white"/>
<path d="M202.409 138.85L181.676 139.058C181.091 139.064 180.613 138.594 180.607 138.01C180.601 137.425 181.07 136.946 181.654 136.94L202.388 136.732C202.973 136.727 203.452 137.196 203.458 137.781C203.464 138.365 202.994 138.844 202.409 138.85Z" fill="white"/>
<path d="M218.875 95.5562L218.928 100.863L146.897 101.585L146.844 96.2784C146.819 93.8235 148.793 91.8098 151.248 91.7852L214.374 91.1523C216.83 91.1277 218.851 93.1013 218.875 95.5562Z" fill="#FE769C"/>
<path d="M164.879 98.4569L153.067 98.5754C152.077 98.5853 151.266 97.7913 151.256 96.8008C151.246 95.8112 152.04 95.0003 153.031 94.9903L164.843 94.8719C165.832 94.862 166.643 95.656 166.653 96.6465C166.663 97.6361 165.868 98.447 164.879 98.4569Z" fill="white"/>
<path d="M258.254 293.91C286.404 293.628 309.184 289.369 309.134 284.397C309.084 279.426 286.224 275.624 258.073 275.907C229.923 276.189 207.143 280.448 207.193 285.419C207.243 290.391 230.104 294.192 258.254 293.91Z" fill="#9AD8E8"/>
<path d="M272.918 179.251C273.588 181.955 273.967 184.971 273.509 187.744C267.283 190.723 267.459 179.306 267.459 179.306C269.76 180.162 272.918 179.251 272.918 179.251Z" fill="#0041A0"/>
<path d="M255.865 180.713C255.865 180.713 257.735 191.845 249.497 192.413C249.497 192.413 241.455 192.99 242.899 181.265C242.899 181.265 248.881 182.904 255.865 180.713Z" fill="#0041A0"/>
<path d="M260.827 190.248L259.672 211.166L256.623 201.421L256.623 201.416C256.756 199.923 256.886 198.703 256.976 197.942C257.039 197.372 257.265 196.839 257.604 196.374C259.028 194.424 260.066 192.317 260.827 190.248Z" fill="#0041A0"/>
<path d="M272.237 166.193C274.812 162.618 275.718 155.391 275.718 155.391C276.003 152.923 277.171 150.486 278.331 148.584C278.722 147.952 279.113 147.373 279.467 146.879L276.228 136.772L277.585 135.07L280.087 131.936L287.919 143.234C289.254 145.165 289.51 147.647 288.589 149.812C286.915 153.722 284.102 160.065 281.708 164.32C280.744 166.039 279.497 167.578 278.037 168.899C277.711 169.197 277.45 169.558 277.262 169.957C276.916 170.682 276.232 171.966 275.162 173.081L269.779 170.853L269.774 170.848L266.959 171.175C266.851 171.172 266.742 171.168 266.635 171.164C266.212 171.095 265.855 170.784 265.738 170.358C265.565 169.756 265.917 169.129 266.52 168.961L268.468 168.406L269.438 168.131C270.119 168.06 270.735 167.744 271.29 167.258L271.294 167.258C271.631 166.96 271.946 166.603 272.237 166.193Z" fill="#FFB380"/>
<path d="M259.797 171.325C262.27 171.173 264.622 171.1 266.635 171.163C266.699 171.177 266.768 171.182 266.837 171.181C266.88 171.181 266.92 171.18 266.959 171.175L269.774 170.848L269.779 170.852C269.835 170.96 270.715 172.635 271.629 175.101C272.083 176.324 272.549 177.738 272.917 179.251C272.917 179.251 269.759 180.162 267.458 179.306C267.458 179.306 267.283 190.723 273.508 187.744C273.425 188.246 273.317 188.743 273.175 189.231C273.046 189.669 273.036 190.131 273.115 190.582C273.871 194.988 277.754 217.412 280.217 228.071C280.432 229.007 280.58 229.953 280.663 230.91L284.149 271.617C284.149 271.617 283.89 271.693 283.449 271.806C281.573 272.286 276.375 273.384 273.432 271.724L262.434 220.369C262.274 219.62 262.075 218.875 261.848 218.141L259.671 211.166L260.827 190.248C260.067 192.318 259.027 194.424 257.604 196.373C257.264 196.838 257.039 197.371 256.976 197.941C256.885 198.703 256.756 199.922 256.623 201.416L256.623 201.42C256.362 204.335 256.093 208.3 256.13 211.976L254.527 252.406L255.289 273.515C255.289 273.515 255.079 273.581 254.711 273.683C252.802 274.208 246.64 275.728 243.63 274.241C243.3 274.083 243.003 273.88 242.76 273.641L240.332 224.538C240.272 223.32 240.117 222.119 239.864 220.929C238.674 215.339 235.046 197.169 234.687 181.987C234.621 179.385 234.66 176.871 234.818 174.523L234.836 174.36L235.293 174.404C235.986 174.471 236.682 174.331 237.288 174.001C237.288 174.001 237.292 174.001 237.297 173.996C237.473 173.97 239.523 173.636 242.563 173.202C247.087 172.557 253.811 171.7 259.797 171.325ZM249.497 192.413C257.735 191.845 255.865 180.713 255.865 180.713C248.881 182.904 242.899 181.265 242.899 181.265C241.454 192.99 249.497 192.413 249.497 192.413Z" fill="#1F75FE"/>
<path d="M283.449 271.809C283.449 271.809 283.9 275.153 283.861 278.541C283.843 279.735 283.073 280.779 281.933 281.114C280.944 281.409 279.66 281.638 278.313 281.47C277.772 281.402 277.255 281.2 276.814 280.876C275.909 280.207 273.967 278.926 272.459 278.941C272.459 278.941 267.899 279.139 265.891 275.707C265.701 275.375 265.565 275.008 265.483 274.631C265.431 274.371 265.374 274.043 265.361 273.729C265.341 273.179 265.66 272.675 266.168 272.468C267.332 271.98 270.151 271.054 273.432 271.723C276.375 273.382 281.574 272.284 283.449 271.804L283.449 271.809Z" fill="#0F3772"/>
<path d="M276.228 136.772L279.467 146.879C279.113 147.373 278.722 147.952 278.331 148.584L278.222 148.536L272.994 140.822L276.228 136.772Z" fill="#ED8945"/>
<path d="M269.78 170.853L275.163 173.081C274.265 174.023 273.095 174.835 271.629 175.1C270.716 172.635 269.834 170.96 269.78 170.853Z" fill="#ED8945"/>
<path d="M253.868 105.961C254.668 105.884 255.357 105.617 255.904 105.317C256.027 105.247 256.149 105.172 256.261 105.088C256.261 105.088 257.376 108.13 257.809 109.235L257.814 109.299C257.539 109.317 257.26 109.359 256.99 109.421L249.378 111.152L245.008 112.143L244.957 111.922C244.916 111.643 244.868 111.373 244.812 111.123L244.817 111.123L245.961 103.717L245.851 104.018C245.507 104.984 244.734 105.738 243.756 106.057L241.353 106.837L240.266 107.186C236.679 107.934 236.617 105.126 236.617 105.126L237.025 99.3133L237.415 93.6926L237.467 92.9609C237.579 91.3395 237.871 89.7362 238.328 88.1752L238.906 86.2059L238.916 86.1859C239.157 86.2425 239.452 86.2539 239.795 86.197C239.795 86.197 242.181 85.1714 242.193 86.4579L240.806 90.1442C240.639 90.5929 240.688 91.0976 240.943 91.5029L241.527 92.4397C241.736 92.7713 241.858 93.158 241.877 93.5505L241.946 95.0376C241.959 95.3759 242.099 95.6842 242.318 95.9126C242.541 96.1459 242.842 96.2953 243.176 96.3263C243.845 96.3882 244.459 95.9502 244.619 95.3005L244.676 95.0645C244.785 94.6316 245.199 94.3473 245.641 94.4115C246.473 94.5356 247.676 95.0001 247.716 96.6735L247.721 96.6734C247.916 96.9708 248.385 98.2032 248.617 98.8299C248.708 99.0692 248.749 99.3242 248.762 99.5795C248.827 101.155 249.183 102.453 249.551 103.392C249.747 103.895 250.032 104.344 250.399 104.723C251.039 105.409 251.913 105.862 252.881 105.96C253.225 105.997 253.554 105.993 253.868 105.961Z" fill="#FFB380"/>
<path d="M254.71 273.683C257.152 277.783 256.153 283.886 255.798 285.638C255.728 285.977 255.544 286.288 255.261 286.497C253.575 287.756 250.742 287.77 249.076 287.644C248.334 287.588 247.625 287.389 246.94 287.115C243.933 285.899 239.799 286.466 239.799 286.466C231.862 287.62 227.724 285.32 226.359 284.332C225.993 284.06 225.782 283.611 225.861 283.164C226.201 281.289 228.676 280.882 228.676 280.882C236.775 279.74 243.629 274.241 243.629 274.241C246.64 275.729 252.801 274.208 254.71 273.683Z" fill="#0F3772"/>
<path d="M245.961 103.718L244.817 111.124L244.813 111.124C243.954 107.229 241.353 106.838 241.353 106.838L243.755 106.058C244.734 105.739 245.507 104.985 245.851 104.019L245.961 103.718Z" fill="#ED8945"/>
<path d="M243.766 169.807C244.067 170.025 244.272 170.366 244.31 170.764C244.316 170.803 244.316 170.842 244.316 170.882C244.323 171.559 243.813 172.149 243.122 172.224L242.028 172.343C241.554 171.513 241.201 170.642 240.986 169.722L242.855 169.556C243.193 169.523 243.514 169.623 243.766 169.807Z" fill="#FFB380"/>
<path d="M234.836 174.36L234.818 174.522L231.809 180.532C230.777 179.501 229.934 178.116 229.378 177.06C228.893 176.143 228.642 175.123 228.632 174.083L228.61 171.962C228.606 171.565 228.563 171.168 228.485 170.775L224.73 155.219C223.695 150.938 224.151 146.436 226.017 142.45L227.511 139.249C228.634 139.576 230.17 139.929 232.17 140.189C232.623 140.253 233.1 140.307 233.601 140.356L235.515 150.594L234.73 153.621C234.504 154.492 234.385 155.382 234.379 156.281C234.371 157.518 234.386 159.423 234.514 161.405C234.708 164.599 235.184 167.988 236.3 169.081C236.3 169.081 236.804 169.94 238.793 169.92L240.986 169.722C241.201 170.643 241.554 171.513 242.028 172.343L240.537 172.506C240.116 172.554 239.704 172.681 239.329 172.886L237.297 173.997C237.293 174.001 237.288 174.001 237.288 174.001C236.682 174.332 235.987 174.471 235.293 174.405L234.836 174.36Z" fill="#FFB380"/>
<path d="M238.106 140.601L238.106 140.615L235.516 150.594L233.601 140.356C234.923 140.486 236.422 140.574 238.106 140.601Z" fill="#ED8945"/>
<path d="M237.416 93.6941L237.025 99.3148L234.889 98.8062L237.416 93.6941Z" fill="#ED8945"/>
<path d="M231.81 180.532L234.819 174.522C234.66 176.87 234.622 179.385 234.688 181.986L234.678 181.986C233.632 181.997 232.658 181.388 231.81 180.532Z" fill="#ED8945"/>
<path d="M265.738 170.358C265.565 169.755 265.918 169.128 266.519 168.96L268.468 168.406C264.154 168.159 260.393 168.138 257.198 168.243C248.486 168.532 243.956 169.751 243.765 169.807C244.067 170.025 244.271 170.366 244.31 170.764C244.315 170.803 244.315 170.842 244.316 170.882C244.323 171.56 243.813 172.149 243.122 172.225L242.028 172.343L240.537 172.506C240.115 172.554 239.704 172.681 239.328 172.886L237.297 173.997C237.473 173.97 239.522 173.636 242.562 173.202C247.088 172.558 253.81 171.7 259.797 171.326C262.27 171.174 264.621 171.101 266.635 171.164C266.212 171.094 265.856 170.783 265.738 170.358Z" fill="#BC1B1B"/>
<path d="M280.22 130.374L279.58 129.202C279.492 129.315 278.14 131.087 276.56 133.106C274.81 135.348 272.769 137.891 271.879 138.799L271.874 138.799C271.808 139.502 271.717 140.195 271.596 140.888L271.234 143.028L272.995 140.82L276.229 136.771L277.586 135.069L280.088 131.935C280.441 131.491 280.494 130.871 280.22 130.374Z" fill="#BC1B1B"/>
<path d="M245.128 134.207C244.196 133.823 243.221 133.587 242.223 133.406C240.221 133.043 238.143 132.912 236.203 132.313C233.799 131.566 231.014 129.909 229.375 127.653L225.973 135.965C225.973 135.965 230.093 137.485 235.243 138.439C236.631 137.826 238.129 137.331 239.393 137.102C239.972 136.998 240.54 136.967 241.096 137.011C244.207 137.255 246.697 139.758 246.616 142.995C246.518 146.963 244.52 148.942 241.558 151.22C240.038 152.39 238.636 153.616 237.561 155.026C237.473 155.631 237.401 156.236 237.343 156.84C237.028 160.158 237.042 169.806 236.302 169.081C236.302 169.081 236.807 169.941 238.795 169.921L240.988 169.722C240.635 168.258 240.614 166.663 240.964 164.866C241.577 161.743 243.243 159.482 245.266 157.105C247.208 154.827 249.779 153.235 251.17 150.477C252.624 147.605 252.563 143.452 251.232 140.528C250.061 137.957 247.795 135.289 245.128 134.207ZM278.359 126.951C277.762 126.653 277.136 126.413 276.481 126.248C275.206 125.932 273.861 126.009 272.549 125.895C272.343 125.877 272.136 125.855 271.93 125.823C268.523 125.327 266.072 124.3 263.851 121.652C261.232 118.521 260.885 114.278 262.738 111.053L261.261 110.135C260.406 109.603 259.436 109.318 258.454 109.289C257.457 110.664 256.831 112.468 256.622 114.114C256.085 118.327 257.767 122.542 260.82 125.345C263.952 128.221 267.502 128.298 271.277 129.654C271.627 129.778 271.986 129.912 272.346 130.061C273.347 130.464 274.359 130.959 275.175 131.599C275.73 132.035 276.182 132.546 276.56 133.107C278.14 131.088 279.492 129.316 279.579 129.203L278.359 126.951ZM264.282 159.816C263.066 156.544 264.756 152.275 265.514 149.046C266.711 143.957 267.732 138.129 263.841 133.946C260.585 130.453 256.383 128.109 252.579 125.245C249.561 122.973 247.89 118.359 248.314 114.643C248.454 113.4 248.884 112.261 249.379 111.152L245.009 112.143L240.615 113.139C238.93 113.524 237.403 114.418 236.246 115.707L234.459 117.689C234.138 118.046 233.838 118.412 233.557 118.793C235.006 120.345 237.179 121.61 238.35 122.32C243.68 125.536 250.239 126.953 254.7 131.592C259.443 136.529 260.24 143.561 258.088 149.809C256.304 154.992 254.351 162.896 257.198 168.244C260.394 168.139 264.154 168.16 268.468 168.407L269.437 168.132L269.41 165.432C267.103 164.442 265.327 162.614 264.282 159.816Z" fill="#FC4C4C"/>
<path d="M246.615 142.995C246.695 139.759 244.205 137.255 241.095 137.012C240.54 136.968 239.971 136.998 239.392 137.102C238.128 137.331 236.631 137.827 235.242 138.44C236.866 138.748 238.592 138.991 240.326 139.115C239.968 140.037 239.728 140.605 239.728 140.605C239.467 140.607 239.212 140.61 238.957 140.607C238.957 140.607 239.101 145.658 237.683 154.186C237.637 154.467 237.595 154.746 237.559 155.027C238.635 153.617 240.036 152.39 241.556 151.221C244.52 148.942 246.518 146.963 246.615 142.995ZM275.174 131.598C274.358 130.958 273.346 130.462 272.345 130.06C271.986 129.911 271.626 129.778 271.276 129.653C267.501 128.297 263.951 128.22 260.819 125.344C257.766 122.542 256.084 118.326 256.621 114.113C256.83 112.466 257.456 110.663 258.453 109.288C258.242 109.276 258.026 109.278 257.815 109.299C257.54 109.316 257.261 109.359 256.991 109.421L249.378 111.152C248.883 112.261 248.453 113.4 248.313 114.643C247.889 118.359 249.561 122.972 252.578 125.245C256.382 128.108 260.584 130.453 263.84 133.945C267.731 138.129 266.709 143.957 265.513 149.046C264.756 152.274 263.065 156.543 264.281 159.816C265.325 162.615 267.102 164.443 269.409 165.431L269.319 156.486C269.306 155.14 269.411 153.799 269.638 152.471L271.232 143.028L271.594 140.888C271.714 140.195 271.806 139.501 271.872 138.799L271.877 138.799C272.766 137.892 274.807 135.347 276.558 133.106C276.181 132.545 275.729 132.034 275.174 131.598ZM271.93 125.822C272.136 125.854 272.343 125.877 272.549 125.894C273.861 126.008 275.206 125.931 276.481 126.247C277.135 126.412 277.761 126.652 278.359 126.95L274.562 119.957C273.637 118.257 272.253 116.853 270.564 115.902L262.738 111.051C260.885 114.276 261.232 118.52 263.851 121.65C266.072 124.299 268.523 125.326 271.93 125.822ZM238.351 122.319C237.18 121.61 235.008 120.345 233.558 118.793C232.744 119.876 232.068 121.061 231.555 122.319L229.375 127.653C231.013 129.91 233.798 131.566 236.202 132.313C238.143 132.912 240.221 133.044 242.222 133.407C243.221 133.589 244.196 133.824 245.127 134.207C247.794 135.29 250.06 137.958 251.229 140.529C252.56 143.451 252.621 147.605 251.167 150.477C249.776 153.236 247.204 154.828 245.263 157.106C243.24 159.483 241.573 161.743 240.961 164.867C240.611 166.662 240.632 168.259 240.985 169.723L242.855 169.557C243.193 169.524 243.513 169.623 243.765 169.808C243.956 169.751 248.486 168.533 257.198 168.244C254.351 162.896 256.305 154.991 258.088 149.809C260.24 143.561 259.443 136.529 254.7 131.592C250.24 126.952 243.681 125.535 238.351 122.319Z" fill="#FF654B"/>
<path d="M235.242 138.44C230.092 137.485 225.972 135.965 225.972 135.965L225.421 137.316C225.192 137.878 225.458 138.518 226.025 138.743C226.405 138.892 226.897 139.068 227.513 139.244L227.513 139.249C228.635 139.576 230.171 139.929 232.172 140.189C232.624 140.253 233.101 140.307 233.602 140.356C234.924 140.486 236.423 140.574 238.107 140.601C238.382 140.603 238.667 140.605 238.956 140.607C239.212 140.609 239.467 140.606 239.727 140.604C239.727 140.604 239.968 140.037 240.326 139.115C238.591 138.991 236.866 138.748 235.242 138.44Z" fill="#BC1B1B"/>
<path d="M244.317 99.8851C245.058 99.9048 245.781 99.7315 246.329 99.3349C246.862 98.9169 247.211 98.2956 247.373 97.6267C247.502 96.9773 247.56 96.2233 247.272 95.6259C247.001 95.0116 246.351 94.6087 245.643 94.4115C246.014 94.4125 246.387 94.4958 246.742 94.6535C247.091 94.8208 247.409 95.0922 247.609 95.4445C247.821 95.7896 247.914 96.1934 247.944 96.5802C247.96 96.7756 247.934 96.9666 247.93 97.1606C247.929 97.3506 247.897 97.56 247.849 97.7457C247.659 98.4963 247.226 99.2253 246.543 99.6504C245.849 100.064 245.023 100.092 244.317 99.8851Z" fill="#C46627"/>
<path d="M280.959 144.983C280.506 145.642 280.075 146.305 279.641 146.963C279.239 147.643 278.795 148.296 278.386 148.966C277.578 150.317 276.854 151.705 276.197 153.161C276.484 151.582 277.155 150.092 277.965 148.715C278.39 148.036 278.858 147.386 279.33 146.741C279.824 146.111 280.363 145.517 280.959 144.983Z" fill="#C46627"/>
<path d="M262.824 177.442C263.012 179.537 262.908 181.654 262.641 183.745C262.377 185.839 261.88 187.902 261.202 189.906C260.496 191.898 259.579 193.828 258.383 195.576C258.097 196.016 257.734 196.431 257.483 196.851C257.224 197.29 257.105 197.768 257.06 198.297C256.913 199.335 256.784 200.376 256.622 201.415C256.673 200.366 256.755 199.319 256.82 198.27C256.836 197.753 256.95 197.182 257.21 196.703C257.334 196.457 257.498 196.233 257.641 196.023C257.786 195.807 257.93 195.589 258.067 195.369C259.176 193.609 260.078 191.718 260.739 189.744C261.444 187.785 261.928 185.749 262.269 183.69C262.443 182.661 262.578 181.623 262.665 180.581C262.769 179.539 262.818 178.492 262.824 177.442Z" fill="#002F68"/>
<path d="M275.116 168.339C274.434 168.205 273.815 167.987 273.191 167.792C272.565 167.588 271.972 167.391 271.295 167.26L271.29 167.258L271.295 167.255C271.619 167.116 271.982 167.096 272.328 167.119C272.678 167.139 273.015 167.224 273.343 167.325C273.669 167.434 273.984 167.567 274.282 167.736C274.579 167.903 274.866 168.093 275.116 168.339Z" fill="#C46627"/>
<path d="M242.029 172.343C241.666 172.438 241.3 172.502 240.935 172.582C240.562 172.648 240.216 172.71 239.891 172.846C239.729 172.912 239.574 172.991 239.423 173.079L238.942 173.361L237.969 173.908C237.639 174.077 237.328 174.276 236.943 174.413C236.569 174.541 236.174 174.615 235.781 174.608C235.382 174.608 235.016 174.521 234.651 174.461C234.286 174.383 233.919 174.322 233.555 174.23C233.93 174.211 234.302 174.225 234.675 174.221C235.05 174.224 235.423 174.258 235.766 174.225C236.116 174.189 236.46 174.114 236.779 173.978C237.093 173.856 237.411 173.652 237.738 173.476L238.721 172.954L239.218 172.702C239.392 172.612 239.578 172.539 239.767 172.485C240.143 172.366 240.544 172.352 240.909 172.345C241.281 172.345 241.654 172.328 242.029 172.343Z" fill="#C46627"/>
<path d="M258.768 84.3969C258.133 84.1973 257.647 83.6818 257.518 83.0294C256.663 78.5849 252.71 77.4855 251.067 77.2219C250.619 77.1481 250.344 77.1357 250.344 77.1357C247.242 76.7246 244.907 76.9157 243.159 77.4041C240.304 78.1886 238.994 79.763 238.416 80.82C238.084 81.4419 237.995 81.8802 237.995 81.8802C237.995 81.8802 236.972 85.6905 238.917 86.1867C239.157 86.2433 239.453 86.2547 239.795 86.1978C239.795 86.1978 242.181 85.1722 242.194 86.4587L240.807 90.145C240.64 90.5937 240.689 91.0984 240.944 91.5037L241.528 92.4405C241.737 92.7721 241.859 93.1588 241.877 93.5513L241.947 95.0384C241.96 95.3767 242.1 95.685 242.319 95.9134C242.542 96.1467 242.843 96.2961 243.177 96.3271C243.845 96.389 244.46 95.951 244.62 95.3013L244.677 95.0653C244.786 94.6324 245.199 94.3481 245.642 94.4123C246.474 94.5364 247.676 95.0009 247.717 96.6743L247.722 96.6742C247.916 96.9716 248.385 98.204 248.617 98.8307C248.708 99.07 248.75 99.325 248.762 99.5803C248.828 101.156 249.184 102.454 249.552 103.392C249.748 103.897 250.032 104.345 250.4 104.724C251.04 105.41 251.913 105.863 252.882 105.961C253.226 105.997 253.555 105.993 253.868 105.961C254.668 105.884 255.357 105.617 255.904 105.317C256.027 105.247 256.149 105.172 256.26 105.088C256.894 104.625 257.354 103.958 257.542 103.185C257.801 102.107 258.366 100.613 258.793 99.5588C259.051 98.9128 259.364 98.2911 259.781 97.7322C260.057 97.3615 260.313 96.9319 260.549 96.4873C261.118 95.4209 261.553 94.2527 261.801 93.5383C261.958 93.0802 262.067 92.6026 262.12 92.1215C262.786 86.5316 260.291 84.8821 258.768 84.3969Z" fill="#103772"/>
<path d="M260.61 96.3693L260.61 96.3629C260.663 94.2113 260.358 92.1304 259.713 90.3162C259.345 89.2679 258.606 88.2297 257.531 87.2427C257.347 87.069 257.143 86.9162 256.953 86.7768C256.552 86.4775 256.171 86.1916 255.938 85.7286C255.525 84.9234 255.354 84.0487 255.191 83.2075C254.964 82.0293 254.729 80.8184 253.862 79.7479C253.131 78.8517 252.124 77.904 251.214 77.2523L250.93 77.208C250.964 77.2276 250.997 77.248 251.032 77.2748C252.153 78.0594 253.174 79.1075 253.768 79.8303C254.615 80.8738 254.849 82.0719 255.07 83.2294C255.24 84.0842 255.411 84.966 255.824 85.784C256.072 86.274 256.466 86.5662 256.88 86.8725C257.071 87.0191 257.268 87.1656 257.451 87.3321C258.513 88.3128 259.238 89.3304 259.599 90.3588C260.251 92.1865 260.556 94.3074 260.49 96.4863C260.49 96.527 260.484 96.5669 260.485 96.6076L260.485 96.614L260.61 96.3693ZM253.949 105.951C255.687 103.115 256.59 99.0061 256.186 95.7057C255.878 93.1937 255.276 90.3399 253.117 88.2376C252.947 88.0637 252.784 87.9169 252.634 87.7771C251.939 87.1296 251.517 86.7427 251.318 85.6863C251.283 85.4975 251.247 85.3095 251.211 85.1279C250.897 83.4046 250.57 81.6279 249.175 80.4343C247.665 79.1276 245.895 78.1748 243.778 77.5144C243.602 77.4555 243.44 77.41 243.284 77.3709L243.042 77.4411C243.076 77.4472 243.11 77.454 243.144 77.4673C243.334 77.5061 243.53 77.5648 243.739 77.6297C245.843 78.2831 247.592 79.2297 249.095 80.5301C250.455 81.6969 250.776 83.4537 251.09 85.1498C251.126 85.3387 251.162 85.5203 251.197 85.7083C251.404 86.8053 251.84 87.2056 252.554 87.8657C252.704 88.0055 252.86 88.1524 253.038 88.3262C254.229 89.4876 255.522 91.2817 256.066 95.7205C256.47 99.0073 255.56 103.109 253.814 105.926C253.808 105.94 253.795 105.954 253.788 105.967L253.949 105.951ZM250.45 104.772C250.45 104.766 250.45 104.759 250.457 104.752C252.3 100.978 252.357 96.5463 250.629 92.2814C250.2 91.2473 249.74 90.429 248.871 89.7903C248.715 89.6842 248.538 89.5917 248.362 89.5057C248.037 89.3469 247.705 89.1882 247.526 88.8668C247.231 88.3573 247.271 87.5747 247.304 86.8257C247.326 86.2994 247.348 85.8067 247.269 85.4029C246.937 83.8346 245.832 81.8702 244.103 81.0175C242.572 80.2642 240.695 80.121 238.825 80.6123C238.738 80.6331 238.623 80.675 238.463 80.7372L238.456 80.7572L238.377 80.9065C238.396 80.8927 238.417 80.8861 238.437 80.8788C238.632 80.8026 238.76 80.7606 238.854 80.7325C240.703 80.2486 242.546 80.385 244.05 81.1258C245.744 81.9653 246.822 83.89 247.148 85.4304C247.226 85.8144 247.203 86.2999 247.182 86.8189C247.142 87.5879 247.109 88.3841 247.418 88.9269C247.617 89.2753 247.969 89.4474 248.309 89.6196C248.485 89.7056 248.654 89.7845 248.797 89.8909C249.653 90.5096 250.085 91.2803 250.514 92.328C252.229 96.5523 252.172 100.93 250.354 104.67L250.45 104.772Z" fill="#0F55BA"/>
<path d="M272.345 130.06C272.378 131.694 272.312 133.324 272.221 134.952C272.139 136.58 271.985 138.203 271.817 139.824C271.632 141.443 271.424 143.061 271.147 144.668C270.872 146.276 270.563 147.88 270.147 149.46C270.193 148.643 270.294 147.836 270.348 147.022L270.588 144.594C270.733 142.974 270.921 141.36 271.089 139.744C271.274 138.129 271.447 136.513 271.662 134.901L271.976 132.48C272.105 131.673 272.205 130.865 272.345 130.06Z" fill="#840606"/>
<path d="M239.727 140.604C240.034 138.836 240.553 137.14 241.122 135.461C241.713 133.79 242.355 132.137 243.21 130.558C242.904 132.327 242.385 134.023 241.814 135.701C241.223 137.371 240.581 139.024 239.727 140.604Z" fill="#840606"/>
</svg>
