<svg width="396" height="279" viewBox="0 0 396 279" fill="none" xmlns="http://www.w3.org/2000/svg">
<path d="M271.739 81.6392C271.739 81.6392 278.093 63.5585 302.382 74.1128C326.672 84.6672 347.574 68.0672 353.527 78.3969C359.323 88.4523 336.076 100.184 342.338 117.156C346.817 129.295 382.371 127.29 372.154 149.261C361.939 171.232 316.912 166.719 313.029 164.701C309.145 162.683 275.947 138.328 275.947 138.328L271.739 81.6392Z" fill="#D4E1FF"/>
<path d="M55.3901 146.846C55.3901 146.846 31.9733 114.266 48.6472 102.717C73.3688 85.5929 93.8541 150 133.245 143.161C172.635 136.321 187.134 141.538 194.704 161.3C202.275 181.064 201.765 202.894 231.674 205.437C261.584 207.981 270.672 224.765 270.672 224.765H57.5588L55.3901 146.846Z" fill="#D4E1FF"/>
<path d="M80.9727 194.03C80.9727 194.03 81.3845 165.94 65.2001 137.753C50.3683 111.918 27.1265 109.829 27.1265 109.829C27.1265 109.829 36.7991 114.042 41.1992 148.152C43.7358 167.813 47.3431 186.228 56.5365 197.55C68.4144 212.179 80.3044 207.062 80.9727 194.03Z" fill="#0E4F77"/>
<path d="M71.5358 200.685C71.5358 200.685 71.4731 199.164 71.2607 196.51C71.0276 193.858 70.7234 190.064 70.1262 185.535C69.5272 181.009 68.7943 175.725 67.6795 170.119C66.5676 164.513 65.1785 158.565 63.388 152.715C62.4594 149.801 61.4149 146.919 60.2262 144.142C59.0683 141.352 57.6119 138.721 56.2425 136.241C54.8451 133.743 53.3568 131.384 51.8836 129.214C50.4038 127.042 48.8996 125.061 47.4516 123.282C45.969 121.529 44.5453 119.977 43.1685 118.716C41.8253 117.423 40.5346 116.426 39.4572 115.637C38.3659 114.861 37.4392 114.359 36.8009 114.04C36.1532 113.735 35.7891 113.622 35.7891 113.622C35.7891 113.622 36.1438 113.762 36.7634 114.111C37.3775 114.47 38.2433 115.052 39.2841 115.869C40.3071 116.708 41.5249 117.76 42.78 119.109C44.0661 120.427 45.3812 122.04 46.7983 123.805C48.1695 125.611 49.5885 127.615 50.9785 129.811C52.3712 132.01 53.7228 134.376 55.1044 136.855C56.4616 139.379 57.8356 141.924 58.9438 144.682C60.0792 147.421 61.0789 150.273 61.9634 153.162C63.7961 158.922 65.2441 164.814 66.4112 170.377C67.5709 175.941 68.5781 181.159 69.2969 185.656C70.0251 190.152 70.6214 193.904 70.9742 196.541C71.3299 199.179 71.5358 200.685 71.5358 200.685Z" fill="white"/>
<path d="M68.7383 182.355C68.7383 182.355 68.6082 181.947 68.2815 181.273C67.9511 180.602 67.4382 179.657 66.6996 178.603C66.3309 178.076 65.9172 177.516 65.452 176.944C65.0074 176.354 64.4795 175.783 63.945 175.181C63.3787 174.612 62.819 173.994 62.1928 173.428C61.5619 172.868 60.947 172.267 60.2759 171.735C59.6076 171.199 58.9514 170.648 58.2625 170.162C57.5821 169.666 56.9166 169.17 56.237 168.745C55.5669 168.306 54.9098 167.895 54.2808 167.517C53.6415 167.158 53.0369 166.818 52.479 166.505C51.9286 166.179 51.4035 165.918 50.929 165.703C50.46 165.481 50.051 165.287 49.7141 165.127C49.0355 164.819 48.6479 164.643 48.6479 164.643C48.6479 164.643 49.0018 164.881 49.6205 165.296C50.2401 165.708 51.1452 166.261 52.1898 166.984C52.7158 167.338 53.2858 167.721 53.8886 168.127C54.4764 168.552 55.0961 169 55.7372 169.464C56.3943 169.904 57.013 170.44 57.6832 170.928C58.3552 171.415 58.9908 171.966 59.6413 172.499C60.3086 173.013 60.917 173.592 61.5442 174.133C62.16 174.685 62.746 175.25 63.3198 175.79C63.8561 176.364 64.4289 176.874 64.9063 177.415C65.4061 177.939 65.8544 178.454 66.2569 178.941C67.0525 179.919 67.719 180.744 68.1158 181.369C68.5286 181.982 68.7383 182.355 68.7383 182.355Z" fill="white"/>
<path d="M65.1383 164.7C65.1383 164.7 64.9267 164.415 64.5177 163.949C64.1002 163.493 63.5078 162.832 62.7384 162.098C61.9671 161.368 61.0451 160.535 60.0024 159.713C58.9728 158.872 57.8169 158.052 56.6525 157.245C55.4684 156.467 54.2666 155.717 53.1107 155.065C51.9482 154.425 50.8521 153.848 49.8861 153.408C48.9352 152.939 48.1003 152.633 47.534 152.389C46.9611 152.156 46.6279 152.036 46.6279 152.036C46.6279 152.036 46.9218 152.235 47.446 152.562C47.9739 152.882 48.7218 153.347 49.6138 153.91C50.5058 154.468 51.5457 155.118 52.6604 155.815C53.7602 156.533 54.9405 157.284 56.0984 158.069C58.4215 159.627 60.6885 161.265 62.3696 162.531C63.2026 163.172 63.9112 163.696 64.3848 164.09C64.864 164.478 65.1383 164.7 65.1383 164.7Z" fill="white"/>
<path d="M61.3624 151.271C61.3624 151.271 61.1312 151.05 60.7035 150.691C60.2701 150.341 59.6636 149.82 58.8951 149.252C57.3695 148.1 55.2466 146.685 53.0273 145.43C51.9154 144.808 50.7903 144.207 49.7083 143.698C48.6328 143.177 47.607 142.735 46.715 142.39C45.8286 142.031 45.0657 141.791 44.5369 141.615C44.0062 141.441 43.6982 141.356 43.6982 141.356C43.6982 141.356 43.9725 141.523 44.4601 141.791C44.9543 142.046 45.6395 142.449 46.4725 142.906C48.1358 143.824 50.3448 145.045 52.5378 146.295C54.7365 147.543 56.9352 148.792 58.5835 149.729C60.2514 150.653 61.3624 151.271 61.3624 151.271Z" fill="white"/>
<path d="M56.3435 138.328C56.3435 138.328 56.1394 138.138 55.7557 137.84C55.3682 137.549 54.8187 137.123 54.1233 136.668C53.4334 136.203 52.6032 135.704 51.6981 135.196C50.793 134.689 49.8055 134.192 48.8087 133.714C46.8066 132.777 44.7474 131.97 43.1674 131.465C42.384 131.196 41.7072 131.035 41.2449 130.894C40.7778 130.765 40.5063 130.705 40.5063 130.705C40.5063 130.705 40.746 130.848 41.1737 131.075C41.6024 131.297 42.2145 131.614 42.9502 131.994C43.6878 132.365 44.5517 132.787 45.4793 133.231C46.4069 133.672 47.3962 134.143 48.3856 134.614C52.3655 136.47 56.3435 138.328 56.3435 138.328Z" fill="white"/>
<path d="M49.2273 127.167C49.2273 127.167 48.6217 126.564 47.593 125.826C46.5718 125.077 45.1295 124.196 43.6122 123.46C42.8503 123.099 42.079 122.756 41.3368 122.484C40.5973 122.204 39.8944 121.973 39.2804 121.815C38.6711 121.643 38.1516 121.539 37.7856 121.476C37.4196 121.417 37.21 121.384 37.21 121.384C37.21 121.384 37.3962 121.486 37.722 121.664C38.0496 121.829 38.5166 122.065 39.0782 122.349C40.1967 122.895 41.6887 123.625 43.1798 124.353C44.6727 125.07 46.1684 125.79 47.3066 126.315C48.441 126.843 49.2273 127.167 49.2273 127.167Z" fill="white"/>
<path d="M70.189 186.024C70.189 186.024 70.6429 185.641 71.2279 185.008C71.8185 184.379 72.543 183.5 73.2225 182.589C73.8946 181.673 74.5226 180.726 74.9579 179.982C75.3978 179.243 75.6421 178.702 75.6421 178.702C75.6421 178.702 75.1432 179.027 74.5133 179.625C73.8759 180.217 73.1083 181.077 72.4241 181.999C71.7437 182.924 71.1484 183.908 70.7618 184.685C70.3677 185.456 70.189 186.024 70.189 186.024Z" fill="white"/>
<path d="M68.2598 175.763C68.2598 175.763 68.7371 175.244 69.353 174.417C69.9755 173.592 70.742 172.461 71.4712 171.311C72.1928 170.156 72.8799 168.984 73.3881 168.097C73.9038 167.201 74.2474 166.604 74.2474 166.604C74.2474 166.604 73.6474 166.987 72.9313 167.754C72.2059 168.51 71.3663 169.617 70.6307 170.782C69.8987 171.951 69.2688 173.177 68.8616 174.132C68.447 175.083 68.2598 175.763 68.2598 175.763Z" fill="white"/>
<path d="M65.5088 160.379C65.5088 160.379 65.8963 159.992 66.3774 159.364C66.8641 158.74 67.4529 157.879 67.9995 157C68.5405 156.117 69.045 155.217 69.4138 154.527C69.7844 153.841 70.0231 153.349 70.0231 153.349C70.0231 153.349 69.5373 153.615 68.9589 154.181C68.3739 154.739 67.7112 155.58 67.1543 156.478C66.6011 157.38 66.149 158.338 65.8794 159.09C65.6024 159.837 65.5088 160.379 65.5088 160.379Z" fill="white"/>
<path d="M61.6406 148.216C61.6406 148.216 61.9935 147.866 62.4184 147.298C62.8509 146.733 63.3629 145.954 63.8374 145.16C64.3045 144.362 64.7369 143.551 65.0608 142.936C65.3809 142.324 65.627 141.896 65.627 141.896C65.627 141.896 65.1506 142.078 64.6124 142.584C64.0649 143.076 63.4686 143.838 62.9828 144.656C62.5008 145.476 62.1273 146.352 61.9139 147.038C61.694 147.721 61.6406 148.216 61.6406 148.216Z" fill="white"/>
<path d="M55.2981 134.835C55.2981 134.835 55.5686 134.542 55.8626 134.072C56.1639 133.604 56.4944 132.961 56.7705 132.299C57.04 131.635 57.26 130.953 57.3864 130.415C57.5202 129.884 57.5577 129.486 57.5577 129.486C57.5577 129.486 57.23 129.717 56.8762 130.161C56.5159 130.599 56.1349 131.241 55.8523 131.921C55.5752 132.604 55.3946 133.322 55.3281 133.88C55.2542 134.436 55.2981 134.835 55.2981 134.835Z" fill="white"/>
<path d="M70.1732 191.154C70.1732 191.154 69.9279 190.895 69.4693 190.472C69.0051 190.057 68.3545 189.446 67.5243 188.776C65.8769 187.416 63.5669 185.741 61.1267 184.267C59.9043 183.535 58.6632 182.832 57.4642 182.241C56.8736 181.928 56.2857 181.659 55.726 181.409C55.17 181.152 54.6403 180.919 54.1404 180.728C53.1539 180.317 52.304 180.043 51.7124 179.847C51.1209 179.653 50.7783 179.555 50.7783 179.555C50.7783 179.555 51.0881 179.735 51.6376 180.025C52.1945 180.298 52.9658 180.736 53.8971 181.244C55.7569 182.26 58.2074 183.65 60.6138 185.116C61.8278 185.831 63.0137 186.593 64.1397 187.287C65.2564 188 66.2981 188.664 67.1911 189.234C68.9798 190.387 70.1732 191.154 70.1732 191.154Z" fill="white"/>
<path d="M85.7424 213.863C85.7424 213.863 78.2984 186.775 54.8919 164.224C33.4397 143.555 10.5386 137.649 10.5386 137.649C10.5386 137.649 21.0021 149.381 34.7463 180.908C42.6696 199.081 51.2724 215.757 63.2597 224.064C78.7477 234.795 88.7367 226.564 85.7424 213.863Z" fill="#62C1C5"/>
<path d="M78.5371 222.887C78.5371 222.887 78.0522 221.444 77.1078 218.954C76.1437 216.473 74.7931 212.913 72.9557 208.732C71.1174 204.553 68.9393 199.684 66.3036 194.611C63.6715 189.539 60.6782 184.214 57.3255 179.097C55.621 176.558 53.8136 174.082 51.8967 171.747C50.0069 169.391 47.8728 167.271 45.8669 165.273C43.8283 163.263 41.7411 161.414 39.7202 159.742C37.6938 158.069 35.6954 156.587 33.8085 155.283C31.8962 154.014 30.0953 152.92 28.4218 152.094C26.7707 151.227 25.2534 150.629 23.9982 150.173C22.7337 149.733 21.7032 149.51 21.0012 149.382C20.2945 149.269 19.9126 149.262 19.9126 149.262C19.9126 149.262 20.2926 149.297 20.9843 149.46C21.6742 149.633 22.6672 149.951 23.8953 150.444C25.1121 150.963 26.5741 151.634 28.1569 152.58C29.7603 153.487 31.4731 154.668 33.3264 155.968C35.1469 157.32 37.0695 158.848 39.0164 160.569C40.9679 162.292 42.926 164.187 44.944 166.182C46.9518 168.227 48.981 170.288 50.8146 172.626C52.6698 174.939 54.4248 177.399 56.0806 179.926C59.4483 184.946 62.4828 190.2 65.156 195.216C67.8227 200.235 70.2451 204.964 72.191 209.082C74.1444 213.196 75.7647 216.633 76.8392 219.066C77.9193 221.498 78.5371 222.887 78.5371 222.887Z" fill="white"/>
<path d="M70.7358 206.066C70.7358 206.066 70.4971 205.71 69.9945 205.155C69.4899 204.603 68.7337 203.839 67.7303 203.033C67.2295 202.63 66.6754 202.207 66.0689 201.787C65.4773 201.344 64.8109 200.944 64.1295 200.515C63.4265 200.127 62.7171 199.69 61.958 199.32C61.1961 198.958 60.4379 198.553 59.6451 198.229C58.8542 197.902 58.0698 197.556 57.2723 197.281C56.4805 196.995 55.7036 196.704 54.9314 196.486C54.1648 196.251 53.4198 196.039 52.7103 195.852C51.9961 195.685 51.3203 195.528 50.6969 195.383C50.0773 195.224 49.5007 195.119 48.985 195.046C48.4721 194.963 48.0256 194.891 47.6568 194.831C46.9192 194.724 46.498 194.663 46.498 194.663C46.498 194.663 46.9043 194.793 47.6147 195.019C48.3251 195.242 49.3482 195.52 50.5528 195.923C51.1565 196.116 51.8108 196.326 52.5034 196.547C53.1867 196.791 53.9065 197.048 54.6515 197.315C55.406 197.554 56.1491 197.895 56.9288 198.178C57.7095 198.458 58.4742 198.81 59.2473 199.14C60.0317 199.447 60.7777 199.834 61.5302 200.179C62.2762 200.537 62.996 200.916 63.698 201.274C64.3738 201.677 65.0655 202.005 65.6748 202.393C66.3001 202.756 66.8748 203.126 67.3971 203.481C68.4332 204.198 69.3037 204.804 69.8597 205.293C70.4306 205.767 70.7358 206.066 70.7358 206.066Z" fill="white"/>
<path d="M62.3519 190.117C62.3519 190.117 62.0692 189.903 61.546 189.57C61.0181 189.248 60.2637 188.779 59.3202 188.288C58.3758 187.802 57.2582 187.26 56.0274 186.761C54.804 186.241 53.4646 185.776 52.1224 185.325C50.768 184.908 49.4052 184.524 48.1125 184.219C46.8171 183.929 45.6041 183.68 44.5539 183.529C43.5093 183.344 42.6229 183.283 42.0108 183.207C41.3958 183.143 41.042 183.121 41.042 183.121C41.042 183.121 41.3799 183.23 41.9752 183.397C42.5714 183.557 43.4194 183.795 44.4322 184.087C45.444 184.373 46.6252 184.708 47.8898 185.067C49.1459 185.448 50.489 185.841 51.82 186.271C54.4858 187.118 57.1197 188.058 59.0871 188.806C60.0662 189.189 60.8927 189.494 61.4571 189.74C62.0271 189.981 62.3519 190.117 62.3519 190.117Z" fill="white"/>
<path d="M54.979 178.276C54.979 178.276 54.6954 178.128 54.1843 177.903C53.6705 177.688 52.9432 177.357 52.0465 177.026C50.2597 176.346 47.8261 175.579 45.3457 174.992C44.1046 174.706 42.8559 174.442 41.6747 174.256C40.4963 174.055 39.3881 173.917 38.4352 173.834C37.4833 173.736 36.6839 173.719 36.127 173.697C35.5692 173.679 35.25 173.683 35.25 173.683C35.25 173.683 35.5598 173.767 36.1027 173.889C36.6484 173.996 37.4196 174.191 38.3463 174.397C40.1996 174.815 42.6612 175.371 45.1164 175.958C47.5762 176.544 50.036 177.129 51.8808 177.569C53.7388 177.993 54.979 178.276 54.979 178.276Z" fill="white"/>
<path d="M46.5477 167.247C46.5477 167.247 46.2987 167.122 45.8475 166.943C45.3945 166.771 44.7477 166.515 43.9531 166.272C43.1612 166.019 42.2243 165.771 41.2143 165.536C40.2044 165.301 39.1167 165.1 38.0263 164.918C35.8426 164.578 33.6393 164.377 31.9816 164.333C31.1542 164.292 30.4588 164.328 29.9758 164.321C29.4919 164.328 29.2139 164.345 29.2139 164.345C29.2139 164.345 29.4834 164.416 29.958 164.514C30.4316 164.607 31.1083 164.74 31.9198 164.9C32.7323 165.05 33.6786 165.215 34.6932 165.382C35.7069 165.547 36.7889 165.723 37.87 165.899C42.2084 166.573 46.5477 167.247 46.5477 167.247Z" fill="white"/>
<path d="M36.5988 158.516C36.5988 158.516 35.8491 158.106 34.6548 157.684C33.4651 157.25 31.8337 156.807 30.1713 156.523C29.3392 156.389 28.5034 156.275 27.7134 156.221C26.9253 156.159 26.1858 156.134 25.5522 156.154C24.9194 156.158 24.3906 156.203 24.0218 156.245C23.654 156.291 23.4434 156.317 23.4434 156.317C23.4434 156.317 23.6502 156.363 24.0124 156.443C24.3728 156.51 24.8876 156.607 25.5063 156.723C26.7334 156.935 28.3686 157.219 30.0047 157.502C31.639 157.774 33.276 158.048 34.5153 158.235C35.7536 158.424 36.5988 158.516 36.5988 158.516Z" fill="white"/>
<path d="M73.1533 209.184C73.1533 209.184 73.4828 208.69 73.8675 207.919C74.2597 207.15 74.7099 206.103 75.1077 205.039C75.498 203.972 75.8359 202.887 76.0465 202.051C76.2627 201.219 76.346 200.63 76.346 200.63C76.346 200.63 75.9576 201.082 75.5195 201.832C75.0731 202.578 74.576 203.619 74.1754 204.694C73.7804 205.772 73.4828 206.884 73.3284 207.737C73.1664 208.589 73.1533 209.184 73.1533 209.184Z" fill="white"/>
<path d="M68.4367 199.869C68.4367 199.869 68.7503 199.239 69.1106 198.272C69.4785 197.307 69.8987 196.006 70.2778 194.698C70.6485 193.388 70.9808 192.071 71.2213 191.076C71.4665 190.071 71.6294 189.402 71.6294 189.402C71.6294 189.402 71.1595 189.937 70.6869 190.874C70.2011 191.803 69.7041 193.1 69.3222 194.425C68.9459 195.751 68.6829 197.104 68.5584 198.135C68.4264 199.164 68.4367 199.869 68.4367 199.869Z" fill="white"/>
<path d="M61.5022 185.865C61.5022 185.865 61.7662 185.384 62.0526 184.647C62.3465 183.912 62.6713 182.922 62.9512 181.925C63.2235 180.926 63.4575 179.921 63.6195 179.156C63.7842 178.395 63.8759 177.855 63.8759 177.855C63.8759 177.855 63.4837 178.245 63.0869 178.951C62.6807 179.65 62.2791 180.641 61.9946 181.661C61.7156 182.681 61.5481 183.727 61.4985 184.524C61.4405 185.318 61.5022 185.865 61.5022 185.865Z" fill="white"/>
<path d="M54.393 175.265C54.393 175.265 54.6336 174.829 54.8844 174.166C55.1428 173.503 55.4161 172.611 55.6501 171.717C55.8766 170.821 56.0647 169.921 56.2033 169.24C56.3399 168.562 56.456 168.083 56.456 168.083C56.456 168.083 56.0498 168.39 55.6735 169.026C55.285 169.651 54.9256 170.549 54.6869 171.47C54.4529 172.393 54.3387 173.338 54.3256 174.056C54.306 174.773 54.393 175.265 54.393 175.265Z" fill="white"/>
<path d="M44.569 164.184C44.569 164.184 44.7468 163.828 44.8985 163.294C45.0576 162.762 45.1952 162.051 45.2757 161.339C45.3496 160.626 45.3702 159.91 45.3412 159.357C45.3215 158.809 45.2457 158.417 45.2457 158.417C45.2457 158.417 44.9958 158.73 44.7796 159.255C44.5559 159.777 44.3687 160.5 44.2873 161.232C44.2124 161.965 44.2386 162.705 44.3303 163.26C44.4146 163.815 44.569 164.184 44.569 164.184Z" fill="white"/>
<path d="M74.5696 214.115C74.5696 214.115 74.2617 213.935 73.7038 213.657C73.1422 213.388 72.3476 212.983 71.362 212.571C69.401 211.725 66.7147 210.761 63.9601 210.027C62.5823 209.665 61.1942 209.336 59.8772 209.103C59.223 208.968 58.5837 208.874 57.9762 208.79C57.3706 208.698 56.7969 208.622 56.2633 208.579C55.201 208.459 54.308 208.433 53.6856 208.41C53.0632 208.389 52.7065 208.391 52.7065 208.391C52.7065 208.391 53.0538 208.477 53.6622 208.602C54.2734 208.709 55.1364 208.915 56.1716 209.142C58.242 209.599 60.9826 210.25 63.7027 210.986C65.0683 211.334 66.4199 211.735 67.6947 212.087C68.9658 212.459 70.1517 212.807 71.1682 213.104C73.2096 213.712 74.5696 214.115 74.5696 214.115Z" fill="white"/>
<path d="M80.0592 205.378C80.0592 205.378 65.131 187.404 39.6624 178.34C16.3204 170.034 0.503906 170.893 0.503906 170.893C0.503906 170.893 8.89421 178.713 30.118 197.889C42.3525 208.943 54.5888 218.629 66.52 220.814C81.9359 223.636 86.6833 213.974 80.0592 205.378Z" fill="#EFA748"/>
<path d="M66.0147 204.614C66.0147 204.614 65.7123 204.427 65.1404 204.178C64.5695 203.932 63.7336 203.612 62.6975 203.346C62.1799 203.213 61.6145 203.083 61.0117 202.972C60.4118 202.839 59.7697 202.764 59.1061 202.673C58.4406 202.62 57.7526 202.532 57.0506 202.512C56.3495 202.499 55.6363 202.453 54.924 202.479C54.2117 202.501 53.4985 202.508 52.8012 202.574C52.1029 202.629 51.414 202.674 50.7551 202.774C50.0942 202.859 49.4568 202.953 48.855 203.054C48.2569 203.173 47.6906 203.286 47.1683 203.389C46.6442 203.48 46.1715 203.599 45.755 203.72C45.3375 203.833 44.9743 203.931 44.6748 204.013C44.0795 204.185 43.7397 204.283 43.7397 204.283C43.7397 204.283 44.0917 204.242 44.7076 204.17C45.3216 204.095 46.193 203.956 47.2441 203.847C47.7683 203.786 48.3355 203.721 48.9355 203.652C49.5364 203.603 50.171 203.55 50.8271 203.497C51.4805 203.419 52.1609 203.424 52.848 203.37C53.5359 203.314 54.2351 203.319 54.9343 203.304C55.6335 203.269 56.3317 203.305 57.0206 203.308C57.7086 203.324 58.3835 203.364 59.0387 203.395C59.6882 203.468 60.3257 203.48 60.92 203.565C61.5191 203.625 62.0807 203.709 62.5983 203.799C63.6297 203.987 64.4965 204.147 65.0852 204.327C65.6815 204.492 66.0147 204.614 66.0147 204.614Z" fill="white"/>
<path d="M54.1949 195.403C54.1949 195.403 53.9075 195.338 53.3965 195.265C52.8854 195.202 52.1535 195.105 51.2708 195.057C50.3891 195.013 49.3557 194.985 48.2522 195.029C47.1468 195.054 45.973 195.161 44.8012 195.28C43.6321 195.429 42.4677 195.605 41.3838 195.817C40.3028 196.041 39.2984 196.269 38.4504 196.513C37.5958 196.732 36.9032 196.989 36.4127 197.142C35.9251 197.304 35.6499 197.408 35.6499 197.408C35.6499 197.408 35.9438 197.376 36.4511 197.298C36.9575 197.215 37.682 197.104 38.5496 196.978C39.4145 196.848 40.4244 196.697 41.5055 196.535C42.5885 196.394 43.7407 196.23 44.8966 196.101C47.2067 195.828 49.5252 195.637 51.2727 195.53C52.146 195.485 52.877 195.432 53.389 195.425C53.901 195.411 54.1949 195.403 54.1949 195.403Z" fill="white"/>
<path d="M44.5476 188.958C44.5476 188.958 44.2818 188.943 43.8175 188.948C43.3542 188.961 42.6887 188.959 41.8968 189.016C40.3094 189.114 38.2024 189.366 36.1217 189.773C35.0827 189.981 34.0466 190.21 33.0881 190.473C32.1269 190.724 31.2395 191 30.4889 191.264C29.7344 191.516 29.1223 191.777 28.6927 191.952C28.264 192.129 28.0234 192.242 28.0234 192.242C28.0234 192.242 28.2874 192.199 28.7404 192.105C29.1897 191.998 29.8421 191.883 30.6152 191.721C32.1624 191.402 34.2188 190.979 36.2808 190.583C38.3456 190.183 40.4095 189.784 41.9586 189.484C43.5114 189.169 44.5476 188.958 44.5476 188.958Z" fill="white"/>
<path d="M34.3769 183.493C34.3769 183.493 34.1457 183.483 33.7423 183.502C33.3398 183.527 32.7623 183.556 32.0762 183.644C31.3892 183.724 30.5946 183.857 29.7484 184.025C28.9023 184.194 28.0093 184.415 27.1211 184.651C25.3492 185.141 23.6111 185.744 22.34 186.279C21.6988 186.532 21.184 186.797 20.8162 186.958C20.4511 187.129 20.2471 187.238 20.2471 187.238C20.2471 187.238 20.4755 187.198 20.8686 187.11C21.2598 187.019 21.8177 186.888 22.4879 186.731C23.1543 186.567 23.9284 186.367 24.7548 186.145C25.5795 185.923 26.4593 185.686 27.3391 185.448C30.8585 184.469 34.3769 183.493 34.3769 183.493Z" fill="white"/>
<path d="M23.8449 180.287C23.8449 180.287 23.1364 180.233 22.0871 180.324C21.0369 180.403 19.6488 180.626 18.2916 180.981C17.6149 181.165 16.9429 181.364 16.326 181.595C15.7073 181.817 15.1392 182.052 14.6646 182.285C14.1863 182.505 13.8016 182.721 13.5368 182.879C13.2737 183.04 13.123 183.132 13.123 183.132C13.123 183.132 13.2962 183.095 13.5976 183.031C13.8943 182.959 14.3174 182.855 14.8256 182.732C15.8281 182.473 17.1647 182.126 18.5013 181.781C19.8332 181.427 21.167 181.073 22.1704 180.79C23.1729 180.507 23.8449 180.287 23.8449 180.287Z" fill="white"/>
<path d="M68.9159 206.148C68.9159 206.148 68.9964 205.66 69.0226 204.944C69.0554 204.227 69.0385 203.279 68.9749 202.336C68.9047 201.394 68.7895 200.456 68.6622 199.751C68.5406 199.046 68.402 198.572 68.402 198.572C68.402 198.572 68.2626 199.047 68.1877 199.766C68.1044 200.484 68.0847 201.443 68.1512 202.395C68.2214 203.347 68.3768 204.292 68.5527 204.991C68.7212 205.693 68.9159 206.148 68.9159 206.148Z" fill="white"/>
<path d="M62.1491 200.707C62.1491 200.707 62.1706 200.121 62.1116 199.265C62.0592 198.408 61.9319 197.278 61.7709 196.157C61.6025 195.036 61.4031 193.925 61.244 193.089C61.0858 192.244 60.98 191.681 60.98 191.681C60.98 191.681 60.8078 192.247 60.7704 193.12C60.7207 193.99 60.7881 195.143 60.9538 196.278C61.1232 197.412 61.3881 198.528 61.6474 199.35C61.8992 200.176 62.1491 200.707 62.1491 200.707Z" fill="white"/>
<path d="M52.0925 192.473C52.0925 192.473 52.1281 192.018 52.0925 191.362C52.0626 190.704 51.969 189.843 51.8398 188.991C51.7041 188.14 51.5366 187.299 51.3962 186.663C51.2604 186.03 51.1444 185.59 51.1444 185.59C51.1444 185.59 50.9815 186.02 50.9216 186.691C50.8533 187.361 50.8888 188.25 51.0227 189.118C51.1612 189.988 51.3933 190.837 51.6283 191.457C51.8585 192.08 52.0925 192.473 52.0925 192.473Z" fill="white"/>
<path d="M43.0711 186.877C43.0711 186.877 43.1038 186.466 43.0664 185.877C43.0346 185.286 42.9363 184.517 42.8071 183.759C42.6705 183.001 42.5057 182.255 42.3775 181.692C42.2483 181.132 42.1725 180.729 42.1725 180.729C42.1725 180.729 41.9694 181.101 41.903 181.712C41.8225 182.319 41.858 183.123 41.9928 183.903C42.1323 184.682 42.3691 185.438 42.6059 185.986C42.8361 186.536 43.0711 186.877 43.0711 186.877Z" fill="white"/>
<path d="M31.8269 181.85C31.8269 181.85 31.84 181.519 31.7717 181.063C31.7099 180.604 31.5704 180.019 31.387 179.452C31.1979 178.887 30.9686 178.336 30.758 177.928C30.5549 177.519 30.363 177.249 30.363 177.249C30.363 177.249 30.2816 177.573 30.2975 178.043C30.3068 178.515 30.4135 179.127 30.6026 179.71C30.7964 180.291 31.0706 180.842 31.3308 181.231C31.5835 181.623 31.8269 181.85 31.8269 181.85Z" fill="white"/>
<path d="M71.68 209.398C71.68 209.398 71.3852 209.368 70.8666 209.348C70.349 209.337 69.6077 209.303 68.7204 209.328C66.9448 209.359 64.5786 209.55 62.2395 209.939C61.0714 210.137 59.907 210.363 58.8297 210.639C58.2877 210.76 57.7701 210.908 57.2815 211.053C56.7911 211.191 56.3306 211.33 55.9112 211.48C55.0651 211.754 54.3799 212.04 53.9007 212.236C53.4215 212.434 53.1528 212.557 53.1528 212.557C53.1528 212.557 53.4458 212.503 53.9503 212.39C54.4501 212.262 55.1746 212.121 56.0366 211.939C57.7617 211.576 60.0614 211.129 62.3752 210.754C63.5293 210.549 64.6909 210.39 65.7776 210.219C66.868 210.066 67.8864 209.923 68.7588 209.799C70.511 209.559 71.68 209.398 71.68 209.398Z" fill="white"/>
<path d="M315.027 194.03C315.027 194.03 314.615 165.94 330.799 137.753C345.632 111.918 368.873 109.829 368.873 109.829C368.873 109.829 359.201 114.042 354.8 148.152C352.264 167.813 348.656 186.228 339.463 197.55C327.585 212.179 315.695 207.062 315.027 194.03Z" fill="#EFA748"/>
<path d="M324.463 200.685C324.463 200.685 324.526 199.164 324.739 196.51C324.972 193.858 325.276 190.064 325.873 185.535C326.472 181.009 327.205 175.725 328.32 170.119C329.432 164.513 330.821 158.565 332.611 152.715C333.54 149.801 334.584 146.919 335.773 144.142C336.931 141.352 338.387 138.721 339.757 136.241C341.154 133.743 342.642 131.384 344.116 129.214C345.595 127.042 347.1 125.061 348.548 123.282C350.029 121.529 351.454 119.977 352.831 118.716C354.174 117.423 355.465 116.426 356.543 115.637C357.634 114.861 358.561 114.359 359.199 114.04C359.847 113.735 360.211 113.622 360.211 113.622C360.211 113.622 359.856 113.762 359.237 114.111C358.623 114.47 357.757 115.052 356.716 115.869C355.693 116.708 354.475 117.76 353.22 119.109C351.934 120.427 350.619 122.04 349.202 123.805C347.831 125.611 346.412 127.615 345.022 129.811C343.629 132.01 342.277 134.376 340.896 136.855C339.54 139.379 338.165 141.924 337.056 144.682C335.921 147.421 334.921 150.273 334.037 153.162C332.204 158.922 330.756 164.814 329.589 170.377C328.429 175.941 327.422 181.159 326.703 185.656C325.975 190.152 325.379 193.904 325.026 196.541C324.668 199.179 324.463 200.685 324.463 200.685Z" fill="white"/>
<path d="M327.261 182.355C327.261 182.355 327.391 181.947 327.718 181.273C328.048 180.602 328.561 179.657 329.3 178.603C329.669 178.076 330.082 177.516 330.548 176.944C330.992 176.354 331.52 175.783 332.054 175.181C332.621 174.612 333.18 173.994 333.807 173.428C334.437 172.868 335.052 172.267 335.724 171.735C336.392 171.199 337.048 170.648 337.737 170.162C338.417 169.666 339.083 169.17 339.762 168.745C340.433 168.306 341.09 167.895 341.719 167.517C342.358 167.158 342.963 166.818 343.52 166.505C344.071 166.179 344.596 165.918 345.071 165.703C345.539 165.481 345.948 165.287 346.285 165.127C346.964 164.819 347.352 164.643 347.352 164.643C347.352 164.643 346.998 164.881 346.379 165.296C345.759 165.708 344.854 166.261 343.81 166.984C343.284 167.338 342.714 167.721 342.111 168.127C341.523 168.552 340.903 169 340.262 169.464C339.605 169.904 338.987 170.44 338.316 170.928C337.644 171.415 337.009 171.966 336.358 172.499C335.691 173.013 335.082 173.592 334.455 174.133C333.839 174.685 333.254 175.25 332.68 175.79C332.143 176.364 331.571 176.874 331.093 177.415C330.593 177.939 330.145 178.454 329.743 178.941C328.947 179.919 328.281 180.744 327.884 181.369C327.471 181.982 327.261 182.355 327.261 182.355Z" fill="white"/>
<path d="M330.861 164.7C330.861 164.7 331.073 164.415 331.482 163.949C331.899 163.493 332.492 162.832 333.261 162.098C334.032 161.368 334.954 160.535 335.997 159.713C337.027 158.872 338.183 158.052 339.347 157.245C340.531 156.467 341.733 155.717 342.889 155.065C344.051 154.425 345.147 153.848 346.113 153.408C347.064 152.939 347.898 152.633 348.466 152.389C349.038 152.156 349.372 152.036 349.372 152.036C349.372 152.036 349.078 152.235 348.553 152.562C348.025 152.882 347.277 153.347 346.386 153.91C345.494 154.468 344.454 155.118 343.339 155.815C342.239 156.533 341.059 157.284 339.901 158.069C337.578 159.627 335.311 161.265 333.63 162.531C332.797 163.172 332.088 163.696 331.615 164.09C331.136 164.478 330.861 164.7 330.861 164.7Z" fill="white"/>
<path d="M334.637 151.271C334.637 151.271 334.868 151.05 335.296 150.691C335.729 150.341 336.336 149.82 337.104 149.252C338.63 148.1 340.753 146.685 342.972 145.43C344.084 144.808 345.209 144.207 346.291 143.698C347.367 143.177 348.393 142.735 349.285 142.39C350.171 142.031 350.934 141.791 351.463 141.615C351.993 141.441 352.301 141.356 352.301 141.356C352.301 141.356 352.027 141.523 351.539 141.791C351.045 142.046 350.36 142.449 349.527 142.906C347.864 143.824 345.655 145.045 343.462 146.295C341.263 147.543 339.064 148.792 337.416 149.729C335.748 150.653 334.637 151.271 334.637 151.271Z" fill="white"/>
<path d="M339.656 138.328C339.656 138.328 339.86 138.138 340.244 137.84C340.631 137.549 341.18 137.123 341.876 136.668C342.566 136.203 343.396 135.704 344.301 135.196C345.206 134.689 346.194 134.192 347.191 133.714C349.193 132.777 351.252 131.97 352.832 131.465C353.615 131.196 354.292 131.035 354.754 130.894C355.221 130.765 355.493 130.705 355.493 130.705C355.493 130.705 355.253 130.848 354.826 131.075C354.397 131.297 353.785 131.614 353.049 131.994C352.311 132.365 351.447 132.787 350.52 133.231C349.592 133.672 348.603 134.143 347.614 134.614C343.634 136.47 339.656 138.328 339.656 138.328Z" fill="white"/>
<path d="M346.772 127.167C346.772 127.167 347.378 126.564 348.407 125.826C349.428 125.077 350.87 124.196 352.388 123.46C353.149 123.099 353.921 122.756 354.663 122.484C355.402 122.204 356.105 121.973 356.719 121.815C357.329 121.643 357.848 121.539 358.214 121.476C358.58 121.417 358.79 121.384 358.79 121.384C358.79 121.384 358.603 121.486 358.278 121.664C357.95 121.829 357.483 122.065 356.921 122.349C355.803 122.895 354.311 123.625 352.82 124.353C351.327 125.07 349.831 125.79 348.693 126.315C347.559 126.843 346.772 127.167 346.772 127.167Z" fill="white"/>
<path d="M325.811 186.024C325.811 186.024 325.356 185.641 324.772 185.008C324.181 184.379 323.457 183.5 322.777 182.589C322.105 181.673 321.477 180.726 321.042 179.982C320.602 179.243 320.357 178.702 320.357 178.702C320.357 178.702 320.856 179.027 321.486 179.625C322.124 180.217 322.891 181.077 323.575 181.999C324.256 182.924 324.851 183.908 325.238 184.685C325.632 185.456 325.811 186.024 325.811 186.024Z" fill="white"/>
<path d="M327.74 175.763C327.74 175.763 327.262 175.244 326.646 174.417C326.024 173.592 325.257 172.461 324.528 171.311C323.806 170.156 323.119 168.984 322.611 168.097C322.095 167.201 321.752 166.604 321.752 166.604C321.752 166.604 322.352 166.987 323.068 167.754C323.793 168.51 324.633 169.617 325.369 170.782C326.101 171.951 326.731 173.177 327.138 174.132C327.552 175.083 327.74 175.763 327.74 175.763Z" fill="white"/>
<path d="M330.49 160.379C330.49 160.379 330.103 159.992 329.622 159.364C329.135 158.74 328.546 157.879 328 157C327.459 156.117 326.954 155.217 326.585 154.527C326.215 153.841 325.976 153.349 325.976 153.349C325.976 153.349 326.462 153.615 327.04 154.181C327.625 154.739 328.288 155.58 328.845 156.478C329.398 157.38 329.85 158.338 330.12 159.09C330.397 159.837 330.49 160.379 330.49 160.379Z" fill="white"/>
<path d="M334.359 148.216C334.359 148.216 334.007 147.866 333.581 147.298C333.149 146.733 332.637 145.954 332.162 145.16C331.695 144.362 331.263 143.551 330.939 142.936C330.619 142.324 330.373 141.896 330.373 141.896C330.373 141.896 330.849 142.078 331.387 142.584C331.935 143.076 332.531 143.838 333.017 144.656C333.499 145.476 333.873 146.352 334.086 147.038C334.306 147.721 334.359 148.216 334.359 148.216Z" fill="white"/>
<path d="M340.701 134.835C340.701 134.835 340.431 134.542 340.137 134.072C339.836 133.604 339.505 132.961 339.229 132.299C338.959 131.635 338.74 130.953 338.613 130.415C338.479 129.884 338.442 129.486 338.442 129.486C338.442 129.486 338.769 129.717 339.123 130.161C339.484 130.599 339.865 131.241 340.147 131.921C340.424 132.604 340.605 133.322 340.671 133.88C340.745 134.436 340.701 134.835 340.701 134.835Z" fill="white"/>
<path d="M325.827 191.154C325.827 191.154 326.072 190.895 326.53 190.472C326.994 190.057 327.644 189.446 328.475 188.776C330.122 187.416 332.432 185.741 334.872 184.267C336.095 183.535 337.336 182.832 338.535 182.241C339.125 181.928 339.713 181.659 340.273 181.409C340.829 181.152 341.359 180.919 341.858 180.728C342.845 180.317 343.695 180.043 344.286 179.847C344.879 179.653 345.221 179.555 345.221 179.555C345.221 179.555 344.911 179.735 344.361 180.025C343.804 180.298 343.033 180.736 342.102 181.244C340.242 182.26 337.792 183.65 335.385 185.116C334.171 185.831 332.985 186.593 331.859 187.287C330.743 188 329.701 188.664 328.808 189.234C327.019 190.387 325.827 191.154 325.827 191.154Z" fill="white"/>
<path d="M310.257 213.863C310.257 213.863 317.701 186.774 341.108 164.223C362.561 143.555 385.461 148.034 385.461 148.034C385.461 148.034 374.997 149.381 361.253 180.908C353.33 199.081 344.727 215.757 332.74 224.064C317.252 234.795 307.263 226.564 310.257 213.863Z" fill="#0E4F77"/>
<path d="M317.462 222.886C317.462 222.886 317.947 221.444 318.892 218.954C319.855 216.473 321.206 212.913 323.044 208.732C324.882 204.553 327.06 199.684 329.696 194.611C332.328 189.539 335.321 184.214 338.674 179.096C340.378 176.558 342.187 174.081 344.103 171.747C345.993 169.391 348.126 167.271 350.133 165.273C352.171 163.263 354.258 161.414 356.279 159.742C358.306 158.068 360.304 156.587 362.191 155.283C364.103 154.014 365.904 152.919 367.579 152.094C369.23 151.227 370.747 150.629 372.002 150.173C373.267 149.733 374.297 149.51 374.999 149.381C375.706 149.269 376.087 149.261 376.087 149.261C376.087 149.261 375.707 149.297 375.015 149.46C374.325 149.633 373.332 149.95 372.104 150.444C370.887 150.963 369.425 151.634 367.843 152.58C366.239 153.487 364.526 154.668 362.673 155.968C360.853 157.32 358.93 158.848 356.983 160.568C355.032 162.292 353.073 164.187 351.055 166.182C349.048 168.227 347.018 170.288 345.185 172.626C343.33 174.939 341.575 177.399 339.919 179.926C336.551 184.946 333.517 190.2 330.843 195.215C328.177 200.235 325.754 204.964 323.808 209.082C321.855 213.196 320.235 216.633 319.16 219.066C318.079 221.497 317.462 222.886 317.462 222.886Z" fill="white"/>
<path d="M325.264 206.065C325.264 206.065 325.502 205.71 326.005 205.155C326.509 204.602 327.266 203.839 328.269 203.033C328.771 202.629 329.324 202.207 329.931 201.787C330.522 201.344 331.189 200.944 331.87 200.515C332.573 200.127 333.282 199.689 334.041 199.32C334.803 198.957 335.562 198.553 336.354 198.229C337.145 197.902 337.93 197.555 338.727 197.281C339.519 196.995 340.296 196.704 341.068 196.485C341.835 196.251 342.58 196.039 343.289 195.852C344.003 195.685 344.679 195.528 345.302 195.383C345.921 195.224 346.499 195.119 347.014 195.046C347.527 194.963 347.974 194.891 348.343 194.831C349.08 194.724 349.501 194.663 349.501 194.663C349.501 194.663 349.095 194.792 348.385 195.019C347.674 195.242 346.651 195.52 345.447 195.923C344.843 196.116 344.189 196.325 343.496 196.546C342.813 196.791 342.093 197.048 341.348 197.315C340.593 197.553 339.85 197.895 339.071 198.178C338.29 198.458 337.525 198.81 336.752 199.14C335.968 199.447 335.222 199.834 334.469 200.179C333.723 200.536 333.003 200.916 332.301 201.274C331.627 201.677 330.934 202.005 330.325 202.393C329.698 202.756 329.125 203.125 328.602 203.481C327.566 204.198 326.696 204.804 326.14 205.293C325.569 205.767 325.264 206.065 325.264 206.065Z" fill="white"/>
<path d="M333.647 190.117C333.647 190.117 333.93 189.903 334.453 189.569C334.981 189.247 335.736 188.778 336.679 188.288C337.624 187.802 338.741 187.259 339.972 186.76C341.195 186.241 342.535 185.776 343.877 185.325C345.231 184.908 346.594 184.523 347.887 184.219C349.182 183.929 350.395 183.68 351.445 183.528C352.49 183.344 353.376 183.282 353.989 183.206C354.604 183.143 354.957 183.12 354.957 183.12C354.957 183.12 354.619 183.23 354.024 183.396C353.428 183.557 352.58 183.794 351.567 184.086C350.555 184.373 349.374 184.708 348.11 185.066C346.853 185.448 345.51 185.84 344.179 186.271C341.514 187.118 338.88 188.058 336.912 188.806C335.933 189.188 335.107 189.494 334.542 189.74C333.972 189.98 333.647 190.117 333.647 190.117Z" fill="white"/>
<path d="M341.021 178.276C341.021 178.276 341.304 178.128 341.815 177.903C342.329 177.688 343.057 177.357 343.953 177.026C345.74 176.346 348.173 175.579 350.654 174.992C351.896 174.706 353.144 174.442 354.324 174.256C355.502 174.055 356.611 173.917 357.563 173.833C358.515 173.736 359.315 173.719 359.872 173.697C360.429 173.679 360.749 173.683 360.749 173.683C360.749 173.683 360.439 173.767 359.896 173.889C359.35 173.995 358.579 174.191 357.652 174.397C355.799 174.814 353.337 175.37 350.882 175.958C348.422 176.544 345.963 177.129 344.118 177.569C342.261 177.993 341.021 178.276 341.021 178.276Z" fill="white"/>
<path d="M349.452 167.247C349.452 167.247 349.701 167.121 350.152 166.943C350.605 166.771 351.252 166.515 352.046 166.271C352.838 166.019 353.775 165.771 354.785 165.536C355.795 165.301 356.883 165.1 357.973 164.918C360.157 164.577 362.36 164.377 364.018 164.333C364.845 164.292 365.541 164.327 366.024 164.321C366.507 164.327 366.785 164.345 366.785 164.345C366.785 164.345 366.516 164.415 366.041 164.514C365.568 164.607 364.891 164.74 364.079 164.9C363.267 165.05 362.321 165.215 361.306 165.382C360.292 165.547 359.21 165.723 358.129 165.899C353.791 166.573 349.452 167.247 349.452 167.247Z" fill="white"/>
<path d="M359.4 158.516C359.4 158.516 360.15 158.106 361.344 157.684C362.534 157.249 364.165 156.807 365.827 156.523C366.659 156.389 367.495 156.275 368.285 156.221C369.073 156.159 369.812 156.134 370.446 156.153C371.08 156.158 371.608 156.203 371.976 156.245C372.343 156.291 372.554 156.317 372.554 156.317C372.554 156.317 372.347 156.363 371.985 156.443C371.625 156.51 371.11 156.606 370.491 156.722C369.264 156.935 367.629 157.218 365.993 157.502C364.358 157.773 362.721 158.048 361.482 158.235C360.246 158.424 359.4 158.516 359.4 158.516Z" fill="white"/>
<path d="M322.846 209.184C322.846 209.184 322.517 208.69 322.132 207.919C321.74 207.149 321.289 206.103 320.892 205.039C320.501 203.972 320.163 202.887 319.953 202.051C319.737 201.219 319.653 200.63 319.653 200.63C319.653 200.63 320.042 201.082 320.48 201.832C320.926 202.578 321.423 203.619 321.824 204.694C322.219 205.772 322.516 206.884 322.671 207.737C322.833 208.589 322.846 209.184 322.846 209.184Z" fill="white"/>
<path d="M327.562 199.869C327.562 199.869 327.249 199.238 326.888 198.271C326.521 197.306 326.1 196.005 325.721 194.698C325.351 193.387 325.018 192.07 324.778 191.075C324.532 190.071 324.37 189.402 324.37 189.402C324.37 189.402 324.84 189.937 325.312 190.874C325.798 191.803 326.295 193.1 326.677 194.424C327.053 195.751 327.316 197.104 327.441 198.135C327.573 199.163 327.562 199.869 327.562 199.869Z" fill="white"/>
<path d="M334.497 185.865C334.497 185.865 334.233 185.384 333.947 184.647C333.653 183.911 333.328 182.922 333.048 181.925C332.776 180.926 332.542 179.92 332.381 179.156C332.216 178.395 332.125 177.854 332.125 177.854C332.125 177.854 332.517 178.245 332.914 178.951C333.32 179.65 333.721 180.641 334.006 181.66C334.285 182.681 334.452 183.727 334.501 184.523C334.559 185.318 334.497 185.865 334.497 185.865Z" fill="white"/>
<path d="M341.606 175.264C341.606 175.264 341.366 174.829 341.115 174.166C340.857 173.503 340.583 172.611 340.349 171.717C340.123 170.82 339.935 169.921 339.796 169.239C339.66 168.562 339.543 168.083 339.543 168.083C339.543 168.083 339.95 168.39 340.326 169.026C340.714 169.65 341.074 170.549 341.313 171.47C341.547 172.393 341.661 173.338 341.674 174.056C341.693 174.773 341.606 175.264 341.606 175.264Z" fill="white"/>
<path d="M351.43 164.184C351.43 164.184 351.253 163.828 351.101 163.294C350.942 162.761 350.804 162.051 350.724 161.339C350.65 160.625 350.629 159.909 350.658 159.357C350.678 158.809 350.754 158.417 350.754 158.417C350.754 158.417 351.004 158.73 351.22 159.255C351.443 159.777 351.631 160.5 351.712 161.232C351.787 161.965 351.761 162.704 351.669 163.259C351.585 163.814 351.43 164.184 351.43 164.184Z" fill="white"/>
<path d="M321.43 214.115C321.43 214.115 321.738 213.934 322.296 213.656C322.856 213.388 323.652 212.982 324.636 212.571C326.597 211.724 329.284 210.76 332.038 210.027C333.416 209.665 334.804 209.336 336.121 209.103C336.775 208.968 337.416 208.873 338.022 208.79C338.628 208.697 339.202 208.622 339.735 208.579C340.797 208.459 341.69 208.433 342.313 208.41C342.935 208.389 343.292 208.39 343.292 208.39C343.292 208.39 342.945 208.477 342.336 208.602C341.725 208.709 340.862 208.915 339.827 209.142C337.756 209.599 335.017 210.25 332.296 210.986C330.93 211.334 329.578 211.735 328.304 212.087C327.033 212.459 325.847 212.806 324.83 213.104C322.79 213.712 321.43 214.115 321.43 214.115Z" fill="white"/>
<path d="M315.94 205.378C315.94 205.378 330.869 187.404 356.336 178.34C379.678 170.034 395.496 181.28 395.496 181.28C395.496 181.28 387.105 178.713 365.882 197.89C353.647 208.944 341.411 218.63 329.479 220.815C314.064 223.636 309.316 213.974 315.94 205.378Z" fill="#62C1C5"/>
<path d="M318.306 214.685C318.306 214.685 319.168 213.759 320.737 212.196C322.318 210.646 324.562 208.413 327.388 205.875C330.213 203.338 333.533 200.395 337.27 197.454C341.004 194.513 345.098 191.504 349.392 188.777C351.554 187.437 353.773 186.181 356.026 185.068C358.265 183.931 360.609 183.057 362.814 182.229C365.048 181.406 367.264 180.72 369.368 180.146C371.478 179.573 373.5 179.135 375.376 178.793C377.261 178.487 379 178.276 380.552 178.224C382.1 178.133 383.455 178.201 384.562 178.285C385.671 178.385 386.529 178.569 387.104 178.712C387.678 178.869 387.97 178.995 387.97 178.995C387.97 178.995 387.67 178.892 387.09 178.777C386.508 178.672 385.647 178.571 384.547 178.525C383.448 178.501 382.109 178.508 380.585 178.682C379.06 178.819 377.357 179.127 375.506 179.477C373.664 179.876 371.683 180.375 369.618 181.012C367.549 181.649 365.415 182.414 363.202 183.233C360.98 184.095 358.734 184.96 356.544 186.103C354.345 187.219 352.172 188.481 350.051 189.829C345.778 192.479 341.678 195.419 337.933 198.303C334.191 201.193 330.734 203.945 327.847 206.399C324.956 208.846 322.55 210.895 320.902 212.37C319.25 213.844 318.306 214.685 318.306 214.685Z" fill="white"/>
<path d="M329.985 204.614C329.985 204.614 330.287 204.427 330.859 204.178C331.431 203.933 332.266 203.613 333.302 203.347C333.82 203.213 334.385 203.083 334.988 202.972C335.588 202.839 336.23 202.765 336.893 202.674C337.559 202.62 338.247 202.532 338.949 202.513C339.65 202.5 340.363 202.453 341.076 202.479C341.788 202.501 342.5 202.508 343.198 202.574C343.897 202.629 344.586 202.675 345.244 202.774C345.905 202.859 346.543 202.954 347.145 203.055C347.743 203.174 348.309 203.286 348.831 203.389C349.355 203.481 349.828 203.599 350.244 203.72C350.66 203.833 351.024 203.932 351.324 204.013C351.919 204.185 352.259 204.284 352.259 204.284C352.259 204.284 351.907 204.242 351.291 204.17C350.677 204.096 349.806 203.956 348.754 203.847C348.23 203.787 347.663 203.721 347.063 203.652C346.462 203.603 345.828 203.551 345.171 203.497C344.518 203.42 343.838 203.424 343.151 203.37C342.463 203.314 341.763 203.32 341.063 203.305C340.364 203.269 339.666 203.306 338.977 203.308C338.289 203.324 337.614 203.364 336.959 203.395C336.309 203.468 335.672 203.481 335.078 203.565C334.479 203.626 333.917 203.709 333.399 203.799C332.368 203.987 331.5 204.147 330.912 204.328C330.318 204.492 329.985 204.614 329.985 204.614Z" fill="white"/>
<path d="M341.805 195.404C341.805 195.404 342.092 195.338 342.603 195.265C343.114 195.202 343.846 195.105 344.729 195.057C345.611 195.013 346.644 194.985 347.747 195.029C348.853 195.054 350.027 195.161 351.198 195.28C352.367 195.429 353.532 195.605 354.616 195.817C355.697 196.041 356.701 196.269 357.549 196.514C358.404 196.732 359.096 196.989 359.587 197.142C360.075 197.305 360.351 197.409 360.351 197.409C360.351 197.409 360.057 197.376 359.549 197.298C359.043 197.215 358.319 197.104 357.451 196.978C356.586 196.848 355.576 196.697 354.495 196.535C353.412 196.394 352.26 196.23 351.104 196.101C348.794 195.829 346.475 195.638 344.728 195.53C343.855 195.485 343.124 195.433 342.612 195.425C342.099 195.411 341.805 195.404 341.805 195.404Z" fill="white"/>
<path d="M351.452 188.958C351.452 188.958 351.718 188.943 352.182 188.948C352.646 188.961 353.311 188.959 354.103 189.016C355.69 189.114 357.797 189.367 359.878 189.773C360.917 189.981 361.953 190.21 362.912 190.473C363.873 190.725 364.76 191 365.511 191.264C366.265 191.517 366.877 191.778 367.307 191.952C367.736 192.13 367.976 192.242 367.976 192.242C367.976 192.242 367.713 192.199 367.259 192.105C366.81 191.999 366.158 191.883 365.384 191.722C363.837 191.402 361.781 190.979 359.719 190.583C357.654 190.184 355.59 189.784 354.041 189.484C352.488 189.169 351.452 188.958 351.452 188.958Z" fill="white"/>
<path d="M361.623 183.493C361.623 183.493 361.854 183.484 362.257 183.502C362.66 183.528 363.237 183.556 363.923 183.644C364.61 183.724 365.405 183.857 366.251 184.026C367.097 184.194 367.99 184.415 368.878 184.651C370.65 185.141 372.387 185.744 373.66 186.28C374.301 186.532 374.815 186.797 375.183 186.958C375.548 187.129 375.752 187.238 375.752 187.238C375.752 187.238 375.524 187.199 375.131 187.111C374.74 187.019 374.182 186.888 373.512 186.732C372.845 186.567 372.071 186.368 371.245 186.146C370.42 185.923 369.54 185.686 368.66 185.448C365.141 184.469 361.623 183.493 361.623 183.493Z" fill="white"/>
<path d="M372.154 180.287C372.154 180.287 372.863 180.233 373.912 180.324C374.962 180.403 376.35 180.626 377.708 180.981C378.384 181.165 379.056 181.365 379.674 181.595C380.293 181.818 380.861 182.053 381.335 182.285C381.813 182.506 382.198 182.721 382.462 182.879C382.725 183.04 382.876 183.132 382.876 183.132C382.876 183.132 382.704 183.095 382.402 183.032C382.106 182.96 381.682 182.856 381.175 182.732C380.172 182.473 378.835 182.127 377.499 181.781C376.167 181.427 374.833 181.074 373.83 180.79C372.826 180.507 372.154 180.287 372.154 180.287Z" fill="white"/>
<path d="M327.083 206.148C327.083 206.148 327.003 205.66 326.977 204.944C326.944 204.227 326.961 203.279 327.025 202.337C327.095 201.394 327.21 200.456 327.337 199.751C327.459 199.047 327.597 198.572 327.597 198.572C327.597 198.572 327.737 199.048 327.812 199.766C327.895 200.484 327.915 201.444 327.848 202.396C327.778 203.348 327.622 204.292 327.447 204.991C327.278 205.693 327.083 206.148 327.083 206.148Z" fill="white"/>
<path d="M333.851 200.707C333.851 200.707 333.829 200.121 333.888 199.266C333.94 198.408 334.068 197.278 334.229 196.157C334.397 195.037 334.596 193.926 334.756 193.089C334.914 192.245 335.02 191.681 335.02 191.681C335.02 191.681 335.192 192.247 335.229 193.12C335.279 193.99 335.211 195.143 335.046 196.278C334.876 197.412 334.611 198.528 334.352 199.351C334.1 200.176 333.851 200.707 333.851 200.707Z" fill="white"/>
<path d="M343.907 192.473C343.907 192.473 343.871 192.018 343.907 191.362C343.937 190.704 344.03 189.843 344.16 188.991C344.295 188.14 344.463 187.299 344.603 186.663C344.739 186.031 344.855 185.59 344.855 185.59C344.855 185.59 345.018 186.02 345.077 186.692C345.145 187.361 345.11 188.25 344.976 189.119C344.837 189.988 344.605 190.837 344.369 191.458C344.141 192.08 343.907 192.473 343.907 192.473Z" fill="white"/>
<path d="M352.928 186.878C352.928 186.878 352.896 186.466 352.933 185.877C352.965 185.286 353.063 184.517 353.192 183.759C353.329 183.002 353.494 182.256 353.622 181.692C353.751 181.132 353.827 180.729 353.827 180.729C353.827 180.729 354.03 181.102 354.096 181.713C354.177 182.319 354.141 183.123 354.007 183.903C353.867 184.683 353.63 185.438 353.394 185.987C353.162 186.536 352.928 186.878 352.928 186.878Z" fill="white"/>
<path d="M364.171 181.85C364.171 181.85 364.159 181.519 364.226 181.063C364.289 180.605 364.428 180.02 364.611 179.452C364.8 178.887 365.03 178.337 365.24 177.929C365.443 177.52 365.634 177.249 365.634 177.249C365.634 177.249 365.717 177.573 365.7 178.044C365.69 178.515 365.584 179.128 365.395 179.71C365.201 180.291 364.927 180.842 364.666 181.232C364.416 181.623 364.171 181.85 364.171 181.85Z" fill="white"/>
<path d="M324.319 209.399C324.319 209.399 324.615 209.368 325.133 209.348C325.65 209.337 326.392 209.303 327.279 209.329C329.055 209.359 331.421 209.55 333.76 209.939C334.928 210.137 336.092 210.364 337.17 210.639C337.712 210.761 338.229 210.909 338.718 211.054C339.208 211.191 339.669 211.331 340.088 211.48C340.934 211.755 341.619 212.04 342.099 212.237C342.578 212.434 342.847 212.558 342.847 212.558C342.847 212.558 342.554 212.503 342.05 212.39C341.55 212.262 340.826 212.122 339.964 211.939C338.239 211.576 335.939 211.129 333.625 210.754C332.471 210.549 331.309 210.39 330.223 210.22C329.132 210.066 328.114 209.923 327.242 209.799C325.488 209.56 324.319 209.399 324.319 209.399Z" fill="white"/>
<path d="M138.287 93.812C133.851 93.8644 130.212 90.3085 130.162 85.8728C130.111 81.4371 133.664 77.7961 138.101 77.7465C142.54 77.6913 146.176 81.2499 146.228 85.6884C146.28 90.1213 142.725 93.7624 138.287 93.812Z" fill="#45ADAD"/>
<path d="M183.032 81.5016C183.028 81.1506 182.737 80.868 182.381 80.868L171.866 78.6178C171.561 77.168 171.166 75.763 170.687 74.3918L178.496 66.9993C178.801 66.8214 178.898 66.4264 178.721 66.1194L174.887 59.6554C174.706 59.3521 174.311 59.252 174.007 59.4336L163.763 62.7414C162.789 61.6509 161.744 60.6373 160.637 59.6844L163.708 49.3641C163.877 49.0571 163.772 48.6686 163.462 48.4899L156.909 44.8076C156.6 44.6382 156.211 44.7496 156.037 45.0529L148.827 53.036C147.448 52.5858 146.03 52.2236 144.581 51.9521L142.083 41.4886C142.078 41.1348 141.788 40.8483 141.433 40.8521L133.917 40.9401C133.566 40.9485 133.282 41.2405 133.287 41.5915L131.028 52.1112C129.585 52.4145 128.179 52.8067 126.809 53.2887L119.417 45.4787C119.234 45.1774 118.844 45.0753 118.539 45.256L112.071 49.087C111.769 49.2686 111.67 49.6627 111.85 49.9669L115.155 60.2142C114.074 61.1839 113.051 62.2275 112.1 63.3348L101.781 60.2694C101.473 60.0934 101.085 60.2048 100.908 60.5146L97.2291 67.0629C97.054 67.3755 97.1645 67.7612 97.4743 67.9362L105.45 75.1481C105.004 76.5268 104.64 77.9439 104.369 79.3966L93.9081 81.8919C93.5534 81.8948 93.2698 82.184 93.2745 82.5378L93.3624 90.0567C93.3653 90.4077 93.6564 90.6903 94.0111 90.6847L104.526 92.9461C104.833 94.3894 105.229 95.7981 105.707 97.1684L97.8992 104.558C97.5941 104.736 97.4921 105.134 97.6709 105.434L101.507 111.901C101.689 112.208 102.079 112.31 102.385 112.126L112.628 108.815C113.605 109.899 114.652 110.922 115.756 111.875L112.688 122.19C112.512 122.499 112.623 122.893 112.93 123.063L119.484 126.745C119.792 126.92 120.182 126.81 120.357 126.503L127.567 118.525C128.946 118.973 130.363 119.332 131.812 119.606L134.312 130.07C134.314 130.421 134.607 130.707 134.959 130.701L142.475 130.613C142.829 130.61 143.111 130.321 143.11 129.97L145.364 119.447C146.809 119.14 148.216 118.749 149.584 118.27L156.977 126.078C157.158 126.382 157.55 126.484 157.855 126.3L164.32 122.468C164.624 122.29 164.724 121.893 164.544 121.59L161.237 111.344C162.319 110.369 163.343 109.322 164.292 108.218L174.609 111.289C174.917 111.461 175.309 111.351 175.482 111.043L179.166 104.489C179.338 104.182 179.227 103.791 178.92 103.618L170.943 96.4093C171.391 95.0296 171.751 93.6125 172.022 92.1636L182.486 89.6589C182.839 89.6561 183.123 89.364 183.12 89.013L183.032 81.5016ZM138.524 114.337C122.754 114.524 109.818 101.882 109.634 86.1096C109.453 70.3361 122.092 57.4006 137.864 57.2218C153.637 57.0374 166.573 69.6781 166.755 85.4488C166.938 101.222 154.298 114.156 138.524 114.337Z" fill="#45ADAD"/>
<path d="M138.474 109.885C125.162 110.043 114.244 99.3727 114.088 86.059C113.935 72.7444 124.604 61.826 137.916 61.6753C151.23 61.5199 162.149 72.1893 162.304 85.5011C162.456 98.8148 151.788 109.731 138.474 109.885Z" stroke="#45ADAD" stroke-width="3" stroke-miterlimit="10"/>
<path d="M354.801 229.074H41.1982C37.794 229.074 35.0347 226.315 35.0347 222.911C35.0347 219.506 37.794 216.747 41.1982 216.747H354.8C358.205 216.747 360.964 219.506 360.964 222.911C360.964 226.315 358.205 229.074 354.801 229.074Z" fill="#D4E1FF"/>
<path d="M279.805 253.727H58.208C54.8038 253.727 52.0444 250.968 52.0444 247.564C52.0444 244.16 54.8038 241.4 58.208 241.4H279.805C283.209 241.4 285.969 244.16 285.969 247.564C285.969 250.968 283.209 253.727 279.805 253.727Z" fill="#D4E1FF"/>
<path d="M328.228 253.727H301.648C298.244 253.727 295.484 250.968 295.484 247.564C295.484 244.16 298.244 241.4 301.648 241.4H328.228C331.633 241.4 334.392 244.16 334.392 247.564C334.392 250.968 331.633 253.727 328.228 253.727Z" fill="#D4E1FF"/>
<path d="M101.596 235.238C101.596 231.834 104.355 229.074 107.759 229.074H72.0649C75.4692 229.074 78.2285 231.834 78.2285 235.238C78.2285 238.642 75.4692 241.401 72.0649 241.401H107.759C104.355 241.4 101.596 238.641 101.596 235.238Z" fill="#D4E1FF"/>
<path d="M118.834 278.381H244.58C247.984 278.381 250.744 275.621 250.744 272.217C250.744 268.813 247.984 266.054 244.58 266.054H118.834C115.43 266.054 112.67 268.813 112.67 272.217C112.67 275.621 115.43 278.381 118.834 278.381Z" fill="#D4E1FF"/>
<path d="M201.193 259.891C201.193 256.487 198.434 253.728 195.03 253.728H230.724C227.32 253.728 224.561 256.487 224.561 259.891C224.561 263.295 227.32 266.055 230.724 266.055H195.03C198.434 266.054 201.193 263.294 201.193 259.891Z" fill="#D4E1FF"/>
<path d="M267.573 216.748H330.397C333.608 216.748 336.211 214.145 336.211 210.934V90.5088C336.211 87.2973 333.608 84.6943 330.397 84.6943H267.573C264.362 84.6943 261.759 87.2973 261.759 90.5088V210.934C261.76 214.145 264.363 216.748 267.573 216.748Z" fill="white"/>
<path d="M262.284 216.748H325.107C328.318 216.748 330.921 214.145 330.921 210.934V90.5088C330.921 87.2973 328.318 84.6943 325.107 84.6943H262.284C259.072 84.6943 256.469 87.2973 256.469 90.5088V210.934C256.469 214.145 259.072 216.748 262.284 216.748Z" fill="#62C1C5"/>
<path d="M322.558 90.123H310.913C309.502 90.123 308.358 91.2668 308.358 92.6783C308.358 93.854 307.405 94.8068 306.229 94.8068H281.161C279.985 94.8068 279.031 93.854 279.031 92.6783C279.031 91.2668 277.888 90.123 276.476 90.123H264.831C263.211 90.123 261.897 91.4372 261.897 93.0574V208.385C261.897 210.005 263.211 211.319 264.831 211.319H322.556C324.177 211.319 325.491 210.006 325.491 208.385V93.0574C325.493 91.4363 324.178 90.123 322.558 90.123Z" fill="#0A3C5F"/>
<path d="M325.107 84.6943H293.696V216.748H325.107C328.318 216.748 330.921 214.145 330.921 210.934V90.5088C330.921 87.2973 328.318 84.6943 325.107 84.6943Z" fill="#45ADAD"/>
<path d="M321.656 90.123H310.011C308.6 90.123 307.456 91.2668 307.456 92.6783C307.456 93.854 306.503 94.8068 305.326 94.8068H292.792V211.319H321.655C323.276 211.319 324.589 210.005 324.589 208.385V93.0574C324.59 91.4363 323.277 90.123 321.656 90.123Z" fill="#0A3C5F"/>
<path d="M296.82 91.9829H284.551C284.04 91.9829 283.622 91.5645 283.622 91.0535C283.622 90.5424 284.04 90.124 284.551 90.124H296.82C297.332 90.124 297.751 90.5424 297.751 91.0535C297.75 91.5645 297.331 91.9829 296.82 91.9829Z" fill="#0A3C5F"/>
<path d="M301.366 91.0525C301.366 91.557 300.957 91.9651 300.454 91.9651C299.95 91.9651 299.541 91.5561 299.541 91.0525C299.541 90.548 299.95 90.1399 300.454 90.1399C300.957 90.1399 301.366 90.5489 301.366 91.0525Z" fill="#0A3C5F"/>
<path d="M304.208 91.0525C304.208 91.557 303.799 91.9651 303.295 91.9651C302.792 91.9651 302.383 91.5561 302.383 91.0525C302.383 90.548 302.792 90.1399 303.295 90.1399C303.799 90.1399 304.208 90.5489 304.208 91.0525Z" fill="#0A3C5F"/>
<path d="M128.426 216.748H65.6025C62.3911 216.748 59.7881 214.145 59.7881 210.934V90.5088C59.7881 87.2973 62.3911 84.6943 65.6025 84.6943H128.426C131.637 84.6943 134.24 87.2973 134.24 90.5088V210.934C134.24 214.145 131.637 216.748 128.426 216.748Z" fill="white"/>
<path d="M133.716 216.748H70.8926C67.6811 216.748 65.0781 214.145 65.0781 210.934V90.5088C65.0781 87.2973 67.6811 84.6943 70.8926 84.6943H133.716C136.927 84.6943 139.53 87.2973 139.53 90.5088V210.934C139.53 214.145 136.926 216.748 133.716 216.748Z" fill="#5472D1"/>
<path d="M73.4413 90.123H85.0861C86.4975 90.123 87.6413 91.2668 87.6413 92.6783C87.6413 93.854 88.5942 94.8068 89.7707 94.8068H114.839C116.014 94.8068 116.968 93.854 116.968 92.6783C116.968 91.2668 118.112 90.123 119.523 90.123H131.168C132.788 90.123 134.102 91.4372 134.102 93.0574V208.385C134.102 210.005 132.788 211.319 131.168 211.319H73.4432C71.8229 211.319 70.5088 210.006 70.5088 208.385V93.0574C70.5069 91.4363 71.8211 90.123 73.4413 90.123Z" fill="#E9F0FF"/>
<path d="M70.8926 84.6943H102.304V216.748H70.8926C67.6811 216.748 65.0781 214.145 65.0781 210.934V90.5088C65.0781 87.2973 67.6811 84.6943 70.8926 84.6943Z" fill="#3459B7"/>
<path d="M74.2962 90.123H85.941C87.3525 90.123 88.4963 91.2668 88.4963 92.6783C88.4963 93.854 89.4491 94.8068 90.6257 94.8068H103.16V211.319H74.2971C72.6769 211.319 71.3628 210.005 71.3628 208.385V93.0574C71.3628 91.4363 72.676 90.123 74.2962 90.123Z" fill="#E9F0FF"/>
<path d="M99.1794 91.9829H111.449C111.96 91.9829 112.378 91.5645 112.378 91.0535C112.378 90.5424 111.96 90.124 111.449 90.124H99.1794C98.6674 90.124 98.249 90.5424 98.249 91.0535C98.25 91.5645 98.6684 91.9829 99.1794 91.9829Z" fill="#0A3C5F"/>
<path d="M94.6333 91.0525C94.6333 91.557 95.0423 91.9651 95.5459 91.9651C96.0495 91.9651 96.4585 91.5561 96.4585 91.0525C96.4585 90.548 96.0495 90.1399 95.5459 90.1399C95.0423 90.1399 94.6333 90.5489 94.6333 91.0525Z" fill="#0A3C5F"/>
<path d="M91.792 91.0525C91.792 91.557 92.201 91.9651 92.7046 91.9651C93.2091 91.9651 93.6172 91.5561 93.6172 91.0525C93.6172 90.548 93.2082 90.1399 92.7046 90.1399C92.201 90.1399 91.792 90.5489 91.792 91.0525Z" fill="#0A3C5F"/>
<path d="M252.891 175.902C253.29 177.242 254.7 178.005 256.04 177.606C257.38 177.208 258.143 175.798 257.744 174.458C257.346 173.117 255.936 172.355 254.596 172.753C253.255 173.153 252.492 174.563 252.891 175.902Z" fill="#0E4F77"/>
<path d="M189.852 199.069L193.195 195.158C194.422 193.723 196.58 193.553 198.015 194.78C199.45 196.007 199.619 198.165 198.392 199.6L195.049 203.511C193.821 204.946 191.664 205.116 190.229 203.889C188.794 202.662 188.625 200.505 189.852 199.069Z" fill="#EF9D75"/>
<path d="M220.05 183.926L215.547 168.799C214.47 165.18 210.663 163.119 207.043 164.197L213.497 185.876C214.036 187.685 215.939 188.716 217.749 188.177C219.558 187.64 220.588 185.736 220.05 183.926Z" fill="#F8B690"/>
<path d="M197.108 167.154L198.474 171.743C200.107 177.23 205.88 180.355 211.368 178.721L207.044 164.197L197.108 167.154Z" fill="#F8B690"/>
<path d="M199.876 194.802L221.399 188.457C222.476 192.075 220.415 195.883 216.797 196.96L201.826 201.355C200.017 201.894 198.113 200.863 197.575 199.054C197.036 197.244 198.065 195.341 199.876 194.802Z" fill="#EF9D75"/>
<path d="M197.925 188.249L219.448 181.904L221.399 188.457L199.876 194.802C198.066 195.34 196.162 194.31 195.624 192.501C195.085 190.691 196.115 188.788 197.925 188.249Z" fill="#EF9D75"/>
<path d="M195.974 181.697L217.497 175.352L219.448 181.905L197.925 188.25C196.115 188.788 194.212 187.758 193.673 185.949C193.134 184.139 194.165 182.235 195.974 181.697Z" fill="#EF9D75"/>
<path d="M194.024 175.144L215.547 168.799L217.498 175.352L195.975 181.697C194.165 182.235 192.261 181.205 191.723 179.396C191.184 177.586 192.215 175.682 194.024 175.144Z" fill="#EF9D75"/>
<path d="M225.751 165.745L215.54 168.785L221.455 188.656L231.666 185.617L225.751 165.745Z" fill="#F8B690"/>
<path d="M228.708 175.681L218.497 178.721L221.455 188.657L231.666 185.617L228.708 175.681Z" fill="#EF9D75"/>
<path d="M238.918 158.556L224.13 162.958L231.834 188.838L246.622 184.435L238.918 158.556Z" fill="#E6E7E8"/>
<path d="M242.77 171.496L227.982 175.898L231.834 188.838L246.622 184.436L242.77 171.496Z" fill="#BCBEC0"/>
<path d="M325.51 132.12L230.873 160.966L238.576 186.848L325.51 160.349V132.12Z" fill="#EFA748"/>
<path d="M325.51 146.235L234.725 173.907L238.576 186.848L325.51 160.349V146.235Z" fill="#E89234"/>
<path d="M241.096 154.278L229.873 157.619L239.561 190.166L250.784 186.825L241.096 154.278Z" fill="#F4BD4E"/>
<path d="M175.996 183.926L180.499 168.799C181.577 165.18 185.383 163.119 189.003 164.197L182.549 185.876C182.011 187.685 180.107 188.716 178.298 188.177C176.488 187.64 175.457 185.736 175.996 183.926Z" fill="#F8B690"/>
<path d="M198.939 167.154L197.573 171.743C195.94 177.23 190.167 180.355 184.68 178.721L189.003 164.197L198.939 167.154Z" fill="#F8B690"/>
<path d="M209.202 198.742L174.648 188.457C173.57 192.075 175.631 195.883 179.25 196.96L192.876 201.016L207.252 205.295C209.062 205.833 210.965 204.804 211.504 202.995C212.042 201.184 211.011 199.28 209.202 198.742Z" fill="#F8B690"/>
<path d="M211.152 192.189L176.598 181.904L174.647 188.457L209.202 198.742C211.011 199.281 212.915 198.251 213.453 196.442C213.992 194.632 212.962 192.729 211.152 192.189Z" fill="#F8B690"/>
<path d="M213.103 185.637L178.549 175.351L176.598 181.904L211.152 192.189C212.962 192.728 214.866 191.698 215.404 189.889C215.943 188.08 214.912 186.176 213.103 185.637Z" fill="#F8B690"/>
<path d="M215.054 179.085L180.499 168.799L178.549 175.352L213.103 185.637C214.912 186.177 216.816 185.146 217.354 183.337C217.893 181.527 216.863 179.623 215.054 179.085Z" fill="#F8B690"/>
<path d="M170.278 165.771L164.363 185.643L174.574 188.683L180.49 168.811L170.278 165.771Z" fill="#F8B690"/>
<path d="M167.321 175.707L164.363 185.643L174.574 188.683L177.532 178.747L167.321 175.707Z" fill="#EF9D75"/>
<path d="M157.11 158.58L149.406 184.459L164.194 188.862L171.898 162.982L157.11 158.58Z" fill="#E6E7E8"/>
<path d="M153.258 171.52L149.406 184.46L164.194 188.863L168.046 175.922L153.258 171.52Z" fill="#BCBEC0"/>
<path d="M70.5073 132.111V160.34L157.469 186.848L165.173 160.966L70.5073 132.111Z" fill="#5472D1"/>
<path d="M70.5073 146.226V160.34L157.469 186.848L161.322 173.908L70.5073 146.226Z" fill="#3459B7"/>
<path d="M154.933 154.303L145.244 186.85L156.467 190.191L166.156 157.644L154.933 154.303Z" fill="#6B8BDB"/>
<path d="M134.044 173.191C133.645 174.531 132.236 175.294 130.895 174.895C129.555 174.496 128.792 173.087 129.191 171.746C129.59 170.406 130.999 169.643 132.339 170.042C133.68 170.441 134.443 171.85 134.044 173.191Z" fill="#FBB040"/>
<path d="M143.155 175.902C142.756 177.243 141.346 178.005 140.006 177.607C138.666 177.208 137.903 175.798 138.302 174.458C138.7 173.118 140.11 172.355 141.45 172.754C142.791 173.153 143.554 174.563 143.155 175.902Z" fill="#FBB040"/>
<path d="M204.13 168.7L189.002 164.197C185.383 163.119 181.576 165.18 180.499 168.799L202.178 175.253C203.987 175.791 205.891 174.761 206.429 172.952C206.97 171.142 205.939 169.238 204.13 168.7Z" fill="#F8B690"/>
<path d="M177.542 178.735L182.13 180.101C187.618 181.734 193.39 178.61 195.024 173.122L180.499 168.799L177.542 178.735Z" fill="#F8B690"/>
<path d="M209.202 198.742L204.27 197.274C202.461 196.735 200.557 197.765 200.019 199.574C199.48 201.384 200.51 203.287 202.319 203.826L207.251 205.294C209.06 205.832 210.964 204.803 211.502 202.994C212.042 201.184 211.011 199.28 209.202 198.742Z" fill="#F8B690"/>
<path d="M211.152 192.189L206.22 190.721C204.41 190.183 202.507 191.212 201.968 193.021C201.429 194.831 202.46 196.735 204.269 197.273L209.201 198.741C211.01 199.279 212.914 198.25 213.452 196.441C213.992 194.631 212.962 192.728 211.152 192.189Z" fill="#F8B690"/>
<path d="M213.103 185.636L208.171 184.168C206.362 183.629 204.458 184.659 203.92 186.469C203.381 188.278 204.411 190.182 206.221 190.72L211.153 192.188C212.963 192.727 214.867 191.697 215.405 189.888C215.943 188.079 214.912 186.176 213.103 185.636Z" fill="#F8B690"/>
<path d="M215.053 179.084L210.122 177.616C208.312 177.077 206.409 178.107 205.87 179.917C205.332 181.726 206.362 183.63 208.172 184.168L213.104 185.636C214.913 186.176 216.817 185.145 217.355 183.336C217.892 181.526 216.863 179.623 215.053 179.084Z" fill="#F8B690"/>
<path d="M191.917 168.7L207.045 164.197C210.663 163.119 214.471 165.18 215.548 168.799L193.869 175.253C192.059 175.791 190.156 174.761 189.617 172.952C189.077 171.142 190.107 169.238 191.917 168.7Z" fill="#EF9D75"/>
<path d="M218.505 178.735L213.917 180.101C208.429 181.734 202.657 178.61 201.022 173.122L215.547 168.799L218.505 178.735Z" fill="#EF9D75"/>
<path d="M183.902 195.687L187.246 191.776C188.473 190.341 190.63 190.171 192.065 191.399C193.5 192.625 193.67 194.783 192.443 196.218L189.099 200.13C187.872 201.564 185.715 201.734 184.28 200.507C182.844 199.281 182.675 197.123 183.902 195.687Z" fill="#EF9D75"/>
<path d="M177.517 192.658L180.861 188.747C182.088 187.312 184.245 187.143 185.68 188.37C187.115 189.597 187.285 191.754 186.057 193.189L182.714 197.101C181.487 198.536 179.33 198.705 177.895 197.478C176.46 196.252 176.29 194.094 177.517 192.658Z" fill="#EF9D75"/>
<path d="M171.665 188.974L175.009 185.063C176.236 183.628 178.393 183.459 179.828 184.686C181.263 185.913 181.433 188.07 180.206 189.505L176.862 193.417C175.635 194.852 173.478 195.021 172.043 193.794C170.608 192.567 170.439 190.409 171.665 188.974Z" fill="#EF9D75"/>
<path d="M262.134 176.13C262.134 176.13 260.629 175.786 260.424 177.129C260.217 178.472 260.183 181.227 262.134 181.124C263.28 181.065 263.777 176.268 262.134 176.13Z" fill="#FED4D5"/>
<path d="M201.969 46.6572C195.057 46.7386 189.387 41.1984 189.306 34.2842C189.226 27.3699 194.767 21.6996 201.68 21.622C208.594 21.5415 214.264 27.0817 214.344 33.995C214.424 40.9082 208.883 46.5776 201.969 46.6572Z" fill="#5472D1"/>
<path d="M201.88 38.9108C199.245 38.9426 197.083 36.8301 197.054 34.1952C197.024 31.5604 199.134 29.3973 201.769 29.3683C204.406 29.3355 206.566 31.449 206.596 34.0857C206.628 36.7187 204.516 38.8818 201.88 38.9108Z" fill="white"/>
<path d="M228.458 31.5988C228.455 31.3901 228.283 31.2225 228.071 31.2225L221.826 29.8859C221.644 29.0248 221.41 28.1899 221.125 27.3756L225.764 22.9839C225.945 22.8781 226.003 22.6441 225.898 22.4616L223.621 18.6221C223.513 18.4415 223.278 18.3825 223.099 18.4901L217.013 20.4548C216.435 19.8071 215.814 19.2052 215.156 18.639L216.98 12.5082C217.081 12.3256 217.018 12.0954 216.834 11.9887L212.941 9.80124C212.758 9.70109 212.526 9.76661 212.423 9.94725L208.14 14.689C207.321 14.4213 206.479 14.2061 205.619 14.0451L204.135 7.82909C204.132 7.61942 203.96 7.44907 203.75 7.45094L199.285 7.50336C199.075 7.50897 198.908 7.68214 198.909 7.88993L197.568 14.1387C196.711 14.3193 195.876 14.5514 195.063 14.8379L190.672 10.199C190.563 10.0203 190.332 9.95943 190.15 10.0671L186.308 12.3425C186.128 12.4501 186.069 12.6841 186.177 12.8648L188.14 18.9516C187.498 19.5282 186.89 20.1478 186.325 20.8049L180.195 18.9843C180.012 18.8804 179.782 18.946 179.677 19.1304L177.491 23.0204C177.387 23.2057 177.453 23.435 177.637 23.5389L182.374 27.823C182.109 28.642 181.893 29.4844 181.732 30.3464L175.518 31.8291C175.307 31.8309 175.139 32.0022 175.142 32.2128L175.194 36.6785C175.196 36.8872 175.368 37.0548 175.58 37.0519L181.826 38.3951C182.008 39.2525 182.243 40.0893 182.527 40.9036L177.889 45.2934C177.707 45.3992 177.646 45.6351 177.753 45.8138L180.031 49.6552C180.14 49.8377 180.372 49.8985 180.553 49.789L186.638 47.8225C187.218 48.4665 187.839 49.0739 188.496 49.6393L186.673 55.7663C186.569 55.9507 186.635 56.1847 186.817 56.2849L190.711 58.4723C190.894 58.5762 191.125 58.5107 191.229 58.3282L195.512 53.5892C196.331 53.855 197.173 54.0684 198.034 54.2313L199.519 60.4463C199.521 60.6541 199.694 60.8245 199.904 60.8217L204.368 60.7692C204.578 60.7674 204.745 60.5961 204.745 60.3874L206.084 54.1368C206.942 53.9542 207.778 53.7221 208.591 53.4376L212.982 58.0754C213.09 58.2561 213.322 58.3169 213.504 58.2074L217.344 55.932C217.525 55.8262 217.585 55.5904 217.478 55.4097L215.513 49.3238C216.156 48.7445 216.765 48.1229 217.328 47.4668L223.457 49.2911C223.64 49.3931 223.873 49.3276 223.977 49.1451L226.164 45.2522C226.266 45.0697 226.2 44.8376 226.018 44.7346L221.28 40.4524C221.547 39.6334 221.76 38.791 221.921 37.9308L228.137 36.4436C228.348 36.4417 228.515 36.2685 228.514 36.0598L228.458 31.5988ZM202.021 51.1022C192.653 51.2136 184.97 43.7041 184.86 34.3357C184.752 24.9663 192.26 17.2818 201.629 17.176C210.998 17.0665 218.682 24.5751 218.79 33.9426C218.898 43.3129 211.39 50.9946 202.021 51.1022Z" fill="#5472D1"/>
<path d="M275.212 36.8638C275.212 38.1602 274.16 39.2113 272.863 39.2113C271.566 39.2113 270.515 38.1602 270.515 36.8638C270.515 35.5675 271.566 34.5164 272.863 34.5164C274.16 34.5164 275.212 35.5675 275.212 36.8638Z" fill="#3459B7"/>
<path d="M272.863 39.2122C272.863 40.5086 271.812 41.5597 270.515 41.5597C269.219 41.5597 268.167 40.5086 268.167 39.2122C268.167 37.9159 269.219 36.8647 270.515 36.8647C271.812 36.8638 272.863 37.9149 272.863 39.2122Z" fill="#3459B7"/>
<path d="M272.614 43.9083C273.911 43.9083 274.962 42.8569 274.962 41.5599C274.962 40.2629 273.911 39.2114 272.614 39.2114C271.317 39.2114 270.266 40.2629 270.266 41.5599C270.266 42.8569 271.317 43.9083 272.614 43.9083Z" fill="#3459B7"/>
<path d="M278.595 40.0313C278.595 41.3277 277.544 42.3788 276.248 42.3788C274.952 42.3788 273.9 41.3277 273.9 40.0313C273.9 38.735 274.952 37.6838 276.248 37.6838C277.544 37.6838 278.595 38.735 278.595 40.0313Z" fill="#3459B7"/>
<path d="M278.805 35.6883C278.805 36.9847 277.754 38.0358 276.456 38.0358C275.16 38.0358 274.108 36.9847 274.108 35.6883C274.108 34.3919 275.159 33.3408 276.456 33.3408C277.754 33.3408 278.805 34.3919 278.805 35.6883Z" fill="#3459B7"/>
<path d="M282.479 35.9027C282.479 37.199 281.428 38.2511 280.131 38.2511C278.835 38.2511 277.784 37.2 277.784 35.9027C277.784 34.6063 278.835 33.5552 280.131 33.5552C281.428 33.5542 282.479 34.6054 282.479 35.9027Z" fill="#3459B7"/>
<path d="M285.236 37.6839C285.236 38.9803 284.185 40.0314 282.888 40.0314C281.59 40.0314 280.54 38.9803 280.54 37.6839C280.54 36.3875 281.591 35.3364 282.888 35.3364C284.184 35.3364 285.236 36.3866 285.236 37.6839Z" fill="#3459B7"/>
<path d="M285.468 41.0469C285.468 42.3433 284.417 43.3944 283.121 43.3944C281.825 43.3944 280.772 42.3433 280.772 41.0469C280.772 39.7506 281.824 38.6985 283.121 38.6985C284.418 38.6985 285.468 39.7506 285.468 41.0469Z" fill="#3459B7"/>
<path d="M273.72 54.7293C273.72 54.7293 272.416 63.9807 270.031 68.204C267.645 72.4272 260.675 70.0507 253.879 66.0053L255.081 62.6488C255.081 62.6488 258.886 64.5638 262.254 65.2715C266.646 66.1934 266.717 58.8252 266.717 58.8252C266.717 58.8252 266.801 55.2376 267.471 53.6145C269.092 49.6899 273.704 50.9535 273.72 54.7293Z" fill="#F4BD4E"/>
<path d="M277.711 78.395C277.711 78.395 279.401 88.9456 270.375 86.4166C261.684 83.9811 257.041 83.2744 255.537 106.249L251.404 105.92C251.404 105.92 249.681 83.5992 255.06 78.9342C260.438 74.2691 277.711 78.395 277.711 78.395Z" fill="#0A3C5F"/>
<path d="M251.886 105.903C251.886 105.903 251.082 107.48 250.015 107.535C248.947 107.59 245.96 107.426 245.721 108.409C245.482 109.392 249.75 110.198 250.336 110.369C250.922 110.54 252.063 109.234 252.609 109.124C253.155 109.015 253.334 109.41 253.786 109.37C254.238 109.331 255.623 108.61 255.663 108.304C255.703 107.998 255.103 106.036 255.103 106.036L251.886 105.903Z" fill="#3459B7"/>
<path d="M270.516 77.5135H286.617L287.295 51.2278H270.583L270.516 77.5135Z" fill="#EFA748"/>
<path d="M285.876 77.5005H266.756V85.7785H285.876V77.5005Z" fill="#0A3C5F"/>
<path d="M278.245 75.9587C277.835 77.7399 276.989 75.1743 276.868 73.351C276.746 71.5277 278.264 71.4191 280.088 71.2965C281.911 71.1757 281.738 70.7386 282.413 72.4627C283.297 74.7204 278.672 74.1092 278.245 75.9587Z" fill="#FED4D5"/>
<path d="M286.617 77.5133C286.617 77.5133 291.199 87.1663 281.825 87.2702C272.8 87.3694 268.145 87.9937 273.145 110.467L269.086 111.31C269.086 111.31 261.391 89.8217 265.228 83.8257C269.878 76.5605 286.617 77.5133 286.617 77.5133Z" fill="#0E4F77"/>
<path d="M269.543 111.16C269.543 111.16 269.215 112.898 268.205 113.251C267.195 113.603 264.282 114.284 264.329 115.294C264.375 116.304 268.698 115.881 269.308 115.881C269.918 115.881 270.647 114.308 271.14 114.049C271.633 113.791 271.915 114.119 272.338 113.956C272.761 113.791 273.888 112.711 273.841 112.406C273.794 112.1 272.667 110.386 272.667 110.386L269.543 111.16Z" fill="#3459B7"/>
<path d="M272.377 78.3969H283.381C283.733 78.3969 284.019 78.1114 284.019 77.7595V77.6977C284.019 77.3458 283.733 77.0603 283.381 77.0603H272.377C272.025 77.0603 271.739 77.3458 271.739 77.6977V77.7595C271.739 78.1114 272.025 78.3969 272.377 78.3969Z" fill="#45ADAD"/>
<path d="M249.409 78.3971H272.619C273.226 78.3971 273.72 77.9048 273.72 77.2964V62.121C273.72 61.5126 273.227 61.0203 272.619 61.0203H249.409C248.801 61.0203 248.308 61.5126 248.308 62.121V77.2964C248.308 77.9038 248.8 78.3971 249.409 78.3971Z" fill="#45ADAD"/>
<path d="M272.619 61.0203H259.914C260.521 61.0203 261.014 61.5135 261.014 62.121V77.2964C261.014 77.9038 260.522 78.3971 259.914 78.3971H272.619C273.226 78.3971 273.72 77.9038 273.72 77.2964V62.121C273.72 61.5126 273.227 61.0203 272.619 61.0203Z" fill="#62C1C5"/>
<path d="M272.619 61.0203H271.792C272.4 61.0203 272.893 61.5135 272.893 62.121V77.2964C272.893 77.9038 272.401 78.3971 271.792 78.3971H272.619C273.226 78.3971 273.72 77.9038 273.72 77.2964V62.121C273.72 61.5126 273.227 61.0203 272.619 61.0203Z" fill="#45ADAD"/>
<path d="M289.855 52.4998C289.855 52.4998 295.03 60.2789 296.055 65.0198C297.08 69.7606 290.292 72.6182 282.526 74.1121L281.193 70.8052C281.193 70.8052 285.309 69.7072 288.296 67.9972C292.19 65.7667 287.347 60.2153 287.347 60.2153C287.347 60.2153 285.025 57.4784 284.447 55.8198C283.048 51.81 287.333 49.689 289.855 52.4998Z" fill="#F4BD4E"/>
<path d="M277.783 53.1286C277.05 53.1286 276.457 52.5352 276.457 51.8023V49.4436H279.108V51.8023C279.109 52.5352 278.515 53.1286 277.783 53.1286Z" fill="#FED4D5"/>
<path d="M282.301 46.7856C283.598 46.7856 284.649 45.7346 284.649 44.4381C284.649 43.1416 283.598 42.0906 282.301 42.0906C281.005 42.0906 279.954 43.1416 279.954 44.4381C279.954 45.7346 281.005 46.7856 282.301 46.7856Z" fill="#3459B7"/>
<path d="M283.54 45.8541C283.54 47.1505 282.489 48.2025 281.193 48.2025C279.896 48.2025 278.844 47.1514 278.844 45.8541C278.844 44.5577 279.895 43.5066 281.193 43.5066C282.489 43.5057 283.54 44.5568 283.54 45.8541Z" fill="#3459B7"/>
<path d="M272.462 41.1657C272.462 41.1657 272.41 44.8686 273.298 47.7898C274.073 50.3385 276.948 51.7491 279.31 50.5173C280.236 50.0353 281.06 49.1601 281.447 47.6204C281.447 47.6204 283.584 46.6404 283.721 44.789C283.861 42.8833 281.783 43.415 281.558 44.701L280.16 39.8825L277.364 39.8245L275.121 41.0525L272.462 41.1657Z" fill="#FED4D5"/>
<path d="M281.559 44.7029C281.559 44.7029 279.988 43.9934 279.548 42.0044C279.109 40.0154 273.943 43.0639 271.23 41.5907C268.517 40.1183 269.628 36.9921 271.747 36.4764C271.747 36.4764 271.376 37.2345 272.1 37.6127C272.823 37.9917 278.196 33.1526 281.089 35.7875C281.089 35.7875 282.818 35.9082 283.727 37.871C284.636 39.8338 282.914 43.5469 282.914 43.5469C282.914 43.5469 281.902 43.5516 281.559 44.7029Z" fill="#3459B7"/>
<path d="M77.0017 237.625C77.0017 237.625 77.3302 239.364 78.3401 239.716C79.3501 240.068 81.1978 240.75 81.151 241.76C81.1042 242.77 77.8469 242.347 77.2366 242.347C76.6263 242.347 73.6555 241.866 73.7032 241.561C73.75 241.256 73.8052 237.233 73.8052 237.233L77.0017 237.625Z" fill="#0A3C5F"/>
<path d="M79.3113 193.37C82.0669 210.729 77.459 237.776 77.459 237.776H73.3995C73.3995 237.776 74.4235 211.7 72.7013 199.714C70.979 187.727 78.0365 184.453 79.3113 193.37Z" fill="#0A3C5F"/>
<path d="M79.3117 193.357H66.0991V201.635H79.3117V193.357Z" fill="#0A3C5F"/>
<path d="M67.7277 237.625C67.7277 237.625 68.0563 239.364 69.0662 239.716C70.0762 240.068 71.9238 240.75 71.877 241.76C71.8302 242.77 68.573 242.347 67.9627 242.347C67.3524 242.347 64.3815 241.866 64.4293 241.561C64.4761 241.256 64.5322 237.233 64.5322 237.233L67.7277 237.625Z" fill="#0A3C5F"/>
<path d="M72.0652 193.371C72.4321 210.194 68.1855 237.776 68.1855 237.776H64.126C64.126 237.776 65.531 216.715 63.7226 204.742C62.532 196.854 63.2106 193.37 63.2106 193.37C65.3166 189.916 71.1395 186.895 72.0652 193.371Z" fill="#0E4F77"/>
<path d="M76.1064 170.586C76.1064 170.586 77.4103 179.838 79.7952 184.061C82.1811 188.284 89.1515 185.908 95.9468 181.862L94.745 178.506C94.745 178.506 90.9402 180.421 87.5724 181.128C83.1798 182.05 83.1087 174.682 83.1087 174.682C83.1087 174.682 83.0244 171.094 82.3542 169.471C80.735 165.547 76.1224 166.81 76.1064 170.586Z" fill="#45ADAD"/>
<path d="M79.3114 193.37H63.2103L62.5317 167.085H79.2431L79.3114 193.37Z" fill="#62C1C5"/>
<path d="M75.0422 167.085V168.389C75.0422 170.086 73.6663 171.462 71.9684 171.462C70.2704 171.462 68.8945 170.086 68.8945 168.389V167.085H75.0422Z" fill="#FED4D5"/>
<path d="M71.5819 191.816C71.9919 193.597 72.8371 191.031 72.9588 189.208C73.0805 187.385 71.5623 187.276 69.738 187.153C67.9156 187.033 68.0878 186.596 67.4139 188.32C66.5294 190.577 71.1542 189.966 71.5819 191.816Z" fill="#FED4D5"/>
<path d="M59.9719 168.357C59.9719 168.357 54.7967 176.135 53.7718 180.877C52.7469 185.618 59.5347 188.475 67.3007 189.97L68.6336 186.663C68.6336 186.663 64.518 185.565 61.5312 183.855C57.6365 181.625 62.4803 176.072 62.4803 176.072C62.4803 176.072 64.8016 173.335 65.3801 171.677C66.7794 167.667 62.4934 165.546 59.9719 168.357Z" fill="#45ADAD"/>
<path d="M72.0436 168.986C72.7756 168.986 73.37 168.392 73.37 167.659V165.301H70.7183V167.659C70.7183 168.391 71.3117 168.986 72.0436 168.986Z" fill="#FED4D5"/>
<path d="M77.3636 157.023C77.3636 157.023 77.4161 160.726 76.5278 163.648C75.7528 166.196 72.8783 167.607 70.5159 166.375C69.5902 165.893 68.7665 165.018 68.379 163.478C68.379 163.478 66.2421 162.498 66.1054 160.647C65.965 158.741 68.0439 159.273 68.2685 160.559L69.666 155.74L72.4618 155.682L74.7054 156.91L77.3636 157.023Z" fill="#FED4D5"/>
<path d="M68.2684 160.56C68.2684 160.56 69.839 159.85 70.279 157.861C70.718 155.872 75.8847 158.921 78.5963 157.449C84.7177 153.555 72.3204 148.398 68.7374 151.645C68.7374 151.645 67.0086 151.766 66.0988 153.729C65.1899 155.693 66.9122 159.405 66.9122 159.405C66.9122 159.405 67.924 159.409 68.2684 160.56Z" fill="#E89234"/>
<path d="M90.7406 163.206L86.457 180.426L99.6736 183.714L103.957 166.494L90.7406 163.206Z" fill="white"/>
<path d="M102.231 173.454C102.231 173.454 103.306 173.912 103.08 175.183C102.697 177.327 102.292 178.081 101.111 177.957C99.9299 177.834 100.583 175.923 100.755 175.114C100.927 174.304 101.106 172.828 102.231 173.454Z" fill="#FED4D5"/>
<path d="M254.654 237.626C254.654 237.626 254.982 239.364 255.992 239.717C257.002 240.069 258.85 240.75 258.803 241.76C258.756 242.77 255.499 242.347 254.888 242.347C254.278 242.347 251.307 241.867 251.355 241.561C251.402 241.256 251.457 237.233 251.457 237.233L254.654 237.626Z" fill="#0A3C5F"/>
<path d="M256.964 193.371C259.719 210.73 255.112 237.776 255.112 237.776H251.052C251.052 237.776 252.076 211.7 250.354 199.714C248.633 187.727 255.69 184.453 256.964 193.371Z" fill="#0A3C5F"/>
<path d="M256.964 193.357H243.752V201.635H256.964V193.357Z" fill="#0A3C5F"/>
<path d="M245.381 237.626C245.381 237.626 245.709 239.364 246.719 239.717C247.729 240.069 249.577 240.75 249.53 241.76C249.483 242.77 246.226 242.347 245.616 242.347C245.005 242.347 242.034 241.867 242.082 241.561C242.129 241.256 242.184 237.233 242.184 237.233L245.381 237.626Z" fill="#0A3C5F"/>
<path d="M250.357 193.358C250.583 207.505 245.837 237.776 245.837 237.776H241.778C241.778 237.776 243.183 216.715 241.374 204.742C240.184 196.854 240.862 193.37 240.862 193.37C242.968 189.916 249.432 186.882 250.357 193.358Z" fill="#0E4F77"/>
<path d="M256.964 193.371H240.863L240.184 167.085H256.896L256.964 193.371Z" fill="#5472D1"/>
<path d="M246.623 167.085V168.389C246.623 170.087 247.999 171.463 249.697 171.463C251.395 171.463 252.771 170.087 252.771 168.389V167.085H246.623Z" fill="#0A3C5F"/>
<path d="M249.696 168.986C250.428 168.986 251.023 168.393 251.023 167.66V165.301H248.371V167.66C248.37 168.392 248.964 168.986 249.696 168.986Z" fill="#FED4D5"/>
<path d="M255.017 157.023C255.017 157.023 255.069 160.726 254.181 163.648C253.406 166.197 250.532 167.607 248.169 166.375C247.243 165.893 246.42 165.018 246.032 163.479C246.032 163.479 243.895 162.499 243.759 160.647C243.618 158.741 245.697 159.273 245.922 160.559L247.319 155.741L250.115 155.683L252.359 156.911L255.017 157.023Z" fill="#FED4D5"/>
<path d="M245.921 160.56C245.921 160.56 247.492 159.851 247.931 157.862C248.37 155.873 253.537 158.921 256.25 157.449C258.962 155.976 257.851 152.85 255.733 152.335C255.733 152.335 256.104 153.093 255.38 153.471C254.656 153.85 249.284 149.011 246.391 151.646C246.391 151.646 244.662 151.766 243.752 153.729C242.843 155.693 244.565 159.405 244.565 159.405C244.565 159.405 245.577 159.409 245.921 160.56Z" fill="#3459B7"/>
<path d="M239.918 167.054C239.918 167.054 244.129 167.017 243.774 172.391C243.419 177.764 241.562 182.925 242.801 183.123C244.04 183.322 250.048 181.067 251.174 180.93C252.299 180.794 254.562 182.469 252.116 183.915C249.672 185.361 243.366 189.729 240.132 189.949C236.898 190.169 236.165 185.461 236.082 177.238C235.999 169.012 237.811 167.137 239.918 167.054Z" fill="#3459B7"/>
<path d="M256.897 167.085C256.897 167.085 259.63 171.37 259.997 175.395C260.364 179.42 256.812 177.215 256.812 177.215L256.897 167.085Z" fill="#3459B7"/>
<path d="M262.13 172.16H251.438V186.149H262.13V172.16Z" fill="white"/>
<path d="M252.682 172.16H251.438V186.149H252.682V172.16Z" fill="#D1D3D4"/>
<path d="M126.951 155.423C126.951 155.423 125.195 155.939 125.23 158.213C125.265 160.486 127.709 167.271 127.227 171.266C126.745 175.262 136.561 172.541 136.561 172.541L140.47 169.515C140.47 169.515 139.758 166.246 140.901 162.518C142.963 155.798 135.045 148.707 126.951 155.423Z" fill="#0E4F77"/>
<path d="M127.976 237.626C127.976 237.626 127.647 239.364 126.637 239.717C125.627 240.069 123.78 240.75 123.827 241.76C123.873 242.77 127.131 242.347 127.741 242.347C128.351 242.347 131.322 241.867 131.274 241.561C131.228 241.256 131.172 237.233 131.172 237.233L127.976 237.626Z" fill="#0A3C5F"/>
<path d="M127.613 191.593C123.826 208.705 127.518 237.776 127.518 237.776H131.578C131.578 237.776 131.194 212.969 133.799 197.829C135.852 185.895 129.497 183.718 127.613 191.593Z" fill="#0E4F77"/>
<path d="M138.878 191.593H128.364V199.871H138.878V191.593Z" fill="#0E4F77"/>
<path d="M137.249 237.626C137.249 237.626 136.92 239.364 135.91 239.717C134.9 240.069 133.053 240.75 133.1 241.76C133.146 242.77 136.404 242.347 137.014 242.347C137.624 242.347 140.595 241.867 140.547 241.561C140.5 241.256 140.444 237.233 140.444 237.233L137.249 237.626Z" fill="#0A3C5F"/>
<path d="M133.421 191.147C133.247 209.574 136.792 237.775 136.792 237.775H140.852C140.852 237.775 139.447 214.951 141.255 202.978C142.447 195.09 140.13 191.605 140.13 191.605C138.023 188.152 134.346 184.672 133.421 191.147Z" fill="#0E4F77"/>
<path d="M130.165 172.635C130.165 172.635 126.656 179.337 122.964 182.484C119.271 185.63 114.097 182.026 108.616 176.395L110.169 174.225C110.169 174.225 113.389 177.295 116.365 179.026C120.248 181.284 123.403 174.791 123.403 174.791C123.403 174.791 124.716 171.452 125.903 170.157C128.773 167.027 131.953 169.739 130.165 172.635Z" fill="#FED4D5"/>
<path d="M127.613 191.593C127.613 191.593 141.7 191.606 140.129 191.606C138.878 183.183 140.525 179.287 140.935 177.036C141.661 173.048 141.245 170.949 141.245 170.949C141.27 169.407 139.292 168.76 137.751 168.76C137.751 168.76 128.872 168.76 128.2 168.76C128.612 172.076 125.688 176.801 127.612 179.449C129.776 182.426 127.613 191.593 127.613 191.593Z" fill="#E89234"/>
<path d="M141.619 171.047C141.619 171.047 143.891 178.265 143.513 183.1C143.136 187.936 136.931 189.058 129.071 188.965L128.631 186.333C128.631 186.333 133.079 186.219 136.405 185.333C140.746 184.177 138.373 177.36 138.373 177.36C138.373 177.36 136.934 174.072 136.855 172.317C136.665 168.075 140.829 167.737 141.619 171.047Z" fill="#FED4D5"/>
<path d="M132.933 170.66C132.201 170.66 131.607 170.067 131.607 169.334V166.974H134.259V169.334C134.26 170.067 133.665 170.66 132.933 170.66Z" fill="#FED4D5"/>
<path d="M124.494 190.079C123.59 191.668 123.517 188.968 123.923 187.186C124.33 185.403 125.815 185.735 127.598 186.141C129.379 186.548 129.338 186.079 129.491 187.924C129.689 190.341 125.434 188.429 124.494 190.079Z" fill="#FED4D5"/>
<path d="M137.824 161.101C137.024 161.342 136.782 161.974 136.726 162.171C136.721 162.192 136.713 162.212 136.709 162.234C130.468 163.243 127.614 158.698 127.614 158.698C127.614 158.698 127.561 162.401 128.45 165.323C129.225 167.872 132.099 169.283 134.462 168.051C135.387 167.569 136.211 166.694 136.599 165.154C136.599 165.154 138.735 164.174 138.872 162.322C138.946 161.308 138.392 160.989 137.824 161.101Z" fill="#FED4D5"/>
<path d="M119.896 185.773L107.771 186.472C107.364 186.496 107.015 186.185 106.992 185.779L106.054 169.536C106.031 169.13 106.341 168.781 106.748 168.758L118.873 168.058C119.279 168.035 119.628 168.346 119.651 168.752L120.588 184.994C120.613 185.402 120.302 185.75 119.896 185.773Z" fill="#EFA748"/>
<path d="M118.64 184.776L108.902 185.338C108.496 185.361 108.147 185.051 108.123 184.644L107.291 170.216C107.268 169.81 107.579 169.461 107.985 169.437L117.723 168.876C118.129 168.852 118.478 169.163 118.502 169.569L119.334 183.998C119.357 184.405 119.047 184.753 118.64 184.776Z" fill="white"/>
<path d="M115.174 167.717L110.289 167.999L110.393 169.799L115.278 169.517L115.174 167.717Z" fill="#0A3C5F"/>
<path d="M113.987 167.193L111.302 167.348L111.371 168.535L114.055 168.38L113.987 167.193Z" fill="#0E4F77"/>
<path d="M106.968 176.285C106.968 176.285 105.718 176.499 105.711 177.795C105.699 179.979 105.986 180.807 107.284 180.943C108.582 181.08 108.256 179.065 108.231 178.234C108.205 177.402 108.304 175.916 106.968 176.285Z" fill="#FED4D5"/>
<path d="M315.242 58.7578H311.037V67.7275H315.242V58.7578Z" fill="#EFA748"/>
<path d="M322.248 54.5552H318.044V67.7284H322.248V54.5552Z" fill="#EFA748"/>
<path d="M330.097 51.1902H325.893V67.7284H330.097V51.1902Z" fill="#EFA748"/>
<path d="M329.883 45.9888L331.112 38.9988L324.122 40.5666L326.279 42.5968L320.202 48.9157L317.191 46.2153L309.106 54.5083C308.764 54.8593 308.771 55.4209 309.122 55.7625C309.473 56.1042 310.035 56.0967 310.376 55.7466L317.273 48.6705L320.292 51.3774L327.57 43.8117L329.883 45.9888Z" fill="#EFA748"/>
<path d="M333.976 67.7275H306.74V69.6763H333.976V67.7275Z" fill="#EFA748"/>
<path d="M232.918 120.519C231.863 119.464 230.153 119.464 229.098 120.519L207.953 141.664L199.316 133.028C198.261 131.973 196.551 131.973 195.496 133.028C194.441 134.083 194.441 135.793 195.496 136.847L204.133 145.485L207.953 149.305L211.772 145.485L232.918 124.34C233.972 123.284 233.972 121.574 232.918 120.519Z" fill="#45ADAD"/>
<path d="M58.6934 94.3913C58.6934 94.3913 58.0784 93.7782 57.1611 92.627" stroke="#8CB0EA" stroke-width="2" stroke-miterlimit="10"/>
<path d="M54.5214 88.8418C50.2523 81.8527 45.3252 68.8376 53.6687 53.1278C71.2533 20.0186 112.038 26.4499 125.229 45.3973C149.958 80.9213 172.508 112.049 207.161 90.7662" stroke="#8CB0EA" stroke-width="2" stroke-miterlimit="10" stroke-dasharray="4.94 4.94"/>
<path d="M209.115 89.5196C209.754 89.0965 210.397 88.6556 211.045 88.196" stroke="#8CB0EA" stroke-width="2" stroke-miterlimit="10"/>
<path d="M220.418 85.9889L236.748 66.1953L205.528 77.8466L220.418 85.9889Z" fill="#D4E1FF"/>
<path d="M211.693 81.2181L213.108 87.9236L213.546 82.2318L236.748 66.1953L211.693 81.2181Z" fill="#A6C0F4"/>
<path d="M213.108 87.9235L217.165 84.2104L213.546 82.2317L213.108 87.9235Z" fill="#8CB0EA"/>
<path d="M326.96 110.385C326.96 110.385 381.532 93.813 368.872 53.1288C352.734 1.25946 292.706 43.4965 258.223 20.8462" stroke="#8CB0EA" stroke-width="2" stroke-miterlimit="10" stroke-dasharray="5 5"/>
<path d="M250.913 20.4127L234.583 0.619141L265.804 12.2705L250.913 20.4127Z" fill="#D4E1FF"/>
<path d="M259.639 15.6419L258.223 22.3474L257.785 16.6556L234.583 0.619141L259.639 15.6419Z" fill="#A6C0F4"/>
<path d="M258.223 22.3473L254.166 18.6342L257.785 16.6555L258.223 22.3473Z" fill="#8CB0EA"/>
<path d="M75.262 212.195C73.6811 210.645 71.4366 208.412 68.6117 205.874C65.7859 203.337 62.466 200.394 58.7294 197.453C54.9957 194.513 50.9017 191.503 46.6073 188.776C44.4451 187.436 42.2268 186.18 39.9739 185.067C37.7331 183.93 35.3903 183.056 33.1851 182.228C30.9518 181.405 28.7353 180.719 26.6312 180.145C24.5215 179.572 22.4997 179.134 20.623 178.792C18.7388 178.486 16.9988 178.275 15.4479 178.223C13.8997 178.133 12.5444 178.2 11.4371 178.284C11.3117 178.295 11.1891 178.169 11.0702 177.946L11.0225 178.029C11.1619 178.346 11.3051 178.53 11.453 178.525C12.5528 178.501 13.8913 178.508 15.4151 178.682C16.9408 178.82 18.6443 179.128 20.4938 179.477C22.3359 179.876 24.3174 180.375 26.3822 181.012C28.4517 181.649 30.5849 182.414 32.7985 183.233C35.0206 184.095 37.2651 184.96 39.4563 186.103C41.6549 187.219 43.8283 188.481 45.9493 189.829C50.2221 192.479 54.3228 195.42 58.0677 198.303C61.8089 201.193 65.2665 203.946 68.1531 206.399C71.0444 208.846 73.4499 210.895 75.0982 212.37C76.7503 213.843 77.6947 214.683 77.6947 214.683C77.6947 214.683 76.8317 213.759 75.262 212.195Z" fill="white"/>
</svg>
