<svg width="84" height="120" viewBox="0 0 84 120" fill="none" xmlns="http://www.w3.org/2000/svg">
<path d="M83.8 0L70.8 20.9L57.7 42.2H26.2L26.3 42L38.8 21.9L52.4 0H83.8Z" fill="url(#paint0_linear_163_1464)"/>
<path d="M80.2 0L56 39H31.6L56 0H52.5L38.8 21.9L26.2 42H57.6L70.8 20.9L83.9 0H80.2Z" fill="#424242"/>
<path d="M59.8 30H23.8C19.4 30 15.8 33.6 15.8 38V54C15.8 56.2 17.6 58 19.8 58C22 58 24.8 56.2 24.8 54V44C24.8 42.9 25.7 42 26.8 42H56.8C57.9 42 58.8 42.9 58.8 44V53.9C58.8 55.9 61.1 57.6 63 57.9C63.3 57.9 63.5 58 63.8 58C66 58 67.8 56.2 67.8 54V38C67.8 33.6 64.2 30 59.8 30Z" fill="#BDBDBD"/>
<path d="M59.8 32C63.1 32 65.8 34.7 65.8 38V54C65.8 55.1 64.9 56 63.8 56C63.7 56 63.5 56 63.4 56C62.2 55.8 60.8 54.7 60.8 53.9V44C60.8 41.8 59 40 56.8 40H26.8C24.6 40 22.8 41.8 22.8 44V54C22.8 54.9 21.2 56 19.8 56C18.7 56 17.8 55.1 17.8 54V38C17.8 34.7 20.5 32 23.8 32H59.8ZM59.8 30H23.8C19.4 30 15.8 33.6 15.8 38V54C15.8 56.2 17.6 58 19.8 58C22 58 24.8 56.2 24.8 54V44C24.8 42.9 25.7 42 26.8 42H56.8C57.9 42 58.8 42.9 58.8 44V53.9C58.8 55.9 61.1 57.6 63 57.9C63.3 57.9 63.5 58 63.8 58C66 58 67.8 56.2 67.8 54V38C67.8 33.6 64.2 30 59.8 30Z" fill="#424242"/>
<path d="M57.7 42.2H26.2L13.7 21.9L0.0999985 0H31.6L45.8 23L57.6 42L57.7 42.2Z" fill="url(#paint1_linear_163_1464)"/>
<path d="M45.8 23L31.4 0H27.8L52.3 39H27.9L3.5 0H0L13.7 21.9L26.2 42H57.6L45.8 23Z" fill="#424242"/>
<path d="M41.8 120C62.7868 120 79.8 102.987 79.8 82C79.8 61.0132 62.7868 44 41.8 44C20.8132 44 3.8 61.0132 3.8 82C3.8 102.987 20.8132 120 41.8 120Z" fill="url(#paint2_radial_163_1464)"/>
<path d="M41.8 47C61.1 47 76.8 62.7 76.8 82C76.8 101.3 61.1 117 41.8 117C22.5 117 6.8 101.3 6.8 82C6.8 62.7 22.5 47 41.8 47ZM41.8 44C20.8 44 3.8 61 3.8 82C3.8 103 20.8 120 41.8 120C62.8 120 79.8 103 79.8 82C79.8 61 62.8 44 41.8 44Z" fill="#424242"/>
<path d="M28.4 74.0999C28.4 74.0999 28.3 60.8999 42.5 60.8999C56.7 60.8999 55.3 73.1999 55.3 73.1999C55.4 80.5999 44.6 88.9999 39.6 94.9999H56.8V101.6H29.3V95.9999C33.8 90.9999 47.3 78.2999 47.3 74.1999C47.3 74.1999 48.4 67.3999 42.3 67.3999C36.2 67.3999 36.5 74.0999 36.5 74.0999H28.4Z" fill="#757575"/>
<defs>
<linearGradient id="paint0_linear_163_1464" x1="60.0462" y1="-3.2781" x2="2.47869" y2="49.5156" gradientUnits="userSpaceOnUse">
<stop offset="0.1355" stop-color="#1E88E5"/>
<stop offset="0.938" stop-color="#1565C0"/>
</linearGradient>
<linearGradient id="paint1_linear_163_1464" x1="26.4059" y1="3.32332" x2="101.645" y2="75.2813" gradientUnits="userSpaceOnUse">
<stop offset="0.1355" stop-color="#64B5F6"/>
<stop offset="0.9462" stop-color="#2196F3"/>
</linearGradient>
<radialGradient id="paint2_radial_163_1464" cx="0" cy="0" r="1" gradientUnits="userSpaceOnUse" gradientTransform="translate(18.7671 24.0788) scale(76.7155 109.724)">
<stop offset="0.2835" stop-color="#EEEEEE"/>
<stop offset="1" stop-color="#BDBDBD"/>
</radialGradient>
</defs>
</svg>
